<?xml version="1.0" standalone="no"?>
<!DOCTYPE svg PUBLIC "-//W3C//DTD SVG 20010904//EN"
 "http://www.w3.org/TR/2001/REC-SVG-20010904/DTD/svg10.dtd">
<svg version="1.0" xmlns="http://www.w3.org/2000/svg"
 width="576.000000pt" height="301.610131pt" viewBox="0 0 576.000000 301.610131"
 preserveAspectRatio="xMidYMid meet">
<metadata>
Created by potrace 1.13, written by Peter Selinger 2001-2015
</metadata>
<g transform="translate(-9.476732,312.041476) scale(0.035761,-0.035761)"
fill="#000000" stroke="none">
<path d="M1575 8723 c-365 -31 -687 -186 -933 -448 -177 -189 -295 -418 -354
-688 l-23 -102 0 -2975 0 -2975 23 -102 c67 -306 211 -561 430 -764 143 -132
332 -243 517 -303 122 -40 206 -55 370 -66 102 -7 2266 -10 6830 -7 6188 3
6686 4 6760 20 147 30 259 67 380 126 415 201 707 592 780 1046 22 136 22
5914 0 6050 -22 135 -60 257 -119 381 -201 419 -558 693 -1029 791 -77 16
-502 17 -6837 18 -3715 1 -6773 0 -6795 -2z m10945 -4213 l0 -4180 -5507 3
-5508 2 -97 23 c-196 45 -380 125 -528 230 -93 67 -232 203 -306 302 -79 104
-185 314 -219 435 -58 203 -56 23 -52 3232 2 2795 3 2952 21 3023 76 318 218
560 451 768 204 182 485 305 765 335 19 2 2498 5 5508 5 l5472 2 0 -4180z
m2715 4152 c351 -86 619 -257 818 -520 165 -219 249 -437 277 -714 8 -82 10
-902 8 -2993 -4 -2665 -5 -2886 -21 -2962 -119 -576 -514 -980 -1090 -1115
-91 -22 -101 -22 -1384 -25 l-1293 -4 0 4181 0 4181 1298 -4 1297 -3 90 -22z"/>
<path d="M5428 8466 c-38 -9 -52 -26 -23 -26 20 0 19 -24 -5 -148 -23 -116
-18 -142 28 -142 71 0 136 87 130 173 -3 41 -4 42 -36 40 -18 0 -42 -9 -53
-19 -23 -21 -24 -12 -5 69 7 31 11 59 7 60 -3 2 -23 -1 -43 -7z m89 -182 c-8
-71 -64 -131 -87 -93 -12 18 16 101 41 122 39 31 52 23 46 -29z"/>
<path d="M5641 8451 c-8 -14 -7 -22 4 -31 19 -16 35 -4 35 26 0 29 -25 32 -39
5z"/>
<path d="M4403 8350 c-18 -11 -33 -24 -33 -30 0 -14 13 -13 28 2 16 16 15 -10
-3 -85 -7 -33 -11 -65 -8 -73 9 -24 40 -16 78 20 33 31 36 32 35 13 -5 -55 12
-62 57 -23 28 24 27 50 -2 26 -20 -17 -20 -5 2 87 9 40 14 75 11 78 -14 14
-35 -10 -46 -51 -7 -27 -28 -61 -52 -87 -46 -48 -49 -41 -25 58 23 95 18 102
-42 65z"/>
<path d="M4638 8352 c-33 -20 -40 -49 -8 -32 25 13 25 7 5 -75 -19 -80 -19
-97 2 -93 10 2 22 20 30 46 15 54 45 103 73 120 12 7 24 12 26 10 2 -2 -3 -31
-11 -63 -18 -75 -19 -115 -2 -115 21 0 78 40 72 51 -5 7 -12 6 -21 -2 -24 -19
-26 -5 -10 59 9 33 16 72 16 87 0 25 -3 27 -27 20 -16 -3 -43 -18 -60 -31
l-33 -25 0 30 c0 35 -12 38 -52 13z"/>
<path d="M4925 8360 c-33 -13 -52 -42 -70 -103 -18 -62 -14 -107 10 -107 8 0
30 14 50 32 l36 31 -6 -25 c-4 -15 -2 -29 4 -32 15 -10 71 22 71 40 0 14 -3
14 -15 4 -13 -10 -15 -9 -15 11 0 13 7 49 15 79 8 30 15 60 15 66 0 13 -67 16
-95 4z m42 -36 c7 -20 -23 -87 -53 -115 -13 -12 -26 -21 -28 -18 -8 8 14 103
29 126 18 26 43 30 52 7z"/>
<path d="M5068 8352 c-33 -20 -40 -49 -8 -32 25 14 25 8 1 -92 -18 -76 -18
-78 1 -78 20 0 21 2 38 68 10 39 62 112 80 112 7 0 -10 -102 -26 -158 -6 -21
-4 -23 16 -20 19 2 26 13 36 57 8 38 22 63 47 89 20 20 39 33 43 30 3 -4 -4
-41 -16 -84 -25 -92 -18 -108 35 -80 38 21 47 42 15 33 -24 -6 -24 -7 -5 63
18 66 19 110 3 110 -6 0 -31 -11 -55 -25 l-43 -26 0 27 c0 24 -3 25 -27 19
-16 -3 -40 -18 -55 -33 l-28 -26 0 32 c0 36 -12 40 -52 14z"/>
<path d="M5605 8346 c-16 -13 -27 -28 -23 -32 4 -4 14 -1 23 6 20 17 20 0 0
-66 -20 -66 -19 -104 1 -104 23 0 75 40 68 51 -4 6 -11 5 -20 -2 -8 -6 -16
-10 -18 -8 -3 2 4 40 14 83 25 104 15 120 -45 72z"/>
<path d="M5780 8363 c-8 -3 -25 -15 -37 -26 -30 -27 -33 -101 -4 -117 26 -13
16 -47 -19 -65 -40 -21 -56 -80 -27 -103 30 -25 122 -18 152 13 33 32 31 48
-10 94 -37 41 -44 61 -21 61 20 0 66 57 66 82 0 16 5 19 22 15 12 -4 28 -1 35
5 17 14 17 -9 -2 -85 -7 -33 -11 -65 -8 -73 9 -24 40 -16 78 20 33 31 36 32
35 13 -5 -55 12 -62 57 -23 28 24 27 50 -2 26 -20 -17 -20 -5 2 87 9 40 14 75
11 78 -14 14 -35 -10 -46 -50 -12 -45 -83 -137 -90 -116 -2 6 4 45 13 86 10
42 14 79 10 83 -3 4 -24 -3 -46 -15 -21 -12 -39 -18 -39 -13 0 13 -107 32
-130 23z m48 -40 c19 -39 -16 -93 -52 -80 -19 8 -22 67 -4 85 17 17 46 15 56
-5z m-23 -198 c14 -13 25 -28 25 -33 0 -20 -30 -33 -67 -30 -33 3 -38 7 -41
30 -2 18 4 31 20 42 30 21 35 20 63 -9z"/>
<path d="M6219 8353 c-41 -25 -59 -64 -59 -127 0 -44 4 -57 19 -66 70 -37 151
35 151 133 0 71 -50 98 -111 60z m65 -29 c11 -28 6 -75 -10 -111 -14 -28 -22
-33 -43 -31 -23 3 -26 8 -29 45 -4 59 20 113 51 113 14 0 28 -7 31 -16z"/>
<path d="M6383 8350 c-18 -11 -33 -24 -33 -30 0 -14 13 -13 28 2 16 16 15 -10
-3 -85 -7 -33 -11 -65 -8 -73 9 -24 40 -16 78 20 33 31 36 32 35 13 -5 -55 12
-62 57 -23 28 24 27 50 -2 26 -20 -17 -20 -5 2 87 9 40 14 75 11 78 -14 14
-35 -10 -46 -51 -7 -27 -28 -61 -52 -87 -46 -48 -49 -41 -25 58 23 95 18 102
-42 65z"/>
<path d="M6631 8344 c-19 -15 -31 -35 -31 -49 0 -27 34 -55 66 -55 27 0 37
-22 20 -45 -18 -25 -70 -17 -74 13 -5 34 -19 26 -24 -13 -3 -23 1 -36 10 -40
32 -12 72 -4 102 21 25 21 30 33 28 58 -3 27 -9 33 -46 45 -35 11 -43 17 -40
35 4 30 57 36 65 7 7 -29 20 -26 26 6 9 50 -52 60 -102 17z"/>
<path d="M6950 8363 c-8 -3 -25 -15 -37 -26 -30 -27 -33 -101 -4 -117 26 -13
16 -47 -19 -65 -40 -21 -56 -80 -27 -103 30 -25 122 -18 152 13 33 32 31 48
-10 94 -37 41 -44 61 -21 61 20 0 66 57 66 82 0 16 5 19 22 15 12 -3 30 -1 40
4 16 9 18 7 13 -13 -27 -122 -33 -153 -30 -156 11 -11 45 12 45 31 0 31 47
127 62 128 7 1 19 1 26 0 6 -1 12 5 12 13 0 8 3 21 6 30 10 27 -32 19 -55 -10
l-21 -27 0 27 c0 31 -12 33 -56 5 -19 -11 -34 -16 -34 -11 0 14 -105 35 -130
25z m48 -40 c19 -39 -16 -93 -52 -80 -19 8 -22 67 -4 85 17 17 46 15 56 -5z
m-23 -198 c14 -13 25 -28 25 -33 0 -20 -30 -33 -67 -30 -33 3 -38 7 -41 30 -2
18 4 31 20 42 30 21 35 20 63 -9z"/>
<path d="M7325 8360 c-33 -13 -52 -42 -70 -103 -18 -62 -14 -107 10 -107 8 0
30 14 50 32 l36 31 -6 -25 c-4 -15 -2 -29 4 -32 15 -10 71 22 71 40 0 14 -3
14 -15 4 -13 -10 -15 -9 -15 11 0 13 7 49 15 79 8 30 15 60 15 66 0 13 -67 16
-95 4z m42 -36 c7 -20 -23 -87 -53 -115 -13 -12 -26 -21 -28 -18 -8 8 14 103
29 126 18 26 43 30 52 7z"/>
<path d="M7468 8352 c-33 -20 -40 -49 -8 -32 25 14 25 8 1 -92 -18 -76 -18
-78 1 -78 20 0 21 2 38 68 10 39 62 112 80 112 7 0 -10 -102 -26 -158 -6 -21
-4 -23 16 -20 19 2 26 13 36 57 8 38 22 63 47 89 20 20 39 33 43 30 3 -4 -4
-41 -16 -84 -25 -92 -18 -108 35 -80 38 21 47 42 15 33 -24 -6 -24 -7 -5 63
18 66 19 110 3 110 -6 0 -31 -11 -55 -25 l-43 -26 0 27 c0 24 -3 25 -27 19
-16 -3 -40 -18 -55 -33 l-28 -26 0 32 c0 36 -12 40 -52 14z"/>
<path d="M7808 8352 c-33 -20 -40 -49 -8 -32 25 14 25 8 1 -92 -18 -76 -18
-78 1 -78 20 0 21 2 38 68 10 39 62 112 80 112 7 0 -10 -102 -26 -158 -6 -21
-4 -23 16 -20 19 2 26 13 36 57 8 38 22 63 47 89 20 20 39 33 43 30 3 -4 -4
-41 -16 -84 -25 -92 -18 -108 35 -80 38 21 47 42 15 33 -24 -6 -24 -7 -5 63
18 66 19 110 3 110 -6 0 -31 -11 -55 -25 l-43 -26 0 27 c0 24 -3 25 -27 19
-16 -3 -40 -18 -55 -33 l-28 -26 0 32 c0 36 -12 40 -52 14z"/>
<path d="M8195 8360 c-33 -13 -52 -42 -70 -103 -18 -62 -14 -107 10 -107 8 0
30 14 50 32 l36 31 -6 -25 c-4 -15 -2 -29 4 -32 15 -10 71 22 71 40 0 14 -3
14 -15 4 -13 -10 -15 -9 -15 11 0 13 7 49 15 79 8 30 15 60 15 66 0 13 -67 16
-95 4z m42 -36 c7 -20 -23 -87 -53 -115 -13 -12 -26 -21 -28 -18 -8 8 14 103
29 126 18 26 43 30 52 7z"/>
<path d="M8343 8349 c-45 -29 -46 -52 -2 -28 17 9 19 7 14 -13 -27 -122 -33
-153 -30 -156 11 -11 45 12 45 31 0 31 47 127 62 128 7 1 19 1 26 0 6 -1 12 5
12 13 0 8 3 21 6 30 10 27 -32 19 -55 -10 l-21 -27 0 27 c0 31 -14 33 -57 5z"/>
<path d="M8521 8344 c-19 -15 -31 -35 -31 -49 0 -27 34 -55 66 -55 27 0 37
-22 20 -45 -18 -25 -70 -17 -74 13 -5 34 -19 26 -24 -13 -3 -23 1 -36 10 -40
32 -12 72 -4 102 21 25 21 30 33 28 58 -3 27 -9 33 -46 45 -35 11 -43 17 -40
35 4 30 57 36 65 7 7 -29 20 -26 26 6 9 50 -52 60 -102 17z"/>
<path d="M2556 7459 c-474 -69 -849 -452 -916 -934 -8 -57 -10 -731 -8 -2335
l3 -2255 27 -98 c31 -112 97 -257 158 -346 55 -83 158 -190 239 -252 91 -69
266 -153 386 -186 l100 -28 3895 -3 c2926 -2 3917 0 3985 9 459 59 833 413
920 872 13 69 15 364 15 2342 0 2473 3 2331 -57 2498 -56 156 -127 272 -242
390 -171 177 -366 281 -605 322 -78 13 -532 15 -3965 14 -2132 -1 -3903 -5
-3935 -10z m7929 -48 c319 -66 588 -274 730 -566 63 -128 90 -218 105 -353 8
-68 10 -750 8 -2317 l-3 -2220 -27 -100 c-109 -399 -420 -695 -815 -776 -89
-19 -203 -19 -4020 -16 l-3928 2 -80 23 c-95 28 -241 95 -322 149 -73 48 -192
160 -249 235 -92 119 -163 276 -194 430 -20 94 -20 146 -20 2341 0 2437 -3
2307 54 2473 89 261 282 482 531 607 78 39 211 83 289 96 28 5 1806 9 3951 10
3771 1 3903 0 3990 -18z"/>
<path d="M4187 7349 c-111 -26 -226 -123 -280 -236 l-32 -68 -3 -197 -3 -196
-472 -4 c-470 -4 -472 -4 -568 -30 -324 -88 -559 -318 -661 -649 l-23 -74 -3
-1955 c-3 -2167 -7 -2024 62 -2196 106 -261 318 -452 603 -541 l88 -28 3530 0
3530 0 89 28 c155 49 274 116 380 216 167 159 262 354 286 588 8 76 10 669 8
1978 l-4 1870 -22 85 c-89 334 -338 586 -671 678 l-96 27 -1767 3 -1766 2 -4
193 c-3 187 -4 194 -32 255 -56 122 -148 206 -263 242 -63 19 -90 20 -967 19
-495 -1 -918 -5 -939 -10z m1823 -29 c132 -21 247 -106 306 -225 29 -59 29
-63 32 -252 l4 -193 -337 0 -337 0 16 23 c48 66 60 102 64 192 3 74 0 100 -17
145 -20 54 -74 130 -92 130 -12 0 -12 -37 0 -44 25 -16 54 -106 59 -182 6 -96
-9 -166 -46 -223 l-26 -41 -148 0 -147 0 -26 44 c-38 64 -46 101 -47 200 0 83
2 93 36 159 43 84 34 107 -17 46 -90 -105 -98 -290 -17 -406 l30 -43 -700 0
-700 0 0 144 c0 162 9 226 44 302 50 110 173 203 292 223 74 13 1696 13 1774
1z m-2140 -1125 l0 -415 -286 0 c-324 0 -376 -7 -509 -70 -159 -74 -279 -191
-354 -344 -83 -168 -76 -12 -76 -1816 0 -1804 -7 -1648 76 -1816 95 -193 277
-341 487 -395 73 -19 146 -19 3217 -19 3071 0 3144 0 3217 19 211 54 392 201
487 395 83 168 76 12 76 1816 0 1528 -1 1608 -18 1670 -76 268 -279 471 -541
539 -79 21 -92 21 -1668 21 l-1588 0 0 415 0 415 1773 -2 c1768 -3 1772 -3
1842 -24 299 -90 518 -286 615 -553 63 -173 61 -68 58 -2166 l-3 -1910 -22
-80 c-80 -284 -292 -518 -559 -614 -166 -60 88 -56 -3679 -56 l-3460 0 -87 22
c-186 48 -322 126 -450 262 -136 143 -216 314 -238 511 -8 66 -10 667 -8 1970
l3 1875 23 85 c87 328 342 581 659 654 103 24 89 23 566 25 l447 1 0 -415z
m2480 0 l0 -415 -69 0 -70 0 -3 238 c-3 222 -5 241 -27 297 -33 81 -115 163
-196 196 l-60 24 -754 3 c-839 3 -827 4 -929 -64 -57 -38 -106 -99 -137 -172
-17 -41 -20 -76 -23 -284 l-4 -238 -89 0 -89 0 0 415 0 415 1225 0 1225 0 0
-415z m-393 284 c78 -29 162 -113 192 -193 19 -52 21 -76 21 -281 l0 -225
-255 0 -255 0 35 51 c19 28 39 67 45 87 17 62 12 175 -10 234 -19 53 -73 128
-91 128 -15 0 -10 -30 9 -58 38 -55 47 -95 47 -202 0 -107 -3 -120 -60 -222
-9 -16 -25 -18 -140 -18 l-130 0 -33 58 c-61 112 -62 263 -2 369 41 71 27 91
-23 32 -50 -57 -72 -127 -71 -219 1 -86 21 -148 65 -202 l30 -38 -606 0 -606
0 3 238 c3 236 3 237 31 294 34 70 110 140 180 167 50 19 77 20 809 20 748 1
758 1 815 -20z m-2087 -1109 l0 -380 -163 0 c-253 0 -352 -35 -492 -175 -88
-87 -133 -163 -160 -270 -23 -90 -23 -2541 0 -2630 24 -94 72 -181 138 -252
78 -83 158 -136 261 -171 l81 -27 2830 -3 c1803 -2 2860 1 2911 7 236 29 424
175 506 394 l23 62 3 1279 c3 1410 6 1330 -60 1466 -43 89 -169 215 -258 258
-136 66 -38 62 -1642 62 l-1458 0 0 380 0 380 1553 0 c1667 -1 1638 0 1766
-51 229 -93 394 -285 445 -519 15 -68 16 -220 14 -1660 l-3 -1585 -27 -80
c-83 -244 -279 -424 -528 -486 -46 -12 -561 -14 -3195 -14 l-3140 0 -90 32
c-127 44 -208 94 -295 182 -87 88 -139 173 -178 286 l-27 80 -3 1585 c-2 1440
-1 1592 14 1660 53 241 229 440 466 526 92 34 180 42 446 43 l262 1 0 -380z
m210 0 l0 -380 -90 0 -90 0 0 380 0 380 90 0 90 0 0 -380z m2090 0 l0 -380
-1025 0 -1025 0 0 380 0 380 1025 0 1025 0 0 -380z m180 0 l0 -380 -70 0 -70
0 0 380 0 380 70 0 70 0 0 -380z m-2480 -840 l0 -429 -32 -5 c-18 -3 -50 -7
-72 -10 -62 -8 -157 -59 -210 -112 -61 -60 -104 -151 -117 -243 -6 -41 -9
-402 -7 -893 4 -915 0 -865 72 -974 44 -66 118 -125 193 -156 l58 -23 2664 -3
c2377 -2 2671 -1 2725 13 120 31 216 111 269 223 l32 67 3 879 c2 786 1 885
-14 935 -22 76 -55 130 -115 186 -62 58 -134 91 -224 105 -44 6 -557 10 -1387
10 l-1318 0 0 430 0 430 1433 0 c1218 0 1442 -3 1502 -15 201 -42 370 -199
432 -400 17 -57 18 -128 18 -1315 0 -1187 -1 -1258 -18 -1315 -61 -198 -213
-344 -413 -395 -76 -20 -121 -20 -2913 -20 -2450 0 -2846 2 -2906 15 -201 42
-370 199 -432 400 -17 57 -18 128 -18 1315 l0 1255 24 74 c63 193 228 344 421
385 37 8 126 15 208 15 l142 1 0 -430z m210 0 l0 -430 -90 0 -90 0 0 430 0
430 90 0 90 0 0 -430z m2090 0 l0 -430 -1025 0 -1025 0 0 430 0 430 1025 0
1025 0 0 -430z m180 0 l0 -430 -70 0 -70 0 0 430 0 430 70 0 70 0 0 -430z
m-2480 -1290 c0 -799 1 -822 20 -881 12 -33 31 -77 44 -97 32 -50 114 -125
166 -152 95 -49 117 -50 1020 -50 527 0 869 4 908 10 124 20 236 96 299 201
64 107 63 90 63 981 l0 808 1368 -2 1367 -3 65 -31 c118 -56 199 -163 220
-290 14 -83 13 -1609 -1 -1694 -20 -126 -101 -233 -219 -289 l-55 -26 -2690 0
-2690 0 -67 33 c-82 40 -157 119 -190 200 l-23 57 0 875 0 875 31 66 c18 37
48 84 68 106 59 65 175 119 264 122 l32 1 0 -820z m210 27 c0 -884 -1 -865 68
-967 21 -31 61 -71 92 -92 102 -70 88 -69 931 -66 l754 3 60 24 c81 33 163
115 196 196 l24 60 3 818 2 817 70 0 70 0 -2 -832 -3 -833 -27 -57 c-31 -68
-103 -147 -163 -183 -97 -56 -83 -56 -1056 -53 l-894 3 -65 31 c-82 40 -136
87 -178 156 -61 103 -62 110 -62 981 l0 787 90 0 90 0 0 -793z m2090 -12 c0
-789 0 -805 -21 -860 -39 -104 -143 -191 -251 -212 l-33 -6 43 32 c54 40 98
108 112 175 8 35 10 245 8 676 l-3 625 -28 57 c-16 32 -48 75 -73 97 -83 73
-60 71 -784 71 l-647 0 -61 -30 c-68 -35 -115 -82 -146 -149 -21 -45 -21 -56
-21 -696 0 -701 -2 -673 53 -758 14 -20 43 -51 65 -67 48 -35 31 -39 -47 -9
-73 27 -148 96 -183 167 l-28 57 -3 818 -2 817 1025 0 1025 0 0 -805z m-348
603 c56 -25 123 -93 147 -148 21 -50 22 -55 19 -693 l-3 -642 -27 -45 c-35
-60 -72 -94 -133 -122 l-50 -23 -630 0 -630 0 -57 28 c-32 16 -73 47 -92 69
-68 79 -67 64 -64 769 3 628 3 634 25 674 19 36 59 79 106 115 49 37 96 39
732 37 556 -2 624 -4 657 -19z"/>
<path d="M5393 7127 c-44 -10 -58 -27 -24 -27 28 0 31 -18 31 -167 0 -126 -1
-135 -20 -140 -11 -3 -20 -12 -20 -19 0 -11 16 -14 65 -14 51 0 65 3 65 15 0
8 -9 15 -20 15 -17 0 -20 7 -20 41 0 48 1 47 81 -29 38 -36 50 -42 72 -36 31
7 36 30 9 38 -10 3 -40 29 -67 56 l-50 50 30 25 c17 13 42 30 58 37 36 17 34
28 -4 28 -23 0 -44 -11 -78 -42 l-46 -43 -3 113 c-1 61 -6 111 -10 111 -4 -1
-26 -6 -49 -12z"/>
<path d="M4570 7112 c0 -4 10 -12 23 -17 21 -10 22 -16 25 -147 2 -111 0 -139
-13 -151 -31 -32 -17 -37 103 -37 64 0 122 4 128 8 6 4 15 26 19 50 5 34 4 42
-8 42 -9 0 -18 -13 -22 -30 l-7 -30 -74 0 -75 0 3 143 c3 136 4 142 26 152 39
17 24 25 -53 25 -41 0 -75 -3 -75 -8z"/>
<path d="M4880 7112 c0 -4 10 -12 23 -17 21 -10 22 -16 25 -147 2 -111 0 -139
-13 -151 -31 -32 -17 -37 103 -37 64 0 122 4 128 8 6 4 15 26 19 50 5 34 4 42
-8 42 -9 0 -18 -13 -22 -30 l-7 -30 -74 0 -75 0 3 143 c3 136 4 142 26 152 39
17 24 25 -53 25 -41 0 -75 -3 -75 -8z"/>
<path d="M8757 6349 c-48 -55 -71 -127 -71 -214 0 -87 23 -159 71 -214 49 -58
64 -40 24 31 -60 105 -60 260 -1 365 41 71 27 91 -23 32z"/>
<path d="M9080 6371 c0 -11 4 -22 9 -25 25 -16 54 -106 59 -182 5 -94 -9 -168
-44 -220 -45 -66 -25 -88 24 -26 54 68 66 101 70 197 5 104 -15 173 -69 238
-34 41 -49 47 -49 18z"/>
<path d="M8010 6362 c0 -4 10 -12 23 -17 21 -10 22 -16 25 -147 2 -111 0 -139
-13 -151 -31 -32 -17 -37 103 -37 64 0 122 4 128 8 6 4 15 26 19 50 5 34 4 42
-8 42 -9 0 -18 -13 -22 -30 l-7 -30 -74 0 -75 0 3 143 c3 136 4 142 26 152 39
17 24 25 -53 25 -41 0 -75 -3 -75 -8z"/>
<path d="M8320 6360 c0 -5 4 -10 9 -10 5 0 17 -7 25 -16 13 -12 16 -40 16
-139 0 -137 -4 -155 -31 -155 -10 0 -19 -7 -19 -15 0 -12 15 -15 75 -15 58 0
75 3 75 14 0 8 -10 16 -22 18 -23 3 -23 5 -23 148 l0 145 41 3 c49 4 74 -16
74 -58 0 -35 -41 -70 -82 -70 -16 0 -28 -3 -26 -8 2 -4 34 -49 73 -100 66 -87
71 -92 107 -92 27 0 38 4 38 15 0 8 -6 15 -12 16 -7 0 -37 32 -67 71 -51 66
-53 72 -36 82 44 26 65 55 65 93 0 44 -6 55 -37 72 -27 14 -243 15 -243 1z"/>
<path d="M8885 6345 c-45 -17 -61 -28 -63 -44 -4 -26 -1 -26 49 -1 l40 21 -3
-138 -3 -138 -27 -3 c-16 -2 -28 -10 -28 -17 0 -11 20 -14 90 -14 72 0 90 3
90 14 0 10 -10 15 -29 15 -38 0 -41 13 -34 186 7 164 13 155 -82 119z"/>
<path d="M4590 6252 c0 -4 10 -12 23 -17 21 -10 22 -16 25 -147 2 -111 0 -139
-13 -151 -31 -32 -17 -37 103 -37 64 0 122 4 128 8 6 4 15 26 19 50 5 34 4 42
-8 42 -9 0 -18 -13 -22 -30 l-7 -30 -74 0 -75 0 3 143 c3 136 4 142 26 152 39
17 24 25 -53 25 -41 0 -75 -3 -75 -8z"/>
<path d="M4900 6252 c0 -4 10 -12 23 -17 21 -10 22 -16 25 -147 2 -111 0 -139
-13 -151 -31 -32 -17 -37 103 -37 64 0 122 4 128 8 6 4 15 26 19 50 5 34 4 42
-8 42 -9 0 -18 -13 -22 -30 l-7 -30 -74 0 -75 0 3 143 c3 136 4 142 26 152 39
17 24 25 -53 25 -41 0 -75 -3 -75 -8z"/>
<path d="M5435 6235 c-45 -17 -61 -28 -63 -44 -4 -26 -1 -26 49 -1 l40 21 -3
-138 -3 -138 -27 -3 c-16 -2 -28 -10 -28 -17 0 -11 20 -14 90 -14 72 0 90 3
90 14 0 10 -10 15 -29 15 -38 0 -41 13 -34 186 7 164 13 155 -82 119z"/>
<path d="M9457 5479 c-48 -55 -71 -127 -71 -214 0 -87 23 -159 71 -214 49 -58
64 -40 24 31 -60 105 -60 260 -1 365 41 71 27 91 -23 32z"/>
<path d="M9780 5501 c0 -11 4 -22 9 -25 25 -16 54 -106 59 -182 5 -94 -9 -168
-44 -220 -45 -66 -25 -88 24 -26 54 68 66 101 70 197 5 104 -15 173 -69 238
-34 41 -49 47 -49 18z"/>
<path d="M8010 5492 c0 -4 10 -12 23 -17 21 -10 22 -16 25 -147 2 -111 0 -139
-13 -151 -31 -32 -17 -37 103 -37 64 0 122 4 128 8 6 4 15 26 19 50 5 34 4 42
-8 42 -9 0 -18 -13 -22 -30 l-7 -30 -74 0 -75 0 3 143 c3 136 4 142 26 152 39
17 24 25 -53 25 -41 0 -75 -3 -75 -8z"/>
<path d="M8476 5459 c-10 -23 -42 -98 -73 -166 -42 -94 -60 -123 -74 -123 -11
0 -19 -7 -19 -15 0 -12 14 -15 65 -15 51 0 65 3 65 15 0 8 -9 15 -20 15 -24 0
-25 9 -6 55 15 35 15 35 81 35 66 0 66 0 81 -35 19 -46 18 -55 -6 -55 -11 0
-20 -7 -20 -15 0 -11 15 -14 70 -14 54 0 70 4 70 15 0 8 -6 14 -13 14 -8 0
-44 70 -84 163 -41 95 -76 163 -85 165 -10 2 -21 -12 -32 -39z m53 -121 l20
-48 -53 0 -54 0 27 64 c18 45 28 59 33 48 3 -10 15 -38 27 -64z"/>
<path d="M8710 5492 c0 -4 10 -12 23 -17 21 -10 22 -16 25 -147 2 -111 0 -139
-13 -151 -31 -32 -17 -37 103 -37 64 0 122 4 128 8 6 4 15 26 19 50 5 34 4 42
-8 42 -9 0 -18 -13 -22 -30 l-7 -30 -74 0 -75 0 3 143 c3 136 4 142 26 152 39
17 24 25 -53 25 -41 0 -75 -3 -75 -8z"/>
<path d="M9020 5490 c0 -5 4 -10 9 -10 5 0 17 -7 25 -16 13 -12 16 -40 16
-139 0 -137 -4 -155 -31 -155 -10 0 -19 -7 -19 -15 0 -12 15 -15 75 -15 58 0
75 3 75 14 0 8 -10 16 -22 18 -23 3 -23 5 -23 148 l0 145 41 3 c49 4 74 -16
74 -58 0 -35 -41 -70 -82 -70 -16 0 -28 -3 -26 -8 2 -4 34 -49 73 -100 66 -87
71 -92 107 -92 27 0 38 4 38 15 0 8 -6 15 -12 16 -7 0 -37 32 -67 71 -51 66
-53 72 -36 82 44 26 65 55 65 93 0 44 -6 55 -37 72 -27 14 -243 15 -243 1z"/>
<path d="M9585 5475 c-45 -17 -61 -28 -63 -44 -4 -26 -1 -26 49 -1 l40 21 -3
-138 -3 -138 -27 -3 c-16 -2 -28 -10 -28 -17 0 -11 20 -14 90 -14 72 0 90 3
90 14 0 10 -10 15 -29 15 -38 0 -41 13 -34 186 7 164 13 155 -82 119z"/>
<path d="M9017 4689 c-48 -55 -71 -127 -71 -214 0 -87 23 -159 71 -214 49 -58
64 -40 24 31 -60 105 -60 260 -1 365 41 71 27 91 -23 32z"/>
<path d="M9340 4711 c0 -11 4 -22 9 -25 25 -16 54 -106 59 -182 5 -94 -9 -168
-44 -220 -45 -66 -25 -88 24 -26 54 68 66 101 70 197 5 104 -15 173 -69 238
-34 41 -49 47 -49 18z"/>
<path d="M8097 4710 c-82 -15 -124 -108 -75 -164 18 -22 35 -29 73 -33 97 -9
133 -41 105 -93 -30 -56 -160 -51 -160 7 0 14 -6 23 -15 23 -11 0 -15 -12 -15
-44 0 -41 2 -44 31 -50 81 -16 155 0 193 42 10 12 21 41 23 65 6 54 -16 83
-71 91 -20 3 -52 8 -71 11 -23 4 -41 15 -52 31 -15 24 -15 27 4 52 34 45 125
43 137 -3 9 -34 22 -31 30 6 9 47 9 48 -31 54 -21 4 -45 8 -53 10 -8 1 -32 -1
-53 -5z"/>
<path d="M8280 4702 c0 -4 10 -12 23 -17 21 -10 22 -16 25 -147 2 -111 0 -139
-13 -151 -31 -32 -17 -37 103 -37 64 0 122 4 128 8 6 4 15 26 19 50 5 34 4 42
-8 42 -9 0 -18 -13 -22 -30 l-7 -30 -74 0 -75 0 3 143 c3 136 4 142 26 152 39
17 24 25 -53 25 -41 0 -75 -3 -75 -8z"/>
<path d="M8580 4700 c0 -5 4 -10 9 -10 5 0 17 -7 25 -16 13 -12 16 -40 16
-139 0 -137 -4 -155 -31 -155 -10 0 -19 -7 -19 -15 0 -12 15 -15 75 -15 58 0
75 3 75 14 0 8 -10 16 -22 18 -23 3 -23 5 -23 148 l0 145 41 3 c49 4 74 -16
74 -58 0 -35 -41 -70 -82 -70 -16 0 -28 -3 -26 -8 2 -4 34 -49 73 -100 66 -87
71 -92 107 -92 27 0 38 4 38 15 0 8 -6 15 -12 16 -7 0 -37 32 -67 71 -51 66
-53 72 -36 82 44 26 65 55 65 93 0 44 -6 55 -37 72 -27 14 -243 15 -243 1z"/>
<path d="M9155 4685 c-45 -17 -61 -28 -63 -44 -4 -26 -1 -26 49 -1 l40 21 -3
-138 -3 -138 -27 -3 c-16 -2 -28 -10 -28 -17 0 -11 20 -14 90 -14 72 0 90 3
90 14 0 10 -10 15 -29 15 -38 0 -41 13 -34 186 7 164 13 155 -82 119z"/>
<path d="M8757 3799 c-48 -55 -71 -127 -71 -214 0 -87 23 -159 71 -214 49 -58
64 -40 24 31 -60 105 -60 260 -1 365 41 71 27 91 -23 32z"/>
<path d="M9080 3821 c0 -11 4 -22 9 -25 25 -16 54 -106 59 -182 5 -94 -9 -168
-44 -220 -45 -66 -25 -88 24 -26 54 68 66 101 70 197 5 104 -15 173 -69 238
-34 41 -49 47 -49 18z"/>
<path d="M8900 3817 c-46 -16 -70 -60 -77 -145 -11 -135 27 -212 106 -212 81
0 115 55 116 190 0 129 -15 156 -95 175 -8 2 -31 -2 -50 -8z m74 -50 c18 -24
21 -42 21 -126 0 -76 -4 -103 -18 -124 -19 -29 -57 -36 -76 -14 -36 45 -36
237 1 277 25 26 45 23 72 -13z"/>
<path d="M8010 3812 c0 -4 10 -12 23 -17 21 -10 22 -16 25 -147 2 -111 0 -139
-13 -151 -31 -32 -17 -37 103 -37 64 0 122 4 128 8 6 4 15 26 19 50 5 34 4 42
-8 42 -9 0 -18 -13 -22 -30 l-7 -30 -74 0 -75 0 3 143 c3 136 4 142 26 152 39
17 24 25 -53 25 -41 0 -75 -3 -75 -8z"/>
<path d="M8320 3810 c0 -5 4 -10 9 -10 5 0 17 -7 25 -16 13 -12 16 -40 16
-139 0 -137 -4 -155 -31 -155 -10 0 -19 -7 -19 -15 0 -12 15 -15 75 -15 58 0
75 3 75 14 0 8 -10 16 -22 18 -23 3 -23 5 -23 148 l0 145 41 3 c49 4 74 -16
74 -58 0 -35 -41 -70 -82 -70 -16 0 -28 -3 -26 -8 2 -4 34 -49 73 -100 66 -87
71 -92 107 -92 27 0 38 4 38 15 0 8 -6 15 -12 16 -7 0 -37 32 -67 71 -51 66
-53 72 -36 82 44 26 65 55 65 93 0 44 -6 55 -37 72 -27 14 -243 15 -243 1z"/>
<path d="M5337 3109 c-48 -55 -71 -127 -71 -214 0 -87 23 -159 71 -214 49 -58
64 -40 24 31 -60 105 -60 260 -1 365 41 71 27 91 -23 32z"/>
<path d="M5660 3131 c0 -11 4 -22 9 -25 25 -16 54 -106 59 -182 5 -94 -9 -168
-44 -220 -45 -66 -25 -88 24 -26 54 68 66 101 70 197 5 104 -15 173 -69 238
-34 41 -49 47 -49 18z"/>
<path d="M5490 3127 c-46 -16 -70 -60 -77 -145 -11 -135 27 -212 106 -212 81
0 115 55 116 190 0 129 -15 156 -95 175 -8 2 -31 -2 -50 -8z m74 -50 c18 -24
21 -42 21 -126 0 -76 -4 -103 -18 -124 -19 -29 -57 -36 -76 -14 -36 45 -36
237 1 277 25 26 45 23 72 -13z"/>
<path d="M4630 3122 c0 -4 10 -12 23 -17 21 -10 22 -16 25 -147 2 -111 0 -139
-13 -151 -31 -32 -17 -37 103 -37 64 0 122 4 128 8 6 4 15 26 19 50 5 34 4 42
-8 42 -9 0 -18 -13 -22 -30 l-7 -30 -74 0 -75 0 3 143 c3 136 4 142 26 152 39
17 24 25 -53 25 -41 0 -75 -3 -75 -8z"/>
<path d="M4930 3122 c0 -4 10 -12 23 -17 21 -10 22 -16 25 -147 2 -111 0 -139
-13 -151 -31 -32 -17 -37 103 -37 64 0 122 4 128 8 6 4 15 26 19 50 5 34 4 42
-8 42 -9 0 -18 -13 -22 -30 l-7 -30 -74 0 -75 0 3 143 c3 136 4 142 26 152 39
17 24 25 -53 25 -41 0 -75 -3 -75 -8z"/>
<path d="M8756 7169 c-47 -55 -70 -127 -70 -214 0 -87 23 -159 71 -214 49 -58
64 -40 24 31 -57 101 -60 257 -6 356 22 41 31 49 48 44 12 -3 25 -10 29 -16 4
-6 8 -73 8 -149 0 -131 -1 -139 -20 -144 -11 -3 -20 -12 -20 -19 0 -11 16 -14
65 -14 51 0 65 3 65 15 0 8 -9 15 -20 15 -17 0 -20 7 -20 41 0 48 1 47 81 -29
38 -36 50 -42 72 -36 31 7 36 30 9 38 -10 3 -40 29 -67 56 l-50 50 30 25 c17
13 42 30 58 37 36 17 34 28 -4 28 -23 0 -44 -11 -78 -42 l-46 -43 -3 113 c-2
101 -4 113 -20 108 -52 -16 -74 -17 -86 -7 -11 9 -21 3 -50 -30z"/>
<path d="M9110 7191 c0 -11 4 -22 9 -25 25 -16 54 -106 59 -182 5 -94 -9 -168
-44 -220 -45 -66 -25 -88 24 -26 54 68 66 101 70 197 5 104 -15 173 -69 238
-34 41 -49 47 -49 18z"/>
<path d="M8010 7182 c0 -4 10 -12 23 -17 21 -10 22 -16 25 -147 2 -111 0 -139
-13 -151 -31 -32 -17 -37 103 -37 64 0 122 4 128 8 6 4 15 26 19 50 5 34 4 42
-8 42 -9 0 -18 -13 -22 -30 l-7 -30 -74 0 -75 0 3 143 c3 136 4 142 26 152 39
17 24 25 -53 25 -41 0 -75 -3 -75 -8z"/>
<path d="M8320 7180 c0 -5 4 -10 9 -10 5 0 17 -7 25 -16 13 -12 16 -40 16
-139 0 -137 -4 -155 -31 -155 -10 0 -19 -7 -19 -15 0 -12 15 -15 75 -15 58 0
75 3 75 14 0 8 -10 16 -22 18 -23 3 -23 5 -23 148 l0 145 41 3 c49 4 74 -16
74 -58 0 -35 -41 -70 -82 -70 -16 0 -28 -3 -26 -8 2 -4 34 -49 73 -100 66 -87
71 -92 107 -92 27 0 38 4 38 15 0 8 -6 15 -12 16 -7 0 -37 32 -67 71 -51 66
-53 72 -36 82 44 26 65 55 65 93 0 44 -6 55 -37 72 -27 14 -243 15 -243 1z"/>
<path d="M13558 8286 c-38 -9 -52 -26 -23 -26 20 0 19 -24 -5 -148 -23 -116
-18 -142 28 -142 71 0 136 87 130 173 -3 41 -4 42 -36 40 -18 0 -42 -9 -53
-19 -23 -21 -24 -12 -5 69 7 31 11 59 7 60 -3 2 -23 -1 -43 -7z m89 -182 c-8
-71 -64 -131 -87 -93 -12 18 16 101 41 122 39 31 52 23 46 -29z"/>
<path d="M13771 8271 c-8 -14 -7 -22 4 -31 19 -16 35 -4 35 26 0 29 -25 32
-39 5z"/>
<path d="M13065 8180 c-33 -13 -52 -42 -70 -103 -18 -62 -14 -107 10 -107 8 0
30 14 50 32 l36 31 -6 -25 c-4 -15 -2 -29 4 -32 15 -10 71 22 71 40 0 14 -3
14 -15 4 -13 -10 -15 -9 -15 11 0 13 7 49 15 79 8 30 15 60 15 66 0 13 -67 16
-95 4z m42 -36 c7 -20 -23 -87 -53 -115 -13 -12 -26 -21 -28 -18 -8 8 14 103
29 126 18 26 43 30 52 7z"/>
<path d="M13208 8172 c-33 -20 -40 -49 -8 -32 25 14 25 8 1 -92 -18 -76 -18
-78 1 -78 20 0 21 2 38 68 10 39 62 112 80 112 7 0 -10 -102 -26 -158 -6 -21
-4 -23 16 -20 19 2 26 13 36 57 8 38 22 63 47 89 20 20 39 33 43 30 3 -4 -4
-41 -16 -84 -25 -92 -18 -108 35 -80 38 21 47 42 15 33 -24 -6 -24 -7 -5 63
18 66 19 110 3 110 -6 0 -31 -11 -55 -25 l-43 -26 0 27 c0 24 -3 25 -27 19
-16 -3 -40 -18 -55 -33 l-28 -26 0 32 c0 36 -12 40 -52 14z"/>
<path d="M13735 8166 c-16 -13 -27 -28 -23 -32 4 -4 14 -1 23 6 20 17 20 0 0
-66 -20 -66 -19 -104 1 -104 23 0 75 40 68 51 -4 6 -11 5 -20 -2 -8 -6 -16
-10 -18 -8 -3 2 4 40 14 83 25 104 15 120 -45 72z"/>
<path d="M13920 8183 c-8 -3 -25 -15 -37 -26 -30 -27 -33 -101 -4 -117 26 -13
16 -47 -19 -65 -40 -21 -56 -80 -27 -103 30 -25 122 -18 152 13 33 32 31 48
-10 94 -37 41 -44 61 -21 61 20 0 66 57 66 82 0 16 5 19 22 15 12 -4 28 -1 35
5 17 14 17 -9 -2 -85 -7 -33 -11 -65 -8 -73 9 -24 40 -16 78 20 33 31 36 32
35 13 -5 -55 12 -62 57 -23 28 24 27 50 -2 26 -20 -17 -20 -5 2 87 9 40 14 75
11 78 -14 14 -35 -10 -46 -50 -12 -45 -83 -137 -90 -116 -2 6 4 45 13 86 10
42 14 79 10 83 -3 4 -24 -3 -46 -15 -21 -12 -39 -18 -39 -13 0 13 -107 32
-130 23z m48 -40 c19 -39 -16 -93 -52 -80 -19 8 -22 67 -4 85 17 17 46 15 56
-5z m-23 -198 c14 -13 25 -28 25 -33 0 -20 -30 -33 -67 -30 -33 3 -38 7 -41
30 -2 18 4 31 20 42 30 21 35 20 63 -9z"/>
<path d="M14349 8173 c-41 -25 -59 -64 -59 -127 0 -44 4 -57 19 -66 70 -37
151 35 151 133 0 71 -50 98 -111 60z m65 -29 c11 -28 6 -75 -10 -111 -14 -28
-22 -33 -43 -31 -23 3 -26 8 -29 45 -4 59 20 113 51 113 14 0 28 -7 31 -16z"/>
<path d="M14523 8170 c-18 -11 -33 -24 -33 -30 0 -14 13 -13 28 2 16 16 15
-10 -3 -85 -7 -33 -11 -65 -8 -73 9 -24 40 -16 78 20 33 31 36 32 35 13 -5
-55 12 -62 57 -23 28 24 27 50 -2 26 -20 -17 -20 -5 2 87 9 40 14 75 11 78
-14 14 -35 -10 -46 -51 -7 -27 -28 -61 -52 -87 -46 -48 -49 -41 -25 58 23 95
18 102 -42 65z"/>
<path d="M14771 8164 c-19 -15 -31 -35 -31 -49 0 -27 34 -55 66 -55 27 0 37
-22 20 -45 -18 -25 -70 -17 -74 13 -5 34 -19 26 -24 -13 -3 -23 1 -36 10 -40
32 -12 72 -4 102 21 25 21 30 33 28 58 -3 27 -9 33 -46 45 -35 11 -43 17 -40
35 4 30 57 36 65 7 7 -29 20 -26 26 6 9 50 -52 60 -102 17z"/>
<path d="M13070 7643 c-8 -3 -25 -15 -37 -26 -30 -27 -33 -101 -4 -117 26 -13
16 -47 -19 -65 -40 -21 -56 -80 -27 -103 30 -25 122 -18 152 13 33 32 31 48
-10 94 -37 41 -44 61 -21 61 20 0 66 57 66 82 0 16 5 19 22 15 12 -3 30 -1 40
4 16 9 18 7 13 -13 -27 -122 -33 -153 -30 -156 11 -11 45 12 45 31 0 31 47
127 62 128 7 1 19 1 26 0 6 -1 12 5 12 13 0 8 3 21 6 30 10 27 -32 19 -55 -10
l-21 -27 0 27 c0 31 -12 33 -56 5 -19 -11 -34 -16 -34 -11 0 14 -105 35 -130
25z m48 -40 c19 -39 -16 -93 -52 -80 -19 8 -22 67 -4 85 17 17 46 15 56 -5z
m-23 -198 c14 -13 25 -28 25 -33 0 -20 -30 -33 -67 -30 -33 3 -38 7 -41 30 -2
18 4 31 20 42 30 21 35 20 63 -9z"/>
<path d="M13445 7640 c-33 -13 -52 -42 -70 -103 -18 -62 -14 -107 10 -107 8 0
30 14 50 32 l36 31 -6 -25 c-4 -15 -2 -29 4 -32 15 -10 71 22 71 40 0 14 -3
14 -15 4 -13 -10 -15 -9 -15 11 0 13 7 49 15 79 8 30 15 60 15 66 0 13 -67 16
-95 4z m42 -36 c7 -20 -23 -87 -53 -115 -13 -12 -26 -21 -28 -18 -8 8 14 103
29 126 18 26 43 30 52 7z"/>
<path d="M13588 7632 c-33 -20 -40 -49 -8 -32 25 14 25 8 1 -92 -18 -76 -18
-78 1 -78 20 0 21 2 38 68 10 39 62 112 80 112 7 0 -10 -102 -26 -158 -6 -21
-4 -23 16 -20 19 2 26 13 36 57 8 38 22 63 47 89 20 20 39 33 43 30 3 -4 -4
-41 -16 -84 -25 -92 -18 -108 35 -80 38 21 47 42 15 33 -24 -6 -24 -7 -5 63
18 66 19 110 3 110 -6 0 -31 -11 -55 -25 l-43 -26 0 27 c0 24 -3 25 -27 19
-16 -3 -40 -18 -55 -33 l-28 -26 0 32 c0 36 -12 40 -52 14z"/>
<path d="M13928 7632 c-33 -20 -40 -49 -8 -32 25 14 25 8 1 -92 -18 -76 -18
-78 1 -78 20 0 21 2 38 68 10 39 62 112 80 112 7 0 -10 -102 -26 -158 -6 -21
-4 -23 16 -20 19 2 26 13 36 57 8 38 22 63 47 89 20 20 39 33 43 30 3 -4 -4
-41 -16 -84 -25 -92 -18 -108 35 -80 38 21 47 42 15 33 -24 -6 -24 -7 -5 63
18 66 19 110 3 110 -6 0 -31 -11 -55 -25 l-43 -26 0 27 c0 24 -3 25 -27 19
-16 -3 -40 -18 -55 -33 l-28 -26 0 32 c0 36 -12 40 -52 14z"/>
<path d="M14315 7640 c-33 -13 -52 -42 -70 -103 -18 -62 -14 -107 10 -107 8 0
30 14 50 32 l36 31 -6 -25 c-4 -15 -2 -29 4 -32 15 -10 71 22 71 40 0 14 -3
14 -15 4 -13 -10 -15 -9 -15 11 0 13 7 49 15 79 8 30 15 60 15 66 0 13 -67 16
-95 4z m42 -36 c7 -20 -23 -87 -53 -115 -13 -12 -26 -21 -28 -18 -8 8 14 103
29 126 18 26 43 30 52 7z"/>
<path d="M14463 7629 c-45 -29 -46 -52 -2 -28 17 9 19 7 14 -13 -27 -122 -33
-153 -30 -156 11 -11 45 12 45 31 0 31 47 127 62 128 7 1 19 1 26 0 6 -1 12 5
12 13 0 8 3 21 6 30 10 27 -32 19 -55 -10 l-21 -27 0 27 c0 31 -14 33 -57 5z"/>
<path d="M14641 7624 c-19 -15 -31 -35 -31 -49 0 -27 34 -55 66 -55 27 0 37
-22 20 -45 -18 -25 -70 -17 -74 13 -5 34 -19 26 -24 -13 -3 -23 1 -36 10 -40
32 -12 72 -4 102 21 25 21 30 33 28 58 -3 27 -9 33 -46 45 -35 11 -43 17 -40
35 4 30 57 36 65 7 7 -29 20 -26 26 6 9 50 -52 60 -102 17z"/>
</g>
</svg>
