<?xml version="1.0" encoding="UTF-8" standalone="no"?>
<!DOCTYPE svg PUBLIC "-//W3C//DTD SVG 1.1//EN"
 "http://www.w3.org/Graphics/SVG/1.1/DTD/svg11.dtd">
<!-- Generated by graphviz version 2.40.1 (20161225.0304)
 -->
<!-- Title: %3 Pages: 1 -->
<svg width="736pt" height="79pt"
 viewBox="0.00 0.00 736.00 79.11" xmlns="http://www.w3.org/2000/svg" xmlns:xlink="http://www.w3.org/1999/xlink">
<g id="graph0" class="graph" transform="scale(1 1) rotate(0) translate(4 75.1114)">
<title>%3</title>
<polygon fill="transparent" stroke="transparent" points="-4,4 -4,-75.1114 732,-75.1114 732,4 -4,4"/>
<!-- source2 -->
<!-- source1 -->
<g id="node2" class="node">
<title>source1</title>
<polygon fill="#ffffff" stroke="transparent" points="108,-37.4983 54,-37.4983 54,-1.4983 108,-1.4983 108,-37.4983"/>
<text text-anchor="middle" x="81" y="-15.7983" font-family="Times,serif" font-size="14.00" fill="#000000">...</text>
</g>
<!-- source2&#45;&gt;source1 -->
<!-- b3 -->
<g id="node4" class="node">
<title>b3</title>
<ellipse fill="#ffffff" stroke="#000000" cx="199" cy="-19.4983" rx="19.4965" ry="19.4965"/>
<text text-anchor="middle" x="199" y="-15.7983" font-family="Times,serif" font-size="14.00" fill="#000000">&#45;3</text>
</g>
<!-- source2&#45;&gt;b3 -->
<g id="edge22" class="edge">
<title>source2&#45;&gt;b3</title>
<path fill="none" stroke="#000000" d="M28.03,-34.8506C34.3734,-43.0929 43.3734,-52.4674 54,-56.9965 98.1567,-75.8163 117.7155,-75.5135 162,-56.9965 169.1932,-53.9888 175.6987,-48.8259 181.1769,-43.2768"/>
<polygon fill="#000000" stroke="#000000" points="183.9434,-45.4329 187.9784,-35.6365 178.7149,-40.7785 183.9434,-45.4329"/>
</g>
<!-- source -->
<!-- source1&#45;&gt;source -->
<!-- source1&#45;&gt;b3 -->
<g id="edge13" class="edge">
<title>source1&#45;&gt;b3</title>
<path fill="none" stroke="#000000" d="M97.1149,-37.6684C104.9834,-45.1824 115.0993,-53.0501 126,-56.9965 141.0444,-62.4432 147.2385,-63.1689 162,-56.9965 169.1932,-53.9888 175.6987,-48.8259 181.1769,-43.2768"/>
<polygon fill="#000000" stroke="#000000" points="183.9434,-45.4329 187.9784,-35.6365 178.7149,-40.7785 183.9434,-45.4329"/>
</g>
<!-- b2 -->
<g id="node5" class="node">
<title>b2</title>
<ellipse fill="#ffffff" stroke="#000000" cx="256" cy="-19.4983" rx="19.4965" ry="19.4965"/>
<text text-anchor="middle" x="256" y="-15.7983" font-family="Times,serif" font-size="14.00" fill="#000000">&#45;2</text>
</g>
<!-- source1&#45;&gt;b2 -->
<g id="edge23" class="edge">
<title>source1&#45;&gt;b2</title>
<path fill="none" stroke="#000000" d="M97.1149,-37.6684C104.9834,-45.1824 115.0993,-53.0501 126,-56.9965 164.4468,-70.9157 180.1718,-72.5184 218,-56.9965 225.3099,-53.9971 231.9653,-48.837 237.5915,-43.2879"/>
<polygon fill="#000000" stroke="#000000" points="240.4173,-45.3845 244.5903,-35.6461 235.2552,-40.6567 240.4173,-45.3845"/>
</g>
<!-- source&#45;&gt;b3 -->
<g id="edge3" class="edge">
<title>source&#45;&gt;b3</title>
<path fill="none" stroke="#000000" d="M162.0469,-19.4983C164.4827,-19.4983 166.9186,-19.4983 169.3545,-19.4983"/>
<polygon fill="#000000" stroke="#000000" points="169.3687,-22.9984 179.3687,-19.4983 169.3686,-15.9984 169.3687,-22.9984"/>
</g>
<!-- source&#45;&gt;b2 -->
<g id="edge14" class="edge">
<title>source&#45;&gt;b2</title>
<path fill="none" stroke="#000000" d="M154.03,-34.8506C160.3734,-43.0929 169.3734,-52.4674 180,-56.9965 195.5366,-63.6183 202.3753,-63.4078 218,-56.9965 225.3099,-53.9971 231.9653,-48.837 237.5915,-43.2879"/>
<polygon fill="#000000" stroke="#000000" points="240.4173,-45.3845 244.5903,-35.6461 235.2552,-40.6567 240.4173,-45.3845"/>
</g>
<!-- b1 -->
<g id="node6" class="node">
<title>b1</title>
<ellipse fill="#ffffff" stroke="#000000" cx="313" cy="-19.4983" rx="19.4965" ry="19.4965"/>
<text text-anchor="middle" x="313" y="-15.7983" font-family="Times,serif" font-size="14.00" fill="#000000">&#45;1</text>
</g>
<!-- source&#45;&gt;b1 -->
<g id="edge24" class="edge">
<title>source&#45;&gt;b1</title>
<path fill="none" stroke="#000000" d="M154.03,-34.8506C160.3734,-43.0929 169.3734,-52.4674 180,-56.9965 218.8416,-73.551 235.9383,-73.0246 275,-56.9965 282.3099,-53.9971 288.9653,-48.837 294.5915,-43.2879"/>
<polygon fill="#000000" stroke="#000000" points="297.4173,-45.3845 301.5903,-35.6461 292.2552,-40.6567 297.4173,-45.3845"/>
</g>
<!-- b3&#45;&gt;b2 -->
<g id="edge4" class="edge">
<title>b3&#45;&gt;b2</title>
<path fill="none" stroke="#000000" d="M218.5938,-19.4983C221.1934,-19.4983 223.7931,-19.4983 226.3928,-19.4983"/>
<polygon fill="#000000" stroke="#000000" points="226.4202,-22.9984 236.4202,-19.4983 226.4201,-15.9984 226.4202,-22.9984"/>
</g>
<!-- b3&#45;&gt;b1 -->
<g id="edge15" class="edge">
<title>b3&#45;&gt;b1</title>
<path fill="none" stroke="#000000" d="M210.4097,-35.6461C217.1196,-43.6995 226.3674,-52.6337 237,-56.9965 252.6247,-63.4078 259.3753,-63.4078 275,-56.9965 282.3099,-53.9971 288.9653,-48.837 294.5915,-43.2879"/>
<polygon fill="#000000" stroke="#000000" points="297.4173,-45.3845 301.5903,-35.6461 292.2552,-40.6567 297.4173,-45.3845"/>
</g>
<!-- a0 -->
<g id="node7" class="node">
<title>a0</title>
<ellipse fill="#ffffff" stroke="#000000" cx="368" cy="-19.4983" rx="18" ry="18"/>
<text text-anchor="middle" x="368" y="-15.7983" font-family="Times,serif" font-size="14.00" fill="#000000">0</text>
</g>
<!-- b3&#45;&gt;a0 -->
<g id="edge25" class="edge">
<title>b3&#45;&gt;a0</title>
<path fill="none" stroke="#000000" d="M210.4097,-35.6461C217.1196,-43.6995 226.3674,-52.6337 237,-56.9965 276.0617,-73.0246 293.1584,-73.551 332,-56.9965 339.3058,-53.8828 345.8428,-48.4788 351.2762,-42.727"/>
<polygon fill="#000000" stroke="#000000" points="354.1611,-44.7371 357.97,-34.8506 348.8271,-40.204 354.1611,-44.7371"/>
</g>
<!-- b2&#45;&gt;b1 -->
<g id="edge5" class="edge">
<title>b2&#45;&gt;b1</title>
<path fill="none" stroke="#000000" d="M275.5938,-19.4983C278.1934,-19.4983 280.7931,-19.4983 283.3928,-19.4983"/>
<polygon fill="#000000" stroke="#000000" points="283.4202,-22.9984 293.4202,-19.4983 283.4201,-15.9984 283.4202,-22.9984"/>
</g>
<!-- b2&#45;&gt;a0 -->
<g id="edge16" class="edge">
<title>b2&#45;&gt;a0</title>
<path fill="none" stroke="#000000" d="M267.4097,-35.6461C274.1196,-43.6995 283.3674,-52.6337 294,-56.9965 309.6247,-63.4078 316.4634,-63.6183 332,-56.9965 339.3058,-53.8828 345.8428,-48.4788 351.2762,-42.727"/>
<polygon fill="#000000" stroke="#000000" points="354.1611,-44.7371 357.97,-34.8506 348.8271,-40.204 354.1611,-44.7371"/>
</g>
<!-- a1 -->
<g id="node8" class="node">
<title>a1</title>
<ellipse fill="#ffffff" stroke="#000000" cx="422" cy="-19.4983" rx="18" ry="18"/>
<text text-anchor="middle" x="422" y="-15.7983" font-family="Times,serif" font-size="14.00" fill="#000000">1</text>
</g>
<!-- b2&#45;&gt;a1 -->
<g id="edge26" class="edge">
<title>b2&#45;&gt;a1</title>
<path fill="none" stroke="#000000" d="M267.4097,-35.6461C274.1196,-43.6995 283.3674,-52.6337 294,-56.9965 331.8282,-72.5184 348.385,-73.0282 386,-56.9965 393.3058,-53.8828 399.8428,-48.4788 405.2762,-42.727"/>
<polygon fill="#000000" stroke="#000000" points="408.1611,-44.7371 411.97,-34.8506 402.8271,-40.204 408.1611,-44.7371"/>
</g>
<!-- b1&#45;&gt;a0 -->
<g id="edge6" class="edge">
<title>b1&#45;&gt;a0</title>
<path fill="none" stroke="#000000" d="M332.7656,-19.4983C335.0767,-19.4983 337.3878,-19.4983 339.699,-19.4983"/>
<polygon fill="#000000" stroke="#000000" points="339.8323,-22.9984 349.8323,-19.4983 339.8322,-15.9984 339.8323,-22.9984"/>
</g>
<!-- b1&#45;&gt;a1 -->
<g id="edge17" class="edge">
<title>b1&#45;&gt;a1</title>
<path fill="none" stroke="#000000" d="M324.0216,-35.6365C330.5293,-43.6871 339.5371,-52.6216 350,-56.9965 364.7615,-63.1689 371.2811,-63.2698 386,-56.9965 393.3058,-53.8828 399.8428,-48.4788 405.2762,-42.727"/>
<polygon fill="#000000" stroke="#000000" points="408.1611,-44.7371 411.97,-34.8506 402.8271,-40.204 408.1611,-44.7371"/>
</g>
<!-- a2 -->
<g id="node9" class="node">
<title>a2</title>
<ellipse fill="#ffffff" stroke="#000000" cx="476" cy="-19.4983" rx="18" ry="18"/>
<text text-anchor="middle" x="476" y="-15.7983" font-family="Times,serif" font-size="14.00" fill="#000000">2</text>
</g>
<!-- b1&#45;&gt;a2 -->
<g id="edge27" class="edge">
<title>b1&#45;&gt;a2</title>
<path fill="none" stroke="#000000" d="M324.0216,-35.6365C330.5293,-43.6871 339.5371,-52.6216 350,-56.9965 386.9038,-72.4274 403.2027,-72.6797 440,-56.9965 447.3058,-53.8828 453.8428,-48.4788 459.2762,-42.727"/>
<polygon fill="#000000" stroke="#000000" points="462.1611,-44.7371 465.97,-34.8506 456.8271,-40.204 462.1611,-44.7371"/>
</g>
<!-- a0&#45;&gt;a1 -->
<g id="edge7" class="edge">
<title>a0&#45;&gt;a1</title>
<path fill="none" stroke="#000000" d="M386.1406,-19.4983C388.6226,-19.4983 391.1046,-19.4983 393.5865,-19.4983"/>
<polygon fill="#000000" stroke="#000000" points="393.7902,-22.9984 403.7902,-19.4983 393.7901,-15.9984 393.7902,-22.9984"/>
</g>
<!-- a0&#45;&gt;a2 -->
<g id="edge18" class="edge">
<title>a0&#45;&gt;a2</title>
<path fill="none" stroke="#000000" d="M378.03,-34.8506C384.3734,-43.0929 393.3734,-52.4674 404,-56.9965 418.7189,-63.2698 425.2811,-63.2698 440,-56.9965 447.3058,-53.8828 453.8428,-48.4788 459.2762,-42.727"/>
<polygon fill="#000000" stroke="#000000" points="462.1611,-44.7371 465.97,-34.8506 456.8271,-40.204 462.1611,-44.7371"/>
</g>
<!-- a3 -->
<g id="node10" class="node">
<title>a3</title>
<ellipse fill="#ffffff" stroke="#000000" cx="530" cy="-19.4983" rx="18" ry="18"/>
<text text-anchor="middle" x="530" y="-15.7983" font-family="Times,serif" font-size="14.00" fill="#000000">3</text>
</g>
<!-- a0&#45;&gt;a3 -->
<g id="edge28" class="edge">
<title>a0&#45;&gt;a3</title>
<path fill="none" stroke="#000000" d="M378.03,-34.8506C384.3734,-43.0929 393.3734,-52.4674 404,-56.9965 440.7973,-72.6797 457.2027,-72.6797 494,-56.9965 501.3058,-53.8828 507.8428,-48.4788 513.2762,-42.727"/>
<polygon fill="#000000" stroke="#000000" points="516.1611,-44.7371 519.97,-34.8506 510.8271,-40.204 516.1611,-44.7371"/>
</g>
<!-- a1&#45;&gt;a2 -->
<g id="edge8" class="edge">
<title>a1&#45;&gt;a2</title>
<path fill="none" stroke="#000000" d="M440.1406,-19.4983C442.6226,-19.4983 445.1046,-19.4983 447.5865,-19.4983"/>
<polygon fill="#000000" stroke="#000000" points="447.7902,-22.9984 457.7902,-19.4983 447.7901,-15.9984 447.7902,-22.9984"/>
</g>
<!-- a1&#45;&gt;a3 -->
<g id="edge19" class="edge">
<title>a1&#45;&gt;a3</title>
<path fill="none" stroke="#000000" d="M432.03,-34.8506C438.3734,-43.0929 447.3734,-52.4674 458,-56.9965 472.7189,-63.2698 479.2811,-63.2698 494,-56.9965 501.3058,-53.8828 507.8428,-48.4788 513.2762,-42.727"/>
<polygon fill="#000000" stroke="#000000" points="516.1611,-44.7371 519.97,-34.8506 510.8271,-40.204 516.1611,-44.7371"/>
</g>
<!-- sink -->
<!-- a1&#45;&gt;sink -->
<g id="edge29" class="edge">
<title>a1&#45;&gt;sink</title>
<path fill="none" stroke="#000000" d="M432.03,-34.8506C438.3734,-43.0929 447.3734,-52.4674 458,-56.9965 494.7973,-72.6797 511.2027,-72.6797 548,-56.9965 555.3058,-53.8828 561.8428,-48.4788 567.2762,-42.727"/>
<polygon fill="#000000" stroke="#000000" points="570.1611,-44.7371 573.97,-34.8506 564.8271,-40.204 570.1611,-44.7371"/>
</g>
<!-- a2&#45;&gt;a3 -->
<g id="edge9" class="edge">
<title>a2&#45;&gt;a3</title>
<path fill="none" stroke="#000000" d="M494.1406,-19.4983C496.6226,-19.4983 499.1046,-19.4983 501.5865,-19.4983"/>
<polygon fill="#000000" stroke="#000000" points="501.7902,-22.9984 511.7902,-19.4983 501.7901,-15.9984 501.7902,-22.9984"/>
</g>
<!-- a2&#45;&gt;sink -->
<g id="edge20" class="edge">
<title>a2&#45;&gt;sink</title>
<path fill="none" stroke="#000000" d="M486.03,-34.8506C492.3734,-43.0929 501.3734,-52.4674 512,-56.9965 526.7189,-63.2698 533.2811,-63.2698 548,-56.9965 555.3058,-53.8828 561.8428,-48.4788 567.2762,-42.727"/>
<polygon fill="#000000" stroke="#000000" points="570.1611,-44.7371 573.97,-34.8506 564.8271,-40.204 570.1611,-44.7371"/>
</g>
<!-- sink1 -->
<g id="node12" class="node">
<title>sink1</title>
<polygon fill="#ffffff" stroke="transparent" points="674,-37.4983 620,-37.4983 620,-1.4983 674,-1.4983 674,-37.4983"/>
<text text-anchor="middle" x="647" y="-15.7983" font-family="Times,serif" font-size="14.00" fill="#000000">...</text>
</g>
<!-- a2&#45;&gt;sink1 -->
<g id="edge30" class="edge">
<title>a2&#45;&gt;sink1</title>
<path fill="none" stroke="#000000" d="M486.03,-34.8506C492.3734,-43.0929 501.3734,-52.4674 512,-56.9965 548.7973,-72.6797 564.389,-70.6131 602,-56.9965 609.6646,-54.2217 616.9411,-49.5082 623.3213,-44.3422"/>
<polygon fill="#000000" stroke="#000000" points="625.7022,-46.9091 630.8851,-37.6684 621.0709,-41.6601 625.7022,-46.9091"/>
</g>
<!-- a3&#45;&gt;sink -->
<g id="edge10" class="edge">
<title>a3&#45;&gt;sink</title>
<path fill="none" stroke="#000000" d="M548.1406,-19.4983C550.6226,-19.4983 553.1046,-19.4983 555.5865,-19.4983"/>
<polygon fill="#000000" stroke="#000000" points="555.7902,-22.9984 565.7902,-19.4983 555.7901,-15.9984 555.7902,-22.9984"/>
</g>
<!-- a3&#45;&gt;sink1 -->
<g id="edge21" class="edge">
<title>a3&#45;&gt;sink1</title>
<path fill="none" stroke="#000000" d="M540.03,-34.8506C546.3734,-43.0929 555.3734,-52.4674 566,-56.9965 580.7189,-63.2698 586.9556,-62.4432 602,-56.9965 609.6646,-54.2217 616.9411,-49.5082 623.3213,-44.3422"/>
<polygon fill="#000000" stroke="#000000" points="625.7022,-46.9091 630.8851,-37.6684 621.0709,-41.6601 625.7022,-46.9091"/>
</g>
<!-- sink2 -->
<!-- a3&#45;&gt;sink2 -->
<g id="edge31" class="edge">
<title>a3&#45;&gt;sink2</title>
<path fill="none" stroke="#000000" d="M540.03,-34.8506C546.3734,-43.0929 555.3734,-52.4674 566,-56.9965 610.1567,-75.8163 629.8433,-75.8163 674,-56.9965 681.3058,-53.8828 687.8428,-48.4788 693.2762,-42.727"/>
<polygon fill="#000000" stroke="#000000" points="696.1611,-44.7371 699.97,-34.8506 690.8271,-40.204 696.1611,-44.7371"/>
</g>
<!-- sink&#45;&gt;sink1 -->
<!-- sink1&#45;&gt;sink2 -->
</g>
</svg>
