<?xml version="1.0" encoding="UTF-8" standalone="no"?>
<!DOCTYPE svg PUBLIC "-//W3C//DTD SVG 1.1//EN"
 "http://www.w3.org/Graphics/SVG/1.1/DTD/svg11.dtd">
<!-- Generated by graphviz version 2.40.1 (20161225.0304)
 -->
<!-- Title: %3 Pages: 1 -->
<svg width="548pt" height="76pt"
 viewBox="0.00 0.00 548.00 75.78" xmlns="http://www.w3.org/2000/svg" xmlns:xlink="http://www.w3.org/1999/xlink">
<g id="graph0" class="graph" transform="scale(1 1) rotate(0) translate(4 71.7766)">
<title>%3</title>
<polygon fill="transparent" stroke="transparent" points="-4,4 -4,-71.7766 544,-71.7766 544,4 -4,4"/>
<!-- a0 -->
<g id="node1" class="node">
<title>a0</title>
<ellipse fill="#ffffff" stroke="#000000" cx="18" cy="-18" rx="18" ry="18"/>
<text text-anchor="middle" x="18" y="-14.3" font-family="Times,serif" font-size="14.00" fill="#000000">0</text>
</g>
<!-- a1 -->
<g id="node2" class="node">
<title>a1</title>
<ellipse fill="#ffffff" stroke="#000000" cx="72" cy="-18" rx="18" ry="18"/>
<text text-anchor="middle" x="72" y="-14.3" font-family="Times,serif" font-size="14.00" fill="#000000">1</text>
</g>
<!-- a0&#45;&gt;a1 -->
<g id="edge1" class="edge">
<title>a0&#45;&gt;a1</title>
<path fill="none" stroke="#000000" d="M36.1406,-18C38.6226,-18 41.1046,-18 43.5865,-18"/>
<polygon fill="#000000" stroke="#000000" points="43.7902,-21.5001 53.7902,-18 43.7901,-14.5001 43.7902,-21.5001"/>
</g>
<!-- a2 -->
<g id="node3" class="node">
<title>a2</title>
<ellipse fill="#ffffff" stroke="#000000" cx="126" cy="-18" rx="18" ry="18"/>
<text text-anchor="middle" x="126" y="-14.3" font-family="Times,serif" font-size="14.00" fill="#000000">2</text>
</g>
<!-- a0&#45;&gt;a2 -->
<g id="edge10" class="edge">
<title>a0&#45;&gt;a2</title>
<path fill="none" stroke="#000000" d="M28.4619,-33.1247C34.8291,-40.9505 43.7108,-49.7381 54,-54 68.7821,-60.1229 75.2179,-60.1229 90,-54 97.0738,-51.0699 103.4824,-46.0008 108.866,-40.5757"/>
<polygon fill="#000000" stroke="#000000" points="111.4745,-42.9093 115.5381,-33.1247 106.2597,-38.2396 111.4745,-42.9093"/>
</g>
<!-- a3 -->
<g id="node4" class="node">
<title>a3</title>
<ellipse fill="#ffffff" stroke="#000000" cx="180" cy="-18" rx="18" ry="18"/>
<text text-anchor="middle" x="180" y="-14.3" font-family="Times,serif" font-size="14.00" fill="#000000">3</text>
</g>
<!-- a0&#45;&gt;a3 -->
<g id="edge17" class="edge">
<title>a0&#45;&gt;a3</title>
<path fill="none" stroke="#000000" d="M28.4619,-33.1247C34.8291,-40.9505 43.7108,-49.7381 54,-54 90.9552,-69.3073 107.0448,-69.3073 144,-54 151.0738,-51.0699 157.4824,-46.0008 162.866,-40.5757"/>
<polygon fill="#000000" stroke="#000000" points="165.4745,-42.9093 169.5381,-33.1247 160.2597,-38.2396 165.4745,-42.9093"/>
</g>
<!-- a1&#45;&gt;a2 -->
<g id="edge2" class="edge">
<title>a1&#45;&gt;a2</title>
<path fill="none" stroke="#000000" d="M90.1406,-18C92.6226,-18 95.1046,-18 97.5865,-18"/>
<polygon fill="#000000" stroke="#000000" points="97.7902,-21.5001 107.7902,-18 97.7901,-14.5001 97.7902,-21.5001"/>
</g>
<!-- a1&#45;&gt;a3 -->
<g id="edge11" class="edge">
<title>a1&#45;&gt;a3</title>
<path fill="none" stroke="#000000" d="M82.4619,-33.1247C88.8291,-40.9505 97.7108,-49.7381 108,-54 122.7821,-60.1229 129.2179,-60.1229 144,-54 151.0738,-51.0699 157.4824,-46.0008 162.866,-40.5757"/>
<polygon fill="#000000" stroke="#000000" points="165.4745,-42.9093 169.5381,-33.1247 160.2597,-38.2396 165.4745,-42.9093"/>
</g>
<!-- a4 -->
<g id="node5" class="node">
<title>a4</title>
<ellipse fill="#ffffff" stroke="#000000" cx="234" cy="-18" rx="18" ry="18"/>
<text text-anchor="middle" x="234" y="-14.3" font-family="Times,serif" font-size="14.00" fill="#000000">4</text>
</g>
<!-- a1&#45;&gt;a4 -->
<g id="edge18" class="edge">
<title>a1&#45;&gt;a4</title>
<path fill="none" stroke="#000000" d="M82.4619,-33.1247C88.8291,-40.9505 97.7108,-49.7381 108,-54 144.9552,-69.3073 161.0448,-69.3073 198,-54 205.0738,-51.0699 211.4824,-46.0008 216.866,-40.5757"/>
<polygon fill="#000000" stroke="#000000" points="219.4745,-42.9093 223.5381,-33.1247 214.2597,-38.2396 219.4745,-42.9093"/>
</g>
<!-- a2&#45;&gt;a3 -->
<g id="edge3" class="edge">
<title>a2&#45;&gt;a3</title>
<path fill="none" stroke="#000000" d="M144.1406,-18C146.6226,-18 149.1046,-18 151.5865,-18"/>
<polygon fill="#000000" stroke="#000000" points="151.7902,-21.5001 161.7902,-18 151.7901,-14.5001 151.7902,-21.5001"/>
</g>
<!-- a2&#45;&gt;a4 -->
<g id="edge12" class="edge">
<title>a2&#45;&gt;a4</title>
<path fill="none" stroke="#000000" d="M136.4619,-33.1247C142.8291,-40.9505 151.7108,-49.7381 162,-54 176.7821,-60.1229 183.2179,-60.1229 198,-54 205.0738,-51.0699 211.4824,-46.0008 216.866,-40.5757"/>
<polygon fill="#000000" stroke="#000000" points="219.4745,-42.9093 223.5381,-33.1247 214.2597,-38.2396 219.4745,-42.9093"/>
</g>
<!-- a5 -->
<g id="node6" class="node">
<title>a5</title>
<ellipse fill="#ffffff" stroke="#000000" cx="288" cy="-18" rx="18" ry="18"/>
<text text-anchor="middle" x="288" y="-14.3" font-family="Times,serif" font-size="14.00" fill="#000000">5</text>
</g>
<!-- a2&#45;&gt;a5 -->
<g id="edge19" class="edge">
<title>a2&#45;&gt;a5</title>
<path fill="none" stroke="#000000" d="M136.4619,-33.1247C142.8291,-40.9505 151.7108,-49.7381 162,-54 198.9552,-69.3073 215.0448,-69.3073 252,-54 259.0738,-51.0699 265.4824,-46.0008 270.866,-40.5757"/>
<polygon fill="#000000" stroke="#000000" points="273.4745,-42.9093 277.5381,-33.1247 268.2597,-38.2396 273.4745,-42.9093"/>
</g>
<!-- a3&#45;&gt;a4 -->
<g id="edge4" class="edge">
<title>a3&#45;&gt;a4</title>
<path fill="none" stroke="#000000" d="M198.1406,-18C200.6226,-18 203.1046,-18 205.5865,-18"/>
<polygon fill="#000000" stroke="#000000" points="205.7902,-21.5001 215.7902,-18 205.7901,-14.5001 205.7902,-21.5001"/>
</g>
<!-- a3&#45;&gt;a5 -->
<g id="edge13" class="edge">
<title>a3&#45;&gt;a5</title>
<path fill="none" stroke="#000000" d="M190.4619,-33.1247C196.8291,-40.9505 205.7108,-49.7381 216,-54 230.7821,-60.1229 237.2179,-60.1229 252,-54 259.0738,-51.0699 265.4824,-46.0008 270.866,-40.5757"/>
<polygon fill="#000000" stroke="#000000" points="273.4745,-42.9093 277.5381,-33.1247 268.2597,-38.2396 273.4745,-42.9093"/>
</g>
<!-- a6 -->
<g id="node7" class="node">
<title>a6</title>
<ellipse fill="#ffffff" stroke="#000000" cx="342" cy="-18" rx="18" ry="18"/>
<text text-anchor="middle" x="342" y="-14.3" font-family="Times,serif" font-size="14.00" fill="#000000">6</text>
</g>
<!-- a3&#45;&gt;a6 -->
<g id="edge20" class="edge">
<title>a3&#45;&gt;a6</title>
<path fill="none" stroke="#000000" d="M190.4619,-33.1247C196.8291,-40.9505 205.7108,-49.7381 216,-54 252.9552,-69.3073 269.0448,-69.3073 306,-54 313.0738,-51.0699 319.4824,-46.0008 324.866,-40.5757"/>
<polygon fill="#000000" stroke="#000000" points="327.4745,-42.9093 331.5381,-33.1247 322.2597,-38.2396 327.4745,-42.9093"/>
</g>
<!-- a4&#45;&gt;a5 -->
<g id="edge5" class="edge">
<title>a4&#45;&gt;a5</title>
<path fill="none" stroke="#000000" d="M252.1406,-18C254.6226,-18 257.1046,-18 259.5865,-18"/>
<polygon fill="#000000" stroke="#000000" points="259.7902,-21.5001 269.7902,-18 259.7901,-14.5001 259.7902,-21.5001"/>
</g>
<!-- a4&#45;&gt;a6 -->
<g id="edge14" class="edge">
<title>a4&#45;&gt;a6</title>
<path fill="none" stroke="#000000" d="M244.4619,-33.1247C250.8291,-40.9505 259.7108,-49.7381 270,-54 284.7821,-60.1229 291.2179,-60.1229 306,-54 313.0738,-51.0699 319.4824,-46.0008 324.866,-40.5757"/>
<polygon fill="#000000" stroke="#000000" points="327.4745,-42.9093 331.5381,-33.1247 322.2597,-38.2396 327.4745,-42.9093"/>
</g>
<!-- sink -->
<!-- a4&#45;&gt;sink -->
<g id="edge21" class="edge">
<title>a4&#45;&gt;sink</title>
<path fill="none" stroke="#000000" d="M244.4619,-33.1247C250.8291,-40.9505 259.7108,-49.7381 270,-54 306.9552,-69.3073 323.0448,-69.3073 360,-54 367.0738,-51.0699 373.4824,-46.0008 378.866,-40.5757"/>
<polygon fill="#000000" stroke="#000000" points="381.4745,-42.9093 385.5381,-33.1247 376.2597,-38.2396 381.4745,-42.9093"/>
</g>
<!-- a5&#45;&gt;a6 -->
<g id="edge6" class="edge">
<title>a5&#45;&gt;a6</title>
<path fill="none" stroke="#000000" d="M306.1406,-18C308.6226,-18 311.1046,-18 313.5865,-18"/>
<polygon fill="#000000" stroke="#000000" points="313.7902,-21.5001 323.7902,-18 313.7901,-14.5001 313.7902,-21.5001"/>
</g>
<!-- a5&#45;&gt;sink -->
<g id="edge15" class="edge">
<title>a5&#45;&gt;sink</title>
<path fill="none" stroke="#000000" d="M298.4619,-33.1247C304.8291,-40.9505 313.7108,-49.7381 324,-54 338.7821,-60.1229 345.2179,-60.1229 360,-54 367.0738,-51.0699 373.4824,-46.0008 378.866,-40.5757"/>
<polygon fill="#000000" stroke="#000000" points="381.4745,-42.9093 385.5381,-33.1247 376.2597,-38.2396 381.4745,-42.9093"/>
</g>
<!-- sink1 -->
<g id="node9" class="node">
<title>sink1</title>
<polygon fill="#ffffff" stroke="transparent" points="486,-36 432,-36 432,0 486,0 486,-36"/>
<text text-anchor="middle" x="459" y="-14.3" font-family="Times,serif" font-size="14.00" fill="#000000">...</text>
</g>
<!-- a5&#45;&gt;sink1 -->
<g id="edge22" class="edge">
<title>a5&#45;&gt;sink1</title>
<path fill="none" stroke="#000000" d="M298.4619,-33.1247C304.8291,-40.9505 313.7108,-49.7381 324,-54 360.9552,-69.3073 376.2549,-67.2403 414,-54 421.1397,-51.4955 427.9881,-47.3291 434.0943,-42.7013"/>
<polygon fill="#000000" stroke="#000000" points="436.4521,-45.293 441.9185,-36.2173 431.9855,-39.9032 436.4521,-45.293"/>
</g>
<!-- a6&#45;&gt;sink -->
<g id="edge7" class="edge">
<title>a6&#45;&gt;sink</title>
<path fill="none" stroke="#000000" d="M360.1406,-18C362.6226,-18 365.1046,-18 367.5865,-18"/>
<polygon fill="#000000" stroke="#000000" points="367.7902,-21.5001 377.7902,-18 367.7901,-14.5001 367.7902,-21.5001"/>
</g>
<!-- a6&#45;&gt;sink1 -->
<g id="edge16" class="edge">
<title>a6&#45;&gt;sink1</title>
<path fill="none" stroke="#000000" d="M352.4619,-33.1247C358.8291,-40.9505 367.7108,-49.7381 378,-54 392.7821,-60.1229 398.9019,-59.2961 414,-54 421.1397,-51.4955 427.9881,-47.3291 434.0943,-42.7013"/>
<polygon fill="#000000" stroke="#000000" points="436.4521,-45.293 441.9185,-36.2173 431.9855,-39.9032 436.4521,-45.293"/>
</g>
<!-- sink2 -->
<!-- a6&#45;&gt;sink2 -->
<g id="edge23" class="edge">
<title>a6&#45;&gt;sink2</title>
<path fill="none" stroke="#000000" d="M352.4619,-33.1247C358.8291,-40.9505 367.7108,-49.7381 378,-54 422.3462,-72.3688 441.6538,-72.3688 486,-54 493.0738,-51.0699 499.4824,-46.0008 504.866,-40.5757"/>
<polygon fill="#000000" stroke="#000000" points="507.4745,-42.9093 511.5381,-33.1247 502.2597,-38.2396 507.4745,-42.9093"/>
</g>
<!-- sink&#45;&gt;sink1 -->
<!-- sink1&#45;&gt;sink2 -->
</g>
</svg>
