<?xml version="1.0" encoding="UTF-8" standalone="no"?>
<!DOCTYPE svg PUBLIC "-//W3C//DTD SVG 1.1//EN"
 "http://www.w3.org/Graphics/SVG/1.1/DTD/svg11.dtd">
<!-- Generated by graphviz version 2.38.0 (20140413.2041)
 -->
<!-- Title: G Pages: 1 -->
<svg width="725pt" height="663pt"
 viewBox="0.00 0.00 724.52 662.99" xmlns="http://www.w3.org/2000/svg" xmlns:xlink="http://www.w3.org/1999/xlink">
<g id="graph0" class="graph" transform="scale(1 1) rotate(0) translate(361.63 406.294)">
<title>G</title>
<polygon fill="none" stroke="none" points="-361.63,256.7 -361.63,-406.294 362.894,-406.294 362.894,256.7 -361.63,256.7"/>
<!-- a1 -->
<g id="node1" class="node"><title>a1</title>
<ellipse fill="#ffffff" stroke="black" cx="29.1612" cy="3.28298" rx="18.6979" ry="18.6979"/>
<text text-anchor="middle" x="29.1612" y="6.98298" font-family="Times,serif" font-size="14.00">a1</text>
</g>
<!-- b1 -->
<g id="node2" class="node"><title>b1</title>
<ellipse fill="#ffffff" stroke="black" cx="-48.4222" cy="11.9513" rx="19.4965" ry="19.4965"/>
<text text-anchor="middle" x="-48.4222" y="15.6513" font-family="Times,serif" font-size="14.00">b1</text>
</g>
<!-- a1&#45;&#45;b1 -->
<g id="edge1" class="edge"><title>a1&#45;&#45;b1</title>
<path fill="none" stroke="black" d="M10.3804,5.38134C-1.54856,6.71416 -16.9541,8.43542 -29.0042,9.78176"/>
</g>
<!-- a2 -->
<g id="node4" class="node"><title>a2</title>
<ellipse fill="#ffffff" stroke="black" cx="104.234" cy="35.7364" rx="18.6979" ry="18.6979"/>
<text text-anchor="middle" x="104.234" y="39.4364" font-family="Times,serif" font-size="14.00">a2</text>
</g>
<!-- a1&#45;&#45;a2 -->
<g id="edge4" class="edge"><title>a1&#45;&#45;a2</title>
<path fill="none" stroke="black" d="M46.573,10.81C58.7011,16.0529 74.8088,23.0162 86.9162,28.2502"/>
</g>
<!-- c1 -->
<g id="node3" class="node"><title>c1</title>
<ellipse fill="#ffffff" stroke="black" cx="-17.2222" cy="-59.5852" rx="18.6979" ry="18.6979"/>
<text text-anchor="middle" x="-17.2222" y="-55.8852" font-family="Times,serif" font-size="14.00">c1</text>
</g>
<!-- b1&#45;&#45;c1 -->
<g id="edge2" class="edge"><title>b1&#45;&#45;c1</title>
<path fill="none" stroke="black" d="M-40.5491,-6.10035C-35.7111,-17.1931 -29.5467,-31.3273 -24.7699,-42.2796"/>
</g>
<!-- b2 -->
<g id="node7" class="node"><title>b2</title>
<ellipse fill="#ffffff" stroke="black" cx="-114.922" cy="59.5933" rx="19.4965" ry="19.4965"/>
<text text-anchor="middle" x="-114.922" y="63.2933" font-family="Times,serif" font-size="14.00">b2</text>
</g>
<!-- b1&#45;&#45;b2 -->
<g id="edge7" class="edge"><title>b1&#45;&#45;b2</title>
<path fill="none" stroke="black" d="M-64.5199,23.4841C-74.9754,30.9746 -88.5467,40.6974 -98.9725,48.1667"/>
</g>
<!-- c1&#45;&#45;a1 -->
<g id="edge3" class="edge"><title>c1&#45;&#45;a1</title>
<path fill="none" stroke="black" d="M-5.99411,-44.3666C1.19127,-34.6275 10.4865,-22.0287 17.7142,-12.2323"/>
</g>
<!-- c2 -->
<g id="node10" class="node"><title>c2</title>
<ellipse fill="#ffffff" stroke="black" cx="-27.1802" cy="-140.885" rx="18.6979" ry="18.6979"/>
<text text-anchor="middle" x="-27.1802" y="-137.185" font-family="Times,serif" font-size="14.00">c2</text>
</g>
<!-- c1&#45;&#45;c2 -->
<g id="edge10" class="edge"><title>c1&#45;&#45;c2</title>
<path fill="none" stroke="black" d="M-19.5318,-78.4412C-21.1405,-91.5753 -23.2771,-109.019 -24.8831,-122.131"/>
</g>
<!-- a3 -->
<g id="node5" class="node"><title>a3</title>
<ellipse fill="#ffffff" stroke="black" cx="178.944" cy="66.8042" rx="18.6979" ry="18.6979"/>
<text text-anchor="middle" x="178.944" y="70.5042" font-family="Times,serif" font-size="14.00">a3</text>
</g>
<!-- a2&#45;&#45;a3 -->
<g id="edge5" class="edge"><title>a2&#45;&#45;a3</title>
<path fill="none" stroke="black" d="M121.939,43.099C133.848,48.0515 149.483,54.553 161.366,59.4944"/>
</g>
<!-- a4 -->
<g id="node6" class="node"><title>a4</title>
<ellipse fill="#ffffff" stroke="black" cx="259.121" cy="97.3443" rx="18.6979" ry="18.6979"/>
<text text-anchor="middle" x="259.121" y="101.044" font-family="Times,serif" font-size="14.00">a4</text>
</g>
<!-- a3&#45;&#45;a4 -->
<g id="edge6" class="edge"><title>a3&#45;&#45;a4</title>
<path fill="none" stroke="black" d="M196.738,73.5821C210.024,78.6431 228.102,85.529 241.377,90.5854"/>
</g>
<!-- a5x -->
<g id="node13" class="node"><title>a5x</title>
<ellipse fill="#ffffff" stroke="black" cx="335.496" cy="125.144" rx="23.2963" ry="23.2963"/>
<text text-anchor="middle" x="335.496" y="128.844" font-family="Times,serif" font-size="14.00">a5x</text>
</g>
<!-- a4&#45;&#45;a5x -->
<g id="edge13" class="edge"><title>a4&#45;&#45;a5x</title>
<path fill="none" stroke="black" d="M276.835,103.792C287.763,107.77 301.868,112.903 313.507,117.14"/>
</g>
<!-- a5y -->
<g id="node14" class="node"><title>a5y</title>
<ellipse fill="#ffffff" stroke="black" cx="334.598" cy="58.5973" rx="23.2963" ry="23.2963"/>
<text text-anchor="middle" x="334.598" y="62.2973" font-family="Times,serif" font-size="14.00">a5y</text>
</g>
<!-- a4&#45;&#45;a5y -->
<g id="edge14" class="edge"><title>a4&#45;&#45;a5y</title>
<path fill="none" stroke="black" d="M276.248,88.552C287.382,82.836 301.97,75.3473 313.774,69.2876"/>
</g>
<!-- a5z -->
<g id="node15" class="node"><title>a5z</title>
<ellipse fill="#ffffff" stroke="black" cx="289.083" cy="21.3218" rx="22.9987" ry="22.9987"/>
<text text-anchor="middle" x="289.083" y="25.0218" font-family="Times,serif" font-size="14.00">a5z</text>
</g>
<!-- a4&#45;&#45;a5z -->
<g id="edge15" class="edge"><title>a4&#45;&#45;a5z</title>
<path fill="none" stroke="black" d="M266.07,79.7121C270.426,68.6587 276.069,54.341 280.677,42.65"/>
</g>
<!-- a5w -->
<g id="node16" class="node"><title>a5w</title>
<ellipse fill="#ffffff" stroke="black" cx="231.515" cy="174.865" rx="25.1964" ry="25.1964"/>
<text text-anchor="middle" x="231.515" y="178.565" font-family="Times,serif" font-size="14.00">a5w</text>
</g>
<!-- a4&#45;&#45;a5w -->
<g id="edge16" class="edge"><title>a4&#45;&#45;a5w</title>
<path fill="none" stroke="black" d="M252.718,115.324C248.959,125.88 244.161,139.355 240.079,150.815"/>
</g>
<!-- a5v -->
<g id="node17" class="node"><title>a5v</title>
<ellipse fill="#ffffff" stroke="black" cx="291.124" cy="175.284" rx="23.2963" ry="23.2963"/>
<text text-anchor="middle" x="291.124" y="178.984" font-family="Times,serif" font-size="14.00">a5v</text>
</g>
<!-- a4&#45;&#45;a5v -->
<g id="edge17" class="edge"><title>a4&#45;&#45;a5v</title>
<path fill="none" stroke="black" d="M266.383,115.03C271.067,126.438 277.193,141.356 282.177,153.494"/>
</g>
<!-- b3 -->
<g id="node8" class="node"><title>b3</title>
<ellipse fill="#ffffff" stroke="black" cx="-181.067" cy="105.217" rx="19.4965" ry="19.4965"/>
<text text-anchor="middle" x="-181.067" y="108.917" font-family="Times,serif" font-size="14.00">b3</text>
</g>
<!-- b2&#45;&#45;b3 -->
<g id="edge8" class="edge"><title>b2&#45;&#45;b3</title>
<path fill="none" stroke="black" d="M-131.272,70.871C-141.525,77.9429 -154.688,87.0217 -164.905,94.0688"/>
</g>
<!-- b4 -->
<g id="node9" class="node"><title>b4</title>
<ellipse fill="#ffffff" stroke="black" cx="-252.017" cy="149.632" rx="19.4965" ry="19.4965"/>
<text text-anchor="middle" x="-252.017" y="153.332" font-family="Times,serif" font-size="14.00">b4</text>
</g>
<!-- b3&#45;&#45;b4 -->
<g id="edge9" class="edge"><title>b3&#45;&#45;b4</title>
<path fill="none" stroke="black" d="M-197.881,115.743C-209.191,122.823 -224.039,132.118 -235.323,139.182"/>
</g>
<!-- b5x -->
<g id="node18" class="node"><title>b5x</title>
<ellipse fill="#ffffff" stroke="black" cx="-333.582" cy="153.477" rx="24.0958" ry="24.0958"/>
<text text-anchor="middle" x="-333.582" y="157.177" font-family="Times,serif" font-size="14.00">b5x</text>
</g>
<!-- b4&#45;&#45;b5x -->
<g id="edge18" class="edge"><title>b4&#45;&#45;b5x</title>
<path fill="none" stroke="black" d="M-271.761,150.563C-283.077,151.096 -297.367,151.77 -309.358,152.335"/>
</g>
<!-- b5y -->
<g id="node19" class="node"><title>b5y</title>
<ellipse fill="#ffffff" stroke="black" cx="-224.579" cy="228.652" rx="24.0958" ry="24.0958"/>
<text text-anchor="middle" x="-224.579" y="232.352" font-family="Times,serif" font-size="14.00">b5y</text>
</g>
<!-- b4&#45;&#45;b5y -->
<g id="edge19" class="edge"><title>b4&#45;&#45;b5y</title>
<path fill="none" stroke="black" d="M-245.514,168.359C-241.616,179.586 -236.631,193.943 -232.503,205.831"/>
</g>
<!-- b5z -->
<g id="node20" class="node"><title>b5z</title>
<ellipse fill="#ffffff" stroke="black" cx="-293.252" cy="219.638" rx="23.2963" ry="23.2963"/>
<text text-anchor="middle" x="-293.252" y="223.338" font-family="Times,serif" font-size="14.00">b5z</text>
</g>
<!-- b4&#45;&#45;b5z -->
<g id="edge20" class="edge"><title>b4&#45;&#45;b5z</title>
<path fill="none" stroke="black" d="M-261.999,166.579C-267.814,176.452 -275.185,188.966 -281.308,199.36"/>
</g>
<!-- b5w -->
<g id="node21" class="node"><title>b5w</title>
<ellipse fill="#ffffff" stroke="black" cx="-310.094" cy="89.7069" rx="25.9954" ry="25.9954"/>
<text text-anchor="middle" x="-310.094" y="93.4069" font-family="Times,serif" font-size="14.00">b5w</text>
</g>
<!-- b4&#45;&#45;b5w -->
<g id="edge21" class="edge"><title>b4&#45;&#45;b5w</title>
<path fill="none" stroke="black" d="M-265.78,135.431C-273.562,127.401 -283.391,117.26 -291.813,108.57"/>
</g>
<!-- c3 -->
<g id="node11" class="node"><title>c3</title>
<ellipse fill="#ffffff" stroke="black" cx="-37.1877" cy="-220.137" rx="18.6979" ry="18.6979"/>
<text text-anchor="middle" x="-37.1877" y="-216.437" font-family="Times,serif" font-size="14.00">c3</text>
</g>
<!-- c2&#45;&#45;c3 -->
<g id="edge11" class="edge"><title>c2&#45;&#45;c3</title>
<path fill="none" stroke="black" d="M-29.5518,-159.666C-31.1355,-172.208 -33.211,-188.645 -34.7984,-201.215"/>
</g>
<!-- c4 -->
<g id="node12" class="node"><title>c4</title>
<ellipse fill="#ffffff" stroke="black" cx="-48.1581" cy="-301.092" rx="18.6979" ry="18.6979"/>
<text text-anchor="middle" x="-48.1581" y="-297.392" font-family="Times,serif" font-size="14.00">c4</text>
</g>
<!-- c3&#45;&#45;c4 -->
<g id="edge12" class="edge"><title>c3&#45;&#45;c4</title>
<path fill="none" stroke="black" d="M-39.7321,-238.913C-41.4917,-251.898 -43.8246,-269.114 -45.5894,-282.137"/>
</g>
<!-- c5x -->
<g id="node22" class="node"><title>c5x</title>
<ellipse fill="#ffffff" stroke="black" cx="-127.024" cy="-327.519" rx="23.2963" ry="23.2963"/>
<text text-anchor="middle" x="-127.024" y="-323.819" font-family="Times,serif" font-size="14.00">c5x</text>
</g>
<!-- c4&#45;&#45;c5x -->
<g id="edge22" class="edge"><title>c4&#45;&#45;c5x</title>
<path fill="none" stroke="black" d="M-66.054,-307.089C-77.5066,-310.927 -92.4554,-315.936 -104.685,-320.033"/>
</g>
<!-- c5y -->
<g id="node23" class="node"><title>c5y</title>
<ellipse fill="#ffffff" stroke="black" cx="-59.0072" cy="-378.896" rx="23.2963" ry="23.2963"/>
<text text-anchor="middle" x="-59.0072" y="-375.196" font-family="Times,serif" font-size="14.00">c5y</text>
</g>
<!-- c4&#45;&#45;c5y -->
<g id="edge23" class="edge"><title>c4&#45;&#45;c5y</title>
<path fill="none" stroke="black" d="M-50.7843,-319.926C-52.2769,-330.63 -54.1586,-344.125 -55.7452,-355.503"/>
</g>
<!-- c5z -->
<g id="node24" class="node"><title>c5z</title>
<ellipse fill="#ffffff" stroke="black" cx="20.4388" cy="-348.134" rx="22.9987" ry="22.9987"/>
<text text-anchor="middle" x="20.4388" y="-344.434" font-family="Times,serif" font-size="14.00">c5z</text>
</g>
<!-- c4&#45;&#45;c5z -->
<g id="edge24" class="edge"><title>c4&#45;&#45;c5z</title>
<path fill="none" stroke="black" d="M-32.5924,-311.767C-22.4729,-318.706 -9.2151,-327.798 1.51282,-335.155"/>
</g>
</g>
</svg>
