<?xml version="1.0" encoding="UTF-8" standalone="no"?>
<!DOCTYPE svg PUBLIC "-//W3C//DTD SVG 1.1//EN"
 "http://www.w3.org/Graphics/SVG/1.1/DTD/svg11.dtd">
<!-- Generated by graphviz version 2.38.0 (20140413.2041)
 -->
<!-- Title: G Pages: 1 -->
<svg width="203pt" height="207pt"
 viewBox="0.00 0.00 202.83 207.13" xmlns="http://www.w3.org/2000/svg" xmlns:xlink="http://www.w3.org/1999/xlink">
<g id="graph0" class="graph" transform="scale(1 1) rotate(0) translate(97.5386 103.363)">
<title>G</title>
<polygon fill="none" stroke="none" points="-97.5386,103.766 -97.5386,-103.363 105.287,-103.363 105.287,103.766 -97.5386,103.766"/>
<!-- 0 -->
<g id="node1" class="node"><title>0</title>
<ellipse fill="#ffffff" stroke="black" cx="-0.324639" cy="0.245874" rx="18" ry="18"/>
<text text-anchor="middle" x="-0.324639" y="3.94587" font-family="Times,serif" font-size="14.00">0</text>
</g>
<!-- 1 -->
<g id="node2" class="node"><title>1</title>
<ellipse fill="#ffffff" stroke="black" cx="83.2874" cy="-0.375967" rx="18" ry="18"/>
<text text-anchor="middle" x="83.2874" y="3.32403" font-family="Times,serif" font-size="14.00">1</text>
</g>
<!-- 0&#45;&#45;1 -->
<g id="edge1" class="edge"><title>0&#45;&#45;1</title>
<path fill="none" stroke="black" d="M17.8179,0.110944C31.8425,0.0066405 51.1646,-0.137063 65.1803,-0.2413"/>
</g>
<!-- 2 -->
<g id="node3" class="node"><title>2</title>
<ellipse fill="#ffffff" stroke="black" cx="-18.2427" cy="81.766" rx="18" ry="18"/>
<text text-anchor="middle" x="-18.2427" y="85.466" font-family="Times,serif" font-size="14.00">2</text>
</g>
<!-- 0&#45;&#45;2 -->
<g id="edge2" class="edge"><title>0&#45;&#45;2</title>
<path fill="none" stroke="black" d="M-4.21259,17.9345C-7.21804,31.6082 -11.3588,50.4469 -14.3623,64.1119"/>
</g>
<!-- 3 -->
<g id="node4" class="node"><title>3</title>
<ellipse fill="#ffffff" stroke="black" cx="-75.2582" cy="-36.6076" rx="18" ry="18"/>
<text text-anchor="middle" x="-75.2582" y="-32.9076" font-family="Times,serif" font-size="14.00">3</text>
</g>
<!-- 0&#45;&#45;3 -->
<g id="edge3" class="edge"><title>0&#45;&#45;3</title>
<path fill="none" stroke="black" d="M-16.5841,-7.75079C-29.153,-13.9324 -46.4696,-22.4489 -59.0305,-28.6266"/>
</g>
<!-- 4 -->
<g id="node5" class="node"><title>4</title>
<ellipse fill="#ffffff" stroke="black" cx="51.8754" cy="-65.0675" rx="18" ry="18"/>
<text text-anchor="middle" x="51.8754" y="-61.3675" font-family="Times,serif" font-size="14.00">4</text>
</g>
<!-- 0&#45;&#45;4 -->
<g id="edge4" class="edge"><title>0&#45;&#45;4</title>
<path fill="none" stroke="black" d="M11.002,-13.9262C19.7577,-24.8814 31.8207,-39.9748 40.5708,-50.9231"/>
</g>
<!-- 5 -->
<g id="node6" class="node"><title>5</title>
<ellipse fill="#ffffff" stroke="black" cx="-18.2853" cy="-81.3633" rx="18" ry="18"/>
<text text-anchor="middle" x="-18.2853" y="-77.6633" font-family="Times,serif" font-size="14.00">5</text>
</g>
<!-- 0&#45;&#45;5 -->
<g id="edge5" class="edge"><title>0&#45;&#45;5</title>
<path fill="none" stroke="black" d="M-4.22183,-17.4621C-7.23442,-31.1507 -11.385,-50.01 -14.3957,-63.6899"/>
</g>
<!-- 6 -->
<g id="node7" class="node"><title>6</title>
<ellipse fill="#ffffff" stroke="black" cx="-75.5386" cy="36.4322" rx="18" ry="18"/>
<text text-anchor="middle" x="-75.5386" y="40.1322" font-family="Times,serif" font-size="14.00">6</text>
</g>
<!-- 0&#45;&#45;6 -->
<g id="edge6" class="edge"><title>0&#45;&#45;6</title>
<path fill="none" stroke="black" d="M-16.645,8.09778C-29.2609,14.1674 -46.6423,22.5299 -59.2502,28.5957"/>
</g>
<!-- 7 -->
<g id="node8" class="node"><title>7</title>
<ellipse fill="#ffffff" stroke="black" cx="52.4867" cy="64.9702" rx="18" ry="18"/>
<text text-anchor="middle" x="52.4867" y="68.6702" font-family="Times,serif" font-size="14.00">7</text>
</g>
<!-- 0&#45;&#45;7 -->
<g id="edge7" class="edge"><title>0&#45;&#45;7</title>
<path fill="none" stroke="black" d="M11.1346,14.2901C19.9928,25.1465 32.1972,40.1039 41.0498,50.9534"/>
</g>
</g>
</svg>
