<?xml version="1.0" encoding="UTF-8" standalone="no"?>
<!DOCTYPE svg PUBLIC "-//W3C//DTD SVG 1.1//EN"
 "http://www.w3.org/Graphics/SVG/1.1/DTD/svg11.dtd">
<!-- Generated by graphviz version 2.43.0 (0)
 -->
<!-- Title: %3 Pages: 1 -->
<svg width="456pt" height="476pt"
 viewBox="0.00 0.00 456.25 476.00" xmlns="http://www.w3.org/2000/svg" xmlns:xlink="http://www.w3.org/1999/xlink">
<g id="graph0" class="graph" transform="scale(1 1) rotate(0) translate(4 472)">
<title>%3</title>
<polygon fill="white" stroke="transparent" points="-4,4 -4,-472 452.25,-472 452.25,4 -4,4"/>
<!-- main -->
<g id="node1" class="node">
<title>main</title>
<ellipse fill="none" stroke="black" cx="251.25" cy="-450" rx="37.89" ry="18"/>
<text text-anchor="middle" x="251.25" y="-446.3" font-family="Times,serif" font-size="14.00">MAIN</text>
</g>
<!-- init -->
<g id="node2" class="node">
<title>init</title>
<ellipse fill="none" stroke="black" cx="131.25" cy="-378" rx="37.89" ry="18"/>
<text text-anchor="middle" x="131.25" y="-374.3" font-family="Times,serif" font-size="14.00">DECL</text>
</g>
<!-- main&#45;&gt;init -->
<g id="edge1" class="edge">
<title>main&#45;&gt;init</title>
<path fill="none" stroke="black" d="M228.39,-435.67C209.91,-424.89 183.68,-409.58 163.13,-397.6"/>
<polygon fill="black" stroke="black" points="164.83,-394.54 154.42,-392.52 161.3,-400.58 164.83,-394.54"/>
</g>
<!-- expr -->
<g id="node3" class="node">
<title>expr</title>
<ellipse fill="none" stroke="black" cx="251.25" cy="-378" rx="37.09" ry="18"/>
<text text-anchor="middle" x="251.25" y="-374.3" font-family="Times,serif" font-size="14.00">EXPR</text>
</g>
<!-- main&#45;&gt;expr -->
<g id="edge2" class="edge">
<title>main&#45;&gt;expr</title>
<path fill="none" stroke="black" d="M251.25,-431.7C251.25,-423.98 251.25,-414.71 251.25,-406.11"/>
<polygon fill="black" stroke="black" points="254.75,-406.1 251.25,-396.1 247.75,-406.1 254.75,-406.1"/>
</g>
<!-- return -->
<g id="node4" class="node">
<title>return</title>
<ellipse fill="none" stroke="black" cx="359.25" cy="-378" rx="52.79" ry="18"/>
<text text-anchor="middle" x="359.25" y="-374.3" font-family="Times,serif" font-size="14.00">RETURN</text>
</g>
<!-- main&#45;&gt;return -->
<g id="edge3" class="edge">
<title>main&#45;&gt;return</title>
<path fill="none" stroke="black" d="M272.84,-435C288.36,-424.95 309.54,-411.22 327.05,-399.87"/>
<polygon fill="black" stroke="black" points="329.33,-402.56 335.82,-394.19 325.52,-396.69 329.33,-402.56"/>
</g>
<!-- int1 -->
<g id="node5" class="node">
<title>int1</title>
<ellipse fill="none" stroke="black" cx="29.25" cy="-306" rx="29.5" ry="18"/>
<text text-anchor="middle" x="29.25" y="-302.3" font-family="Times,serif" font-size="14.00">int1</text>
</g>
<!-- init&#45;&gt;int1 -->
<g id="edge4" class="edge">
<title>init&#45;&gt;int1</title>
<path fill="none" stroke="black" d="M110.61,-362.83C95.04,-352.15 73.54,-337.4 56.56,-325.74"/>
<polygon fill="black" stroke="black" points="58.36,-322.74 48.14,-319.96 54.4,-328.51 58.36,-322.74"/>
</g>
<!-- a1 -->
<g id="node6" class="node">
<title>a1</title>
<ellipse fill="none" stroke="black" cx="103.25" cy="-306" rx="27" ry="18"/>
<text text-anchor="middle" x="103.25" y="-302.3" font-family="Times,serif" font-size="14.00">a</text>
</g>
<!-- init&#45;&gt;a1 -->
<g id="edge5" class="edge">
<title>init&#45;&gt;a1</title>
<path fill="none" stroke="black" d="M124.47,-360.05C121.24,-351.97 117.3,-342.12 113.69,-333.11"/>
<polygon fill="black" stroke="black" points="116.93,-331.77 109.96,-323.79 110.43,-334.37 116.93,-331.77"/>
</g>
<!-- 01 -->
<g id="node7" class="node">
<title>01</title>
<ellipse fill="none" stroke="black" cx="175.25" cy="-306" rx="27" ry="18"/>
<text text-anchor="middle" x="175.25" y="-302.3" font-family="Times,serif" font-size="14.00">0</text>
</g>
<!-- init&#45;&gt;01 -->
<g id="edge6" class="edge">
<title>init&#45;&gt;01</title>
<path fill="none" stroke="black" d="M141.67,-360.41C147.07,-351.83 153.76,-341.19 159.74,-331.67"/>
<polygon fill="black" stroke="black" points="162.84,-333.32 165.2,-322.99 156.91,-329.59 162.84,-333.32"/>
</g>
<!-- binop -->
<g id="node8" class="node">
<title>binop</title>
<ellipse fill="none" stroke="black" cx="262.25" cy="-306" rx="42.49" ry="18"/>
<text text-anchor="middle" x="262.25" y="-302.3" font-family="Times,serif" font-size="14.00">BINOP</text>
</g>
<!-- expr&#45;&gt;binop -->
<g id="edge7" class="edge">
<title>expr&#45;&gt;binop</title>
<path fill="none" stroke="black" d="M253.97,-359.7C255.18,-351.98 256.64,-342.71 257.99,-334.11"/>
<polygon fill="black" stroke="black" points="261.46,-334.53 259.56,-324.1 254.55,-333.44 261.46,-334.53"/>
</g>
<!-- 02 -->
<g id="node21" class="node">
<title>02</title>
<ellipse fill="none" stroke="black" cx="359.25" cy="-306" rx="27" ry="18"/>
<text text-anchor="middle" x="359.25" y="-302.3" font-family="Times,serif" font-size="14.00">0</text>
</g>
<!-- return&#45;&gt;02 -->
<g id="edge20" class="edge">
<title>return&#45;&gt;02</title>
<path fill="none" stroke="black" d="M359.25,-359.7C359.25,-351.98 359.25,-342.71 359.25,-334.11"/>
<polygon fill="black" stroke="black" points="362.75,-334.1 359.25,-324.1 355.75,-334.1 362.75,-334.1"/>
</g>
<!-- a2 -->
<g id="node9" class="node">
<title>a2</title>
<ellipse fill="none" stroke="black" cx="190.25" cy="-234" rx="27" ry="18"/>
<text text-anchor="middle" x="190.25" y="-230.3" font-family="Times,serif" font-size="14.00">a</text>
</g>
<!-- binop&#45;&gt;a2 -->
<g id="edge8" class="edge">
<title>binop&#45;&gt;a2</title>
<path fill="none" stroke="black" d="M245.91,-289.12C236.03,-279.51 223.29,-267.13 212.5,-256.63"/>
<polygon fill="black" stroke="black" points="214.66,-253.85 205.05,-249.39 209.78,-258.87 214.66,-253.85"/>
</g>
<!-- plusequal -->
<g id="node10" class="node">
<title>plusequal</title>
<ellipse fill="none" stroke="black" cx="262.25" cy="-234" rx="27" ry="18"/>
<text text-anchor="middle" x="262.25" y="-230.3" font-family="Times,serif" font-size="14.00">+=</text>
</g>
<!-- binop&#45;&gt;plusequal -->
<g id="edge9" class="edge">
<title>binop&#45;&gt;plusequal</title>
<path fill="none" stroke="black" d="M262.25,-287.7C262.25,-279.98 262.25,-270.71 262.25,-262.11"/>
<polygon fill="black" stroke="black" points="265.75,-262.1 262.25,-252.1 258.75,-262.1 265.75,-262.1"/>
</g>
<!-- e1 -->
<g id="node11" class="node">
<title>e1</title>
<ellipse fill="none" stroke="black" cx="349.25" cy="-234" rx="42.49" ry="18"/>
<text text-anchor="middle" x="349.25" y="-230.3" font-family="Times,serif" font-size="14.00">BINOP</text>
</g>
<!-- binop&#45;&gt;e1 -->
<g id="edge10" class="edge">
<title>binop&#45;&gt;e1</title>
<path fill="none" stroke="black" d="M281.13,-289.81C293.21,-280.09 309.07,-267.32 322.45,-256.56"/>
<polygon fill="black" stroke="black" points="324.81,-259.16 330.41,-250.16 320.42,-253.7 324.81,-259.16"/>
</g>
<!-- e2 -->
<g id="node12" class="node">
<title>e2</title>
<ellipse fill="none" stroke="black" cx="262.25" cy="-162" rx="42.49" ry="18"/>
<text text-anchor="middle" x="262.25" y="-158.3" font-family="Times,serif" font-size="14.00">BINOP</text>
</g>
<!-- e1&#45;&gt;e2 -->
<g id="edge11" class="edge">
<title>e1&#45;&gt;e2</title>
<path fill="none" stroke="black" d="M330.37,-217.81C318.29,-208.09 302.42,-195.32 289.04,-184.56"/>
<polygon fill="black" stroke="black" points="291.07,-181.7 281.09,-178.16 286.69,-187.16 291.07,-181.7"/>
</g>
<!-- div -->
<g id="node13" class="node">
<title>div</title>
<ellipse fill="none" stroke="black" cx="349.25" cy="-162" rx="27" ry="18"/>
<text text-anchor="middle" x="349.25" y="-158.3" font-family="Times,serif" font-size="14.00">div</text>
</g>
<!-- e1&#45;&gt;div -->
<g id="edge12" class="edge">
<title>e1&#45;&gt;div</title>
<path fill="none" stroke="black" d="M349.25,-215.7C349.25,-207.98 349.25,-198.71 349.25,-190.11"/>
<polygon fill="black" stroke="black" points="352.75,-190.1 349.25,-180.1 345.75,-190.1 352.75,-190.1"/>
</g>
<!-- 2 -->
<g id="node14" class="node">
<title>2</title>
<ellipse fill="none" stroke="black" cx="421.25" cy="-162" rx="27" ry="18"/>
<text text-anchor="middle" x="421.25" y="-158.3" font-family="Times,serif" font-size="14.00">2</text>
</g>
<!-- e1&#45;&gt;2 -->
<g id="edge13" class="edge">
<title>e1&#45;&gt;2</title>
<path fill="none" stroke="black" d="M365.59,-217.12C375.47,-207.51 388.2,-195.13 399,-184.63"/>
<polygon fill="black" stroke="black" points="401.71,-186.87 406.44,-177.39 396.83,-181.85 401.71,-186.87"/>
</g>
<!-- n1 -->
<g id="node15" class="node">
<title>n1</title>
<ellipse fill="none" stroke="black" cx="190.25" cy="-90" rx="27" ry="18"/>
<text text-anchor="middle" x="190.25" y="-86.3" font-family="Times,serif" font-size="14.00">n</text>
</g>
<!-- e2&#45;&gt;n1 -->
<g id="edge14" class="edge">
<title>e2&#45;&gt;n1</title>
<path fill="none" stroke="black" d="M245.91,-145.12C236.03,-135.51 223.29,-123.13 212.5,-112.63"/>
<polygon fill="black" stroke="black" points="214.66,-109.85 205.05,-105.39 209.78,-114.87 214.66,-109.85"/>
</g>
<!-- mult -->
<g id="node16" class="node">
<title>mult</title>
<ellipse fill="none" stroke="black" cx="262.25" cy="-90" rx="27" ry="18"/>
<text text-anchor="middle" x="262.25" y="-86.3" font-family="Times,serif" font-size="14.00">*</text>
</g>
<!-- e2&#45;&gt;mult -->
<g id="edge15" class="edge">
<title>e2&#45;&gt;mult</title>
<path fill="none" stroke="black" d="M262.25,-143.7C262.25,-135.98 262.25,-126.71 262.25,-118.11"/>
<polygon fill="black" stroke="black" points="265.75,-118.1 262.25,-108.1 258.75,-118.1 265.75,-118.1"/>
</g>
<!-- e3 -->
<g id="node17" class="node">
<title>e3</title>
<ellipse fill="none" stroke="black" cx="349.25" cy="-90" rx="42.49" ry="18"/>
<text text-anchor="middle" x="349.25" y="-86.3" font-family="Times,serif" font-size="14.00">BINOP</text>
</g>
<!-- e2&#45;&gt;e3 -->
<g id="edge16" class="edge">
<title>e2&#45;&gt;e3</title>
<path fill="none" stroke="black" d="M281.13,-145.81C293.21,-136.09 309.07,-123.32 322.45,-112.56"/>
<polygon fill="black" stroke="black" points="324.81,-115.16 330.41,-106.16 320.42,-109.7 324.81,-115.16"/>
</g>
<!-- n2 -->
<g id="node18" class="node">
<title>n2</title>
<ellipse fill="none" stroke="black" cx="277.25" cy="-18" rx="27" ry="18"/>
<text text-anchor="middle" x="277.25" y="-14.3" font-family="Times,serif" font-size="14.00">n</text>
</g>
<!-- e3&#45;&gt;n2 -->
<g id="edge17" class="edge">
<title>e3&#45;&gt;n2</title>
<path fill="none" stroke="black" d="M332.91,-73.12C323.03,-63.51 310.29,-51.13 299.5,-40.63"/>
<polygon fill="black" stroke="black" points="301.66,-37.85 292.05,-33.39 296.78,-42.87 301.66,-37.85"/>
</g>
<!-- minus -->
<g id="node19" class="node">
<title>minus</title>
<ellipse fill="none" stroke="black" cx="349.25" cy="-18" rx="27" ry="18"/>
<text text-anchor="middle" x="349.25" y="-14.3" font-family="Times,serif" font-size="14.00">&#45;</text>
</g>
<!-- e3&#45;&gt;minus -->
<g id="edge18" class="edge">
<title>e3&#45;&gt;minus</title>
<path fill="none" stroke="black" d="M349.25,-71.7C349.25,-63.98 349.25,-54.71 349.25,-46.11"/>
<polygon fill="black" stroke="black" points="352.75,-46.1 349.25,-36.1 345.75,-46.1 352.75,-46.1"/>
</g>
<!-- 1 -->
<g id="node20" class="node">
<title>1</title>
<ellipse fill="none" stroke="black" cx="421.25" cy="-18" rx="27" ry="18"/>
<text text-anchor="middle" x="421.25" y="-14.3" font-family="Times,serif" font-size="14.00">1</text>
</g>
<!-- e3&#45;&gt;1 -->
<g id="edge19" class="edge">
<title>e3&#45;&gt;1</title>
<path fill="none" stroke="black" d="M365.59,-73.12C375.47,-63.51 388.2,-51.13 399,-40.63"/>
<polygon fill="black" stroke="black" points="401.71,-42.87 406.44,-33.39 396.83,-37.85 401.71,-42.87"/>
</g>
</g>
</svg>
