<?xml version="1.0" encoding="UTF-8" standalone="no"?>
<!DOCTYPE svg PUBLIC "-//W3C//DTD SVG 1.1//EN"
 "http://www.w3.org/Graphics/SVG/1.1/DTD/svg11.dtd">
<!-- Generated by graphviz version 2.43.0 (0)
 -->
<!-- Title: %3 Pages: 1 -->
<svg width="808pt" height="332pt"
 viewBox="0.00 0.00 808.00 332.00" xmlns="http://www.w3.org/2000/svg" xmlns:xlink="http://www.w3.org/1999/xlink">
<g id="graph0" class="graph" transform="scale(1 1) rotate(0) translate(4 328)">
<title>%3</title>
<polygon fill="white" stroke="transparent" points="-4,4 -4,-328 804,-328 804,4 -4,4"/>
<!-- main -->
<g id="node1" class="node">
<title>main</title>
<ellipse fill="none" stroke="black" cx="458" cy="-306" rx="37.89" ry="18"/>
<text text-anchor="middle" x="458" y="-302.3" font-family="Times,serif" font-size="14.00">MAIN</text>
</g>
<!-- init -->
<g id="node2" class="node">
<title>init</title>
<ellipse fill="none" stroke="black" cx="135" cy="-234" rx="37.89" ry="18"/>
<text text-anchor="middle" x="135" y="-230.3" font-family="Times,serif" font-size="14.00">DECL</text>
</g>
<!-- main&#45;&gt;init -->
<g id="edge1" class="edge">
<title>main&#45;&gt;init</title>
<path fill="none" stroke="black" d="M424.35,-297.71C365.45,-284.94 243.77,-258.57 178.54,-244.44"/>
<polygon fill="black" stroke="black" points="179.09,-240.97 168.58,-242.28 177.61,-247.82 179.09,-240.97"/>
</g>
<!-- for -->
<g id="node3" class="node">
<title>for</title>
<ellipse fill="none" stroke="black" cx="458" cy="-234" rx="31.4" ry="18"/>
<text text-anchor="middle" x="458" y="-230.3" font-family="Times,serif" font-size="14.00">FOR</text>
</g>
<!-- main&#45;&gt;for -->
<g id="edge2" class="edge">
<title>main&#45;&gt;for</title>
<path fill="none" stroke="black" d="M458,-287.7C458,-279.98 458,-270.71 458,-262.11"/>
<polygon fill="black" stroke="black" points="461.5,-262.1 458,-252.1 454.5,-262.1 461.5,-262.1"/>
</g>
<!-- return -->
<g id="node4" class="node">
<title>return</title>
<ellipse fill="none" stroke="black" cx="658" cy="-234" rx="52.79" ry="18"/>
<text text-anchor="middle" x="658" y="-230.3" font-family="Times,serif" font-size="14.00">RETURN</text>
</g>
<!-- main&#45;&gt;return -->
<g id="edge3" class="edge">
<title>main&#45;&gt;return</title>
<path fill="none" stroke="black" d="M487.51,-294.67C520.53,-283.12 574.4,-264.26 612.75,-250.84"/>
<polygon fill="black" stroke="black" points="614.35,-253.99 622.63,-247.38 612.03,-247.38 614.35,-253.99"/>
</g>
<!-- int1 -->
<g id="node5" class="node">
<title>int1</title>
<ellipse fill="none" stroke="black" cx="27" cy="-162" rx="27" ry="18"/>
<text text-anchor="middle" x="27" y="-158.3" font-family="Times,serif" font-size="14.00">int</text>
</g>
<!-- init&#45;&gt;int1 -->
<g id="edge4" class="edge">
<title>init&#45;&gt;int1</title>
<path fill="none" stroke="black" d="M113.4,-219C96.37,-207.96 72.51,-192.5 54.18,-180.62"/>
<polygon fill="black" stroke="black" points="55.97,-177.61 45.68,-175.11 52.16,-183.48 55.97,-177.61"/>
</g>
<!-- a1 -->
<g id="node6" class="node">
<title>a1</title>
<ellipse fill="none" stroke="black" cx="99" cy="-162" rx="27" ry="18"/>
<text text-anchor="middle" x="99" y="-158.3" font-family="Times,serif" font-size="14.00">a</text>
</g>
<!-- init&#45;&gt;a1 -->
<g id="edge5" class="edge">
<title>init&#45;&gt;a1</title>
<path fill="none" stroke="black" d="M126.47,-216.41C122.16,-208.04 116.85,-197.71 112.05,-188.37"/>
<polygon fill="black" stroke="black" points="115.16,-186.76 107.47,-179.47 108.93,-189.96 115.16,-186.76"/>
</g>
<!-- 01 -->
<g id="node7" class="node">
<title>01</title>
<ellipse fill="none" stroke="black" cx="171" cy="-162" rx="27" ry="18"/>
<text text-anchor="middle" x="171" y="-158.3" font-family="Times,serif" font-size="14.00">0</text>
</g>
<!-- init&#45;&gt;01 -->
<g id="edge6" class="edge">
<title>init&#45;&gt;01</title>
<path fill="none" stroke="black" d="M143.53,-216.41C147.84,-208.04 153.15,-197.71 157.95,-188.37"/>
<polygon fill="black" stroke="black" points="161.07,-189.96 162.53,-179.47 154.84,-186.76 161.07,-189.96"/>
</g>
<!-- decl -->
<g id="node8" class="node">
<title>decl</title>
<ellipse fill="none" stroke="black" cx="254" cy="-162" rx="37.89" ry="18"/>
<text text-anchor="middle" x="254" y="-158.3" font-family="Times,serif" font-size="14.00">DECL</text>
</g>
<!-- for&#45;&gt;decl -->
<g id="edge7" class="edge">
<title>for&#45;&gt;decl</title>
<path fill="none" stroke="black" d="M431.75,-223.99C396.65,-211.95 334.16,-190.5 293.4,-176.52"/>
<polygon fill="black" stroke="black" points="294.38,-173.16 283.79,-173.22 292.11,-179.78 294.38,-173.16"/>
</g>
<!-- cond -->
<g id="node9" class="node">
<title>cond</title>
<ellipse fill="none" stroke="black" cx="409" cy="-162" rx="42.49" ry="18"/>
<text text-anchor="middle" x="409" y="-158.3" font-family="Times,serif" font-size="14.00">BINOP</text>
</g>
<!-- for&#45;&gt;cond -->
<g id="edge8" class="edge">
<title>for&#45;&gt;cond</title>
<path fill="none" stroke="black" d="M446.88,-217.12C440.91,-208.59 433.42,-197.89 426.68,-188.25"/>
<polygon fill="black" stroke="black" points="429.36,-185.98 420.76,-179.8 423.63,-190 429.36,-185.98"/>
</g>
<!-- incr -->
<g id="node10" class="node">
<title>incr</title>
<ellipse fill="none" stroke="black" cx="531" cy="-162" rx="40.09" ry="18"/>
<text text-anchor="middle" x="531" y="-158.3" font-family="Times,serif" font-size="14.00">UNOP</text>
</g>
<!-- for&#45;&gt;incr -->
<g id="edge9" class="edge">
<title>for&#45;&gt;incr</title>
<path fill="none" stroke="black" d="M473.48,-218.15C483.34,-208.7 496.31,-196.26 507.43,-185.6"/>
<polygon fill="black" stroke="black" points="509.99,-188 514.78,-178.55 505.14,-182.95 509.99,-188"/>
</g>
<!-- body -->
<g id="node11" class="node">
<title>body</title>
<ellipse fill="none" stroke="black" cx="626" cy="-162" rx="37.09" ry="18"/>
<text text-anchor="middle" x="626" y="-158.3" font-family="Times,serif" font-size="14.00">EXPR</text>
</g>
<!-- for&#45;&gt;body -->
<g id="edge10" class="edge">
<title>for&#45;&gt;body</title>
<path fill="none" stroke="black" d="M482.79,-222.67C510.91,-210.95 557.05,-191.73 589.34,-178.28"/>
<polygon fill="black" stroke="black" points="590.99,-181.38 598.88,-174.3 588.3,-174.92 590.99,-181.38"/>
</g>
<!-- 03 -->
<g id="node24" class="node">
<title>03</title>
<ellipse fill="none" stroke="black" cx="708" cy="-162" rx="27" ry="18"/>
<text text-anchor="middle" x="708" y="-158.3" font-family="Times,serif" font-size="14.00">0</text>
</g>
<!-- return&#45;&gt;03 -->
<g id="edge23" class="edge">
<title>return&#45;&gt;03</title>
<path fill="none" stroke="black" d="M669.85,-216.41C676.19,-207.53 684.11,-196.44 691.09,-186.67"/>
<polygon fill="black" stroke="black" points="693.96,-188.68 696.92,-178.51 688.26,-184.61 693.96,-188.68"/>
</g>
<!-- int2 -->
<g id="node12" class="node">
<title>int2</title>
<ellipse fill="none" stroke="black" cx="110" cy="-90" rx="27" ry="18"/>
<text text-anchor="middle" x="110" y="-86.3" font-family="Times,serif" font-size="14.00">int</text>
</g>
<!-- decl&#45;&gt;int2 -->
<g id="edge11" class="edge">
<title>decl&#45;&gt;int2</title>
<path fill="none" stroke="black" d="M228.59,-148.65C203.99,-136.69 166.69,-118.56 140.51,-105.83"/>
<polygon fill="black" stroke="black" points="141.93,-102.63 131.41,-101.41 138.87,-108.93 141.93,-102.63"/>
</g>
<!-- i1 -->
<g id="node13" class="node">
<title>i1</title>
<ellipse fill="none" stroke="black" cx="182" cy="-90" rx="27" ry="18"/>
<text text-anchor="middle" x="182" y="-86.3" font-family="Times,serif" font-size="14.00">i</text>
</g>
<!-- decl&#45;&gt;i1 -->
<g id="edge12" class="edge">
<title>decl&#45;&gt;i1</title>
<path fill="none" stroke="black" d="M238.02,-145.46C228.06,-135.78 215.09,-123.17 204.15,-112.53"/>
<polygon fill="black" stroke="black" points="206.56,-110 196.95,-105.54 201.68,-115.02 206.56,-110"/>
</g>
<!-- 02 -->
<g id="node14" class="node">
<title>02</title>
<ellipse fill="none" stroke="black" cx="254" cy="-90" rx="27" ry="18"/>
<text text-anchor="middle" x="254" y="-86.3" font-family="Times,serif" font-size="14.00">0</text>
</g>
<!-- decl&#45;&gt;02 -->
<g id="edge13" class="edge">
<title>decl&#45;&gt;02</title>
<path fill="none" stroke="black" d="M254,-143.7C254,-135.98 254,-126.71 254,-118.11"/>
<polygon fill="black" stroke="black" points="257.5,-118.1 254,-108.1 250.5,-118.1 257.5,-118.1"/>
</g>
<!-- i2 -->
<g id="node15" class="node">
<title>i2</title>
<ellipse fill="none" stroke="black" cx="326" cy="-90" rx="27" ry="18"/>
<text text-anchor="middle" x="326" y="-86.3" font-family="Times,serif" font-size="14.00">i</text>
</g>
<!-- cond&#45;&gt;i2 -->
<g id="edge14" class="edge">
<title>cond&#45;&gt;i2</title>
<path fill="none" stroke="black" d="M390.58,-145.46C378.56,-135.32 362.74,-121.99 349.77,-111.05"/>
<polygon fill="black" stroke="black" points="352.03,-108.37 342.13,-104.6 347.51,-113.72 352.03,-108.37"/>
</g>
<!-- lt -->
<g id="node16" class="node">
<title>lt</title>
<ellipse fill="none" stroke="black" cx="398" cy="-90" rx="27" ry="18"/>
<text text-anchor="middle" x="398" y="-86.3" font-family="Times,serif" font-size="14.00">&lt;</text>
</g>
<!-- cond&#45;&gt;lt -->
<g id="edge15" class="edge">
<title>cond&#45;&gt;lt</title>
<path fill="none" stroke="black" d="M406.28,-143.7C405.07,-135.98 403.61,-126.71 402.26,-118.11"/>
<polygon fill="black" stroke="black" points="405.7,-117.44 400.69,-108.1 398.78,-118.53 405.7,-117.44"/>
</g>
<!-- n -->
<g id="node17" class="node">
<title>n</title>
<ellipse fill="none" stroke="black" cx="470" cy="-90" rx="27" ry="18"/>
<text text-anchor="middle" x="470" y="-86.3" font-family="Times,serif" font-size="14.00">n</text>
</g>
<!-- cond&#45;&gt;n -->
<g id="edge16" class="edge">
<title>cond&#45;&gt;n</title>
<path fill="none" stroke="black" d="M423.15,-144.76C431.15,-135.59 441.27,-123.96 450.07,-113.88"/>
<polygon fill="black" stroke="black" points="452.83,-116.03 456.76,-106.19 447.56,-111.43 452.83,-116.03"/>
</g>
<!-- plusplus -->
<g id="node18" class="node">
<title>plusplus</title>
<ellipse fill="none" stroke="black" cx="542" cy="-90" rx="27" ry="18"/>
<text text-anchor="middle" x="542" y="-86.3" font-family="Times,serif" font-size="14.00">++</text>
</g>
<!-- incr&#45;&gt;plusplus -->
<g id="edge17" class="edge">
<title>incr&#45;&gt;plusplus</title>
<path fill="none" stroke="black" d="M533.72,-143.7C534.93,-135.98 536.39,-126.71 537.74,-118.11"/>
<polygon fill="black" stroke="black" points="541.22,-118.53 539.31,-108.1 534.3,-117.44 541.22,-118.53"/>
</g>
<!-- i3 -->
<g id="node19" class="node">
<title>i3</title>
<ellipse fill="none" stroke="black" cx="614" cy="-90" rx="27" ry="18"/>
<text text-anchor="middle" x="614" y="-86.3" font-family="Times,serif" font-size="14.00">i</text>
</g>
<!-- incr&#45;&gt;i3 -->
<g id="edge18" class="edge">
<title>incr&#45;&gt;i3</title>
<path fill="none" stroke="black" d="M549.01,-145.81C561.09,-135.62 577.13,-122.09 590.26,-111.02"/>
<polygon fill="black" stroke="black" points="592.6,-113.63 597.99,-104.5 588.09,-108.27 592.6,-113.63"/>
</g>
<!-- stmt -->
<g id="node20" class="node">
<title>stmt</title>
<ellipse fill="none" stroke="black" cx="701" cy="-90" rx="42.49" ry="18"/>
<text text-anchor="middle" x="701" y="-86.3" font-family="Times,serif" font-size="14.00">BINOP</text>
</g>
<!-- body&#45;&gt;stmt -->
<g id="edge19" class="edge">
<title>body&#45;&gt;stmt</title>
<path fill="none" stroke="black" d="M642.27,-145.81C652.36,-136.4 665.49,-124.14 676.78,-113.61"/>
<polygon fill="black" stroke="black" points="679.32,-116.03 684.24,-106.64 674.54,-110.91 679.32,-116.03"/>
</g>
<!-- a2 -->
<g id="node21" class="node">
<title>a2</title>
<ellipse fill="none" stroke="black" cx="629" cy="-18" rx="27" ry="18"/>
<text text-anchor="middle" x="629" y="-14.3" font-family="Times,serif" font-size="14.00">a</text>
</g>
<!-- stmt&#45;&gt;a2 -->
<g id="edge20" class="edge">
<title>stmt&#45;&gt;a2</title>
<path fill="none" stroke="black" d="M684.66,-73.12C674.78,-63.51 662.05,-51.13 651.25,-40.63"/>
<polygon fill="black" stroke="black" points="653.41,-37.85 643.8,-33.39 648.53,-42.87 653.41,-37.85"/>
</g>
<!-- plusequal -->
<g id="node22" class="node">
<title>plusequal</title>
<ellipse fill="none" stroke="black" cx="701" cy="-18" rx="27" ry="18"/>
<text text-anchor="middle" x="701" y="-14.3" font-family="Times,serif" font-size="14.00">+=</text>
</g>
<!-- stmt&#45;&gt;plusequal -->
<g id="edge21" class="edge">
<title>stmt&#45;&gt;plusequal</title>
<path fill="none" stroke="black" d="M701,-71.7C701,-63.98 701,-54.71 701,-46.11"/>
<polygon fill="black" stroke="black" points="704.5,-46.1 701,-36.1 697.5,-46.1 704.5,-46.1"/>
</g>
<!-- i4 -->
<g id="node23" class="node">
<title>i4</title>
<ellipse fill="none" stroke="black" cx="773" cy="-18" rx="27" ry="18"/>
<text text-anchor="middle" x="773" y="-14.3" font-family="Times,serif" font-size="14.00">i</text>
</g>
<!-- stmt&#45;&gt;i4 -->
<g id="edge22" class="edge">
<title>stmt&#45;&gt;i4</title>
<path fill="none" stroke="black" d="M717.34,-73.12C727.22,-63.51 739.95,-51.13 750.75,-40.63"/>
<polygon fill="black" stroke="black" points="753.47,-42.87 758.2,-33.39 748.59,-37.85 753.47,-42.87"/>
</g>
</g>
</svg>
