<?xml version="1.0" encoding="UTF-8" standalone="no"?>
<!DOCTYPE svg PUBLIC "-//W3C//DTD SVG 1.1//EN"
 "http://www.w3.org/Graphics/SVG/1.1/DTD/svg11.dtd">
<!-- Generated by graphviz version 2.40.1 (20161225.0304)
 -->
<!-- Title: G Pages: 1 -->
<svg width="422pt" height="269pt"
 viewBox="0.00 0.00 422.00 268.99" xmlns="http://www.w3.org/2000/svg" xmlns:xlink="http://www.w3.org/1999/xlink">
<g id="graph0" class="graph" transform="scale(1 1) rotate(0) translate(4 264.9896)">
<title>G</title>
<polygon fill="transparent" stroke="transparent" points="-4,4 -4,-264.9896 418,-264.9896 418,4 -4,4"/>
<!-- 15 -->
<g id="node1" class="node">
<title>15</title>
<ellipse fill="#ffffff" stroke="#000000" cx="205" cy="-241.4913" rx="19.4965" ry="19.4965"/>
<text text-anchor="middle" x="205" y="-237.7913" font-family="Times,serif" font-size="14.00" fill="#000000">15</text>
</g>
<!-- 13 -->
<g id="node2" class="node">
<title>13</title>
<ellipse fill="#ffffff" stroke="#000000" cx="152" cy="-166.4948" rx="19.4965" ry="19.4965"/>
<text text-anchor="middle" x="152" y="-162.7948" font-family="Times,serif" font-size="14.00" fill="#000000">13</text>
</g>
<!-- 15&#45;&gt;13 -->
<g id="edge1" class="edge">
<title>15&#45;&gt;13</title>
<path fill="none" stroke="#000000" d="M193.4998,-225.2182C186.3671,-215.1253 177.0728,-201.9735 169.0885,-190.6755"/>
<polygon fill="#000000" stroke="#000000" points="171.9253,-188.6251 163.2957,-182.4785 166.2087,-192.6651 171.9253,-188.6251"/>
</g>
<!-- 14 -->
<g id="node3" class="node">
<title>14</title>
<ellipse fill="#ffffff" stroke="#000000" cx="259" cy="-166.4948" rx="19.4965" ry="19.4965"/>
<text text-anchor="middle" x="259" y="-162.7948" font-family="Times,serif" font-size="14.00" fill="#000000">14</text>
</g>
<!-- 15&#45;&gt;14 -->
<g id="edge2" class="edge">
<title>15&#45;&gt;14</title>
<path fill="none" stroke="#000000" d="M216.452,-225.5865C223.7546,-215.4446 233.359,-202.1057 241.5944,-190.6681"/>
<polygon fill="#000000" stroke="#000000" points="244.5616,-192.5371 247.5645,-182.3767 238.8809,-188.4468 244.5616,-192.5371"/>
</g>
<!-- 9 -->
<g id="node4" class="node">
<title>9</title>
<ellipse fill="#ffffff" stroke="#000000" cx="72" cy="-91.4983" rx="18" ry="18"/>
<text text-anchor="middle" x="72" y="-87.7983" font-family="Times,serif" font-size="14.00" fill="#000000">9</text>
</g>
<!-- 13&#45;&gt;9 -->
<g id="edge3" class="edge">
<title>13&#45;&gt;9</title>
<path fill="none" stroke="#000000" d="M137.6976,-153.0869C125.1838,-141.3558 106.8509,-124.1695 92.729,-110.9308"/>
<polygon fill="#000000" stroke="#000000" points="95.0696,-108.3276 85.3803,-104.0418 90.2822,-113.4345 95.0696,-108.3276"/>
</g>
<!-- 10 -->
<g id="node5" class="node">
<title>10</title>
<ellipse fill="#ffffff" stroke="#000000" cx="152" cy="-91.4983" rx="19.4965" ry="19.4965"/>
<text text-anchor="middle" x="152" y="-87.7983" font-family="Times,serif" font-size="14.00" fill="#000000">10</text>
</g>
<!-- 13&#45;&gt;10 -->
<g id="edge4" class="edge">
<title>13&#45;&gt;10</title>
<path fill="none" stroke="#000000" d="M152,-146.7904C152,-138.9535 152,-129.7667 152,-121.1572"/>
<polygon fill="#000000" stroke="#000000" points="155.5001,-121.0711 152,-111.0711 148.5001,-121.0712 155.5001,-121.0711"/>
</g>
<!-- 11 -->
<g id="node6" class="node">
<title>11</title>
<ellipse fill="#ffffff" stroke="#000000" cx="259" cy="-91.4983" rx="19.4965" ry="19.4965"/>
<text text-anchor="middle" x="259" y="-87.7983" font-family="Times,serif" font-size="14.00" fill="#000000">11</text>
</g>
<!-- 14&#45;&gt;11 -->
<g id="edge5" class="edge">
<title>14&#45;&gt;11</title>
<path fill="none" stroke="#000000" d="M259,-146.7904C259,-138.9535 259,-129.7667 259,-121.1572"/>
<polygon fill="#000000" stroke="#000000" points="262.5001,-121.0711 259,-111.0711 255.5001,-121.0712 262.5001,-121.0711"/>
</g>
<!-- 12 -->
<g id="node7" class="node">
<title>12</title>
<ellipse fill="#ffffff" stroke="#000000" cx="342" cy="-91.4983" rx="19.4965" ry="19.4965"/>
<text text-anchor="middle" x="342" y="-87.7983" font-family="Times,serif" font-size="14.00" fill="#000000">12</text>
</g>
<!-- 14&#45;&gt;12 -->
<g id="edge6" class="edge">
<title>14&#45;&gt;12</title>
<path fill="none" stroke="#000000" d="M273.8387,-153.0869C286.5858,-141.5691 305.1525,-124.7926 319.6903,-111.6567"/>
<polygon fill="#000000" stroke="#000000" points="322.2165,-114.0913 327.2897,-104.7901 317.5234,-108.8975 322.2165,-114.0913"/>
</g>
<!-- 1 -->
<g id="node8" class="node">
<title>1</title>
<ellipse fill="#ffffff" stroke="#000000" cx="18" cy="-18" rx="18" ry="18"/>
<text text-anchor="middle" x="18" y="-14.3" font-family="Times,serif" font-size="14.00" fill="#000000">1</text>
</g>
<!-- 9&#45;&gt;1 -->
<g id="edge7" class="edge">
<title>9&#45;&gt;1</title>
<path fill="none" stroke="#000000" d="M61.3313,-76.9774C53.8123,-66.7434 43.5867,-52.8255 34.9572,-41.0801"/>
<polygon fill="#000000" stroke="#000000" points="37.7587,-38.9818 29.0172,-32.9953 32.1176,-43.1264 37.7587,-38.9818"/>
</g>
<!-- 2 -->
<g id="node9" class="node">
<title>2</title>
<ellipse fill="#ffffff" stroke="#000000" cx="72" cy="-18" rx="18" ry="18"/>
<text text-anchor="middle" x="72" y="-14.3" font-family="Times,serif" font-size="14.00" fill="#000000">2</text>
</g>
<!-- 9&#45;&gt;2 -->
<g id="edge8" class="edge">
<title>9&#45;&gt;2</title>
<path fill="none" stroke="#000000" d="M72,-73.3302C72,-65.2028 72,-55.4301 72,-46.3741"/>
<polygon fill="#000000" stroke="#000000" points="75.5001,-46.2138 72,-36.2138 68.5001,-46.2139 75.5001,-46.2138"/>
</g>
<!-- 3 -->
<g id="node10" class="node">
<title>3</title>
<ellipse fill="#ffffff" stroke="#000000" cx="126" cy="-18" rx="18" ry="18"/>
<text text-anchor="middle" x="126" y="-14.3" font-family="Times,serif" font-size="14.00" fill="#000000">3</text>
</g>
<!-- 10&#45;&gt;3 -->
<g id="edge9" class="edge">
<title>10&#45;&gt;3</title>
<path fill="none" stroke="#000000" d="M145.4391,-72.9516C142.4342,-64.457 138.8151,-54.2265 135.5185,-44.9076"/>
<polygon fill="#000000" stroke="#000000" points="138.7469,-43.5388 132.1123,-35.2785 132.1477,-45.8733 138.7469,-43.5388"/>
</g>
<!-- 4 -->
<g id="node11" class="node">
<title>4</title>
<ellipse fill="#ffffff" stroke="#000000" cx="180" cy="-18" rx="18" ry="18"/>
<text text-anchor="middle" x="180" y="-14.3" font-family="Times,serif" font-size="14.00" fill="#000000">4</text>
</g>
<!-- 10&#45;&gt;4 -->
<g id="edge10" class="edge">
<title>10&#45;&gt;4</title>
<path fill="none" stroke="#000000" d="M159.0656,-72.9516C162.3017,-64.457 166.1991,-54.2265 169.7493,-44.9076"/>
<polygon fill="#000000" stroke="#000000" points="173.1282,-45.8694 173.4176,-35.2785 166.5868,-43.3773 173.1282,-45.8694"/>
</g>
<!-- 5 -->
<g id="node12" class="node">
<title>5</title>
<ellipse fill="#ffffff" stroke="#000000" cx="234" cy="-18" rx="18" ry="18"/>
<text text-anchor="middle" x="234" y="-14.3" font-family="Times,serif" font-size="14.00" fill="#000000">5</text>
</g>
<!-- 11&#45;&gt;5 -->
<g id="edge11" class="edge">
<title>11&#45;&gt;5</title>
<path fill="none" stroke="#000000" d="M252.6914,-72.9516C249.8021,-64.457 246.3222,-54.2265 243.1524,-44.9076"/>
<polygon fill="#000000" stroke="#000000" points="246.4111,-43.6187 239.8772,-35.2785 239.7839,-45.8729 246.4111,-43.6187"/>
</g>
<!-- 6 -->
<g id="node13" class="node">
<title>6</title>
<ellipse fill="#ffffff" stroke="#000000" cx="288" cy="-18" rx="18" ry="18"/>
<text text-anchor="middle" x="288" y="-14.3" font-family="Times,serif" font-size="14.00" fill="#000000">6</text>
</g>
<!-- 11&#45;&gt;6 -->
<g id="edge12" class="edge">
<title>11&#45;&gt;6</title>
<path fill="none" stroke="#000000" d="M266.1685,-73.3302C269.6044,-64.6223 273.7855,-54.0256 277.5655,-44.4453"/>
<polygon fill="#000000" stroke="#000000" points="280.8969,-45.5381 281.3115,-34.9514 274.3854,-42.9689 280.8969,-45.5381"/>
</g>
<!-- 7 -->
<g id="node14" class="node">
<title>7</title>
<ellipse fill="#ffffff" stroke="#000000" cx="342" cy="-18" rx="18" ry="18"/>
<text text-anchor="middle" x="342" y="-14.3" font-family="Times,serif" font-size="14.00" fill="#000000">7</text>
</g>
<!-- 12&#45;&gt;7 -->
<g id="edge13" class="edge">
<title>12&#45;&gt;7</title>
<path fill="none" stroke="#000000" d="M342,-71.8021C342,-64.0286 342,-54.9471 342,-46.4827"/>
<polygon fill="#000000" stroke="#000000" points="345.5001,-46.2359 342,-36.236 338.5001,-46.236 345.5001,-46.2359"/>
</g>
<!-- 8 -->
<g id="node15" class="node">
<title>8</title>
<ellipse fill="#ffffff" stroke="#000000" cx="396" cy="-18" rx="18" ry="18"/>
<text text-anchor="middle" x="396" y="-14.3" font-family="Times,serif" font-size="14.00" fill="#000000">8</text>
</g>
<!-- 12&#45;&gt;8 -->
<g id="edge14" class="edge">
<title>12&#45;&gt;8</title>
<path fill="none" stroke="#000000" d="M353.7172,-75.5502C361.1327,-65.4571 370.8416,-52.2426 379.0855,-41.022"/>
<polygon fill="#000000" stroke="#000000" points="381.9415,-43.0461 385.0418,-32.915 376.3003,-38.9014 381.9415,-43.0461"/>
</g>
</g>
</svg>
