<?xml version="1.0" encoding="UTF-8" standalone="no"?>
<!DOCTYPE svg PUBLIC "-//W3C//DTD SVG 1.1//EN"
 "http://www.w3.org/Graphics/SVG/1.1/DTD/svg11.dtd">
<!-- Generated by graphviz version 2.40.1 (20161225.0304)
 -->
<!-- Title: G Pages: 1 -->
<svg width="439pt" height="263pt"
 viewBox="0.00 0.00 439.50 263.00" xmlns="http://www.w3.org/2000/svg" xmlns:xlink="http://www.w3.org/1999/xlink">
<g id="graph0" class="graph" transform="scale(1 1) rotate(0) translate(4 258.9965)">
<title>G</title>
<polygon fill="transparent" stroke="transparent" points="-4,4 -4,-258.9965 435.4983,-258.9965 435.4983,4 -4,4"/>
<!-- 1 -->
<g id="node1" class="node">
<title>1</title>
<ellipse fill="#ffffff" stroke="#000000" cx="212" cy="-236.9965" rx="18" ry="18"/>
<text text-anchor="middle" x="212" y="-233.2965" font-family="Times,serif" font-size="14.00" fill="#000000">1</text>
</g>
<!-- 2 -->
<g id="node2" class="node">
<title>2</title>
<ellipse fill="#ffffff" stroke="#000000" cx="155" cy="-164.9965" rx="18" ry="18"/>
<text text-anchor="middle" x="155" y="-161.2965" font-family="Times,serif" font-size="14.00" fill="#000000">2</text>
</g>
<!-- 1&#45;&gt;2 -->
<g id="edge1" class="edge">
<title>1&#45;&gt;2</title>
<path fill="none" stroke="#000000" d="M200.7386,-222.7717C192.6975,-212.6144 181.7237,-198.7527 172.5406,-187.1531"/>
<polygon fill="#000000" stroke="#000000" points="175.1892,-184.8599 166.238,-179.1919 169.7009,-189.2048 175.1892,-184.8599"/>
</g>
<!-- 3 -->
<g id="node3" class="node">
<title>3</title>
<ellipse fill="#ffffff" stroke="#000000" cx="269" cy="-164.9965" rx="18" ry="18"/>
<text text-anchor="middle" x="269" y="-161.2965" font-family="Times,serif" font-size="14.00" fill="#000000">3</text>
</g>
<!-- 1&#45;&gt;3 -->
<g id="edge2" class="edge">
<title>1&#45;&gt;3</title>
<path fill="none" stroke="#000000" d="M223.2614,-222.7717C231.3025,-212.6144 242.2763,-198.7527 251.4594,-187.1531"/>
<polygon fill="#000000" stroke="#000000" points="254.2991,-189.2048 257.762,-179.1919 248.8108,-184.8599 254.2991,-189.2048"/>
</g>
<!-- 4 -->
<g id="node4" class="node">
<title>4</title>
<ellipse fill="#ffffff" stroke="#000000" cx="72" cy="-92.9965" rx="18" ry="18"/>
<text text-anchor="middle" x="72" y="-89.2965" font-family="Times,serif" font-size="14.00" fill="#000000">4</text>
</g>
<!-- 2&#45;&gt;4 -->
<g id="edge3" class="edge">
<title>2&#45;&gt;4</title>
<path fill="none" stroke="#000000" d="M141.2942,-153.1072C128.3186,-141.8512 108.6338,-124.7752 93.5565,-111.6961"/>
<polygon fill="#000000" stroke="#000000" points="95.5735,-108.8125 85.7261,-104.9035 90.9866,-114.1002 95.5735,-108.8125"/>
</g>
<!-- 5 -->
<g id="node5" class="node">
<title>5</title>
<ellipse fill="#ffffff" stroke="#000000" cx="155" cy="-92.9965" rx="18" ry="18"/>
<text text-anchor="middle" x="155" y="-89.2965" font-family="Times,serif" font-size="14.00" fill="#000000">5</text>
</g>
<!-- 2&#45;&gt;5 -->
<g id="edge4" class="edge">
<title>2&#45;&gt;5</title>
<path fill="none" stroke="#000000" d="M155,-146.8279C155,-139.1275 155,-129.9709 155,-121.4132"/>
<polygon fill="#000000" stroke="#000000" points="158.5001,-121.4098 155,-111.4098 151.5001,-121.4098 158.5001,-121.4098"/>
</g>
<!-- 6 -->
<g id="node6" class="node">
<title>6</title>
<ellipse fill="#ffffff" stroke="#000000" cx="269" cy="-92.9965" rx="18" ry="18"/>
<text text-anchor="middle" x="269" y="-89.2965" font-family="Times,serif" font-size="14.00" fill="#000000">6</text>
</g>
<!-- 3&#45;&gt;6 -->
<g id="edge5" class="edge">
<title>3&#45;&gt;6</title>
<path fill="none" stroke="#000000" d="M269,-146.8279C269,-139.1275 269,-129.9709 269,-121.4132"/>
<polygon fill="#000000" stroke="#000000" points="272.5001,-121.4098 269,-111.4098 265.5001,-121.4098 272.5001,-121.4098"/>
</g>
<!-- 7 -->
<g id="node7" class="node">
<title>7</title>
<ellipse fill="#ffffff" stroke="#000000" cx="355" cy="-92.9965" rx="18" ry="18"/>
<text text-anchor="middle" x="355" y="-89.2965" font-family="Times,serif" font-size="14.00" fill="#000000">7</text>
</g>
<!-- 3&#45;&gt;7 -->
<g id="edge6" class="edge">
<title>3&#45;&gt;7</title>
<path fill="none" stroke="#000000" d="M282.8174,-153.4285C296.4029,-142.0546 317.3468,-124.5202 333.1821,-111.2627"/>
<polygon fill="#000000" stroke="#000000" points="335.5104,-113.8781 340.9312,-104.7751 331.0168,-108.5108 335.5104,-113.8781"/>
</g>
<!-- 8 -->
<g id="node8" class="node">
<title>8</title>
<ellipse fill="#ffffff" stroke="#000000" cx="18" cy="-19.4983" rx="18" ry="18"/>
<text text-anchor="middle" x="18" y="-15.7983" font-family="Times,serif" font-size="14.00" fill="#000000">8</text>
</g>
<!-- 4&#45;&gt;8 -->
<g id="edge7" class="edge">
<title>4&#45;&gt;8</title>
<path fill="none" stroke="#000000" d="M61.3313,-78.4756C53.8123,-68.2417 43.5867,-54.3238 34.9572,-42.5784"/>
<polygon fill="#000000" stroke="#000000" points="37.7587,-40.4801 29.0172,-34.4936 32.1176,-44.6247 37.7587,-40.4801"/>
</g>
<!-- 9 -->
<g id="node9" class="node">
<title>9</title>
<ellipse fill="#ffffff" stroke="#000000" cx="72" cy="-19.4983" rx="18" ry="18"/>
<text text-anchor="middle" x="72" y="-15.7983" font-family="Times,serif" font-size="14.00" fill="#000000">9</text>
</g>
<!-- 4&#45;&gt;9 -->
<g id="edge8" class="edge">
<title>4&#45;&gt;9</title>
<path fill="none" stroke="#000000" d="M72,-74.8284C72,-66.7011 72,-56.9284 72,-47.8724"/>
<polygon fill="#000000" stroke="#000000" points="75.5001,-47.7121 72,-37.7121 68.5001,-47.7121 75.5001,-47.7121"/>
</g>
<!-- 10 -->
<g id="node10" class="node">
<title>10</title>
<ellipse fill="#ffffff" stroke="#000000" cx="127" cy="-19.4983" rx="19.4965" ry="19.4965"/>
<text text-anchor="middle" x="127" y="-15.7983" font-family="Times,serif" font-size="14.00" fill="#000000">10</text>
</g>
<!-- 5&#45;&gt;10 -->
<g id="edge9" class="edge">
<title>5&#45;&gt;10</title>
<path fill="none" stroke="#000000" d="M148.5059,-75.9498C145.2685,-67.452 141.2709,-56.9585 137.6041,-47.3333"/>
<polygon fill="#000000" stroke="#000000" points="140.7791,-45.836 133.9483,-37.7372 134.2377,-48.3281 140.7791,-45.836"/>
</g>
<!-- 11 -->
<g id="node11" class="node">
<title>11</title>
<ellipse fill="#ffffff" stroke="#000000" cx="184" cy="-19.4983" rx="19.4965" ry="19.4965"/>
<text text-anchor="middle" x="184" y="-15.7983" font-family="Times,serif" font-size="14.00" fill="#000000">11</text>
</g>
<!-- 5&#45;&gt;11 -->
<g id="edge10" class="edge">
<title>5&#45;&gt;11</title>
<path fill="none" stroke="#000000" d="M161.7261,-75.9498C165.0791,-67.452 169.2194,-56.9585 173.0172,-47.3333"/>
<polygon fill="#000000" stroke="#000000" points="176.3889,-48.3239 176.8035,-37.7372 169.8774,-45.7547 176.3889,-48.3239"/>
</g>
<!-- 12 -->
<g id="node12" class="node">
<title>12</title>
<ellipse fill="#ffffff" stroke="#000000" cx="241" cy="-19.4983" rx="19.4965" ry="19.4965"/>
<text text-anchor="middle" x="241" y="-15.7983" font-family="Times,serif" font-size="14.00" fill="#000000">12</text>
</g>
<!-- 6&#45;&gt;12 -->
<g id="edge11" class="edge">
<title>6&#45;&gt;12</title>
<path fill="none" stroke="#000000" d="M262.5059,-75.9498C259.2685,-67.452 255.2709,-56.9585 251.6041,-47.3333"/>
<polygon fill="#000000" stroke="#000000" points="254.7791,-45.836 247.9483,-37.7372 248.2377,-48.3281 254.7791,-45.836"/>
</g>
<!-- 13 -->
<g id="node13" class="node">
<title>13</title>
<ellipse fill="#ffffff" stroke="#000000" cx="298" cy="-19.4983" rx="19.4965" ry="19.4965"/>
<text text-anchor="middle" x="298" y="-15.7983" font-family="Times,serif" font-size="14.00" fill="#000000">13</text>
</g>
<!-- 6&#45;&gt;13 -->
<g id="edge12" class="edge">
<title>6&#45;&gt;13</title>
<path fill="none" stroke="#000000" d="M275.7261,-75.9498C279.0791,-67.452 283.2194,-56.9585 287.0172,-47.3333"/>
<polygon fill="#000000" stroke="#000000" points="290.3889,-48.3239 290.8035,-37.7372 283.8774,-45.7547 290.3889,-48.3239"/>
</g>
<!-- 14 -->
<g id="node14" class="node">
<title>14</title>
<ellipse fill="#ffffff" stroke="#000000" cx="355" cy="-19.4983" rx="19.4965" ry="19.4965"/>
<text text-anchor="middle" x="355" y="-15.7983" font-family="Times,serif" font-size="14.00" fill="#000000">14</text>
</g>
<!-- 7&#45;&gt;14 -->
<g id="edge13" class="edge">
<title>7&#45;&gt;14</title>
<path fill="none" stroke="#000000" d="M355,-74.8284C355,-67.0917 355,-57.8639 355,-49.1826"/>
<polygon fill="#000000" stroke="#000000" points="358.5001,-49.0015 355,-39.0015 351.5001,-49.0015 358.5001,-49.0015"/>
</g>
<!-- 15 -->
<g id="node15" class="node">
<title>15</title>
<ellipse fill="#ffffff" stroke="#000000" cx="412" cy="-19.4983" rx="19.4965" ry="19.4965"/>
<text text-anchor="middle" x="412" y="-15.7983" font-family="Times,serif" font-size="14.00" fill="#000000">15</text>
</g>
<!-- 7&#45;&gt;15 -->
<g id="edge14" class="edge">
<title>7&#45;&gt;15</title>
<path fill="none" stroke="#000000" d="M366.2614,-78.4756C374.0937,-68.3764 384.7083,-54.6894 393.7403,-43.0431"/>
<polygon fill="#000000" stroke="#000000" points="396.6123,-45.051 399.9749,-35.004 391.0808,-40.7612 396.6123,-45.051"/>
</g>
</g>
</svg>
