<?xml version="1.0" encoding="UTF-8" standalone="no"?>
<!DOCTYPE svg PUBLIC "-//W3C//DTD SVG 1.1//EN"
 "http://www.w3.org/Graphics/SVG/1.1/DTD/svg11.dtd">
<!-- Generated by graphviz version 2.40.1 (20161225.0304)
 -->
<!-- Title: G Pages: 1 -->
<svg width="427pt" height="272pt"
 viewBox="0.00 0.00 427.50 271.99" xmlns="http://www.w3.org/2000/svg" xmlns:xlink="http://www.w3.org/1999/xlink">
<g id="graph0" class="graph" transform="scale(1 1) rotate(0) translate(4 267.9862)">
<title>G</title>
<polygon fill="transparent" stroke="transparent" points="-4,4 -4,-267.9862 423.4983,-267.9862 423.4983,4 -4,4"/>
<!-- 15 -->
<g id="node1" class="node">
<title>15</title>
<ellipse fill="#ffffff" stroke="#000000" cx="206" cy="-244.4879" rx="19.4965" ry="19.4965"/>
<text text-anchor="middle" x="206" y="-240.7879" font-family="Times,serif" font-size="14.00" fill="#000000">15</text>
</g>
<!-- 7 -->
<g id="node2" class="node">
<title>7</title>
<ellipse fill="#ffffff" stroke="#000000" cx="152" cy="-169.4913" rx="18" ry="18"/>
<text text-anchor="middle" x="152" y="-165.7913" font-family="Times,serif" font-size="14.00" fill="#000000">7</text>
</g>
<!-- 15&#45;&gt;7 -->
<g id="edge1" class="edge">
<title>15&#45;&gt;7</title>
<path fill="none" stroke="#000000" d="M194.548,-228.5831C187.0481,-218.167 177.1202,-204.3789 168.7409,-192.7415"/>
<polygon fill="#000000" stroke="#000000" points="171.3845,-190.4232 162.7009,-184.3531 165.7039,-194.5134 171.3845,-190.4232"/>
</g>
<!-- 14 -->
<g id="node3" class="node">
<title>14</title>
<ellipse fill="#ffffff" stroke="#000000" cx="260" cy="-169.4913" rx="19.4965" ry="19.4965"/>
<text text-anchor="middle" x="260" y="-165.7913" font-family="Times,serif" font-size="14.00" fill="#000000">14</text>
</g>
<!-- 15&#45;&gt;14 -->
<g id="edge2" class="edge">
<title>15&#45;&gt;14</title>
<path fill="none" stroke="#000000" d="M217.452,-228.5831C224.7546,-218.4411 234.359,-205.1023 242.5944,-193.6647"/>
<polygon fill="#000000" stroke="#000000" points="245.5616,-195.5336 248.5645,-185.3733 239.8809,-191.4434 245.5616,-195.5336"/>
</g>
<!-- 3 -->
<g id="node4" class="node">
<title>3</title>
<ellipse fill="#ffffff" stroke="#000000" cx="72" cy="-94.4948" rx="18" ry="18"/>
<text text-anchor="middle" x="72" y="-90.7948" font-family="Times,serif" font-size="14.00" fill="#000000">3</text>
</g>
<!-- 7&#45;&gt;3 -->
<g id="edge3" class="edge">
<title>7&#45;&gt;3</title>
<path fill="none" stroke="#000000" d="M138.7896,-157.1072C126.283,-145.3827 107.3096,-127.5961 92.7773,-113.9727"/>
<polygon fill="#000000" stroke="#000000" points="94.9193,-111.1832 85.23,-106.8974 90.1318,-116.2901 94.9193,-111.1832"/>
</g>
<!-- 6 -->
<g id="node5" class="node">
<title>6</title>
<ellipse fill="#ffffff" stroke="#000000" cx="152" cy="-94.4948" rx="18" ry="18"/>
<text text-anchor="middle" x="152" y="-90.7948" font-family="Times,serif" font-size="14.00" fill="#000000">6</text>
</g>
<!-- 7&#45;&gt;6 -->
<g id="edge4" class="edge">
<title>7&#45;&gt;6</title>
<path fill="none" stroke="#000000" d="M152,-151.3368C152,-142.8326 152,-132.5006 152,-122.9899"/>
<polygon fill="#000000" stroke="#000000" points="155.5001,-122.7421 152,-112.7421 148.5001,-122.7422 155.5001,-122.7421"/>
</g>
<!-- 10 -->
<g id="node6" class="node">
<title>10</title>
<ellipse fill="#ffffff" stroke="#000000" cx="260" cy="-94.4948" rx="19.4965" ry="19.4965"/>
<text text-anchor="middle" x="260" y="-90.7948" font-family="Times,serif" font-size="14.00" fill="#000000">10</text>
</g>
<!-- 14&#45;&gt;10 -->
<g id="edge5" class="edge">
<title>14&#45;&gt;10</title>
<path fill="none" stroke="#000000" d="M260,-149.7869C260,-141.95 260,-132.7633 260,-124.1537"/>
<polygon fill="#000000" stroke="#000000" points="263.5001,-124.0676 260,-114.0677 256.5001,-124.0677 263.5001,-124.0676"/>
</g>
<!-- 13 -->
<g id="node7" class="node">
<title>13</title>
<ellipse fill="#ffffff" stroke="#000000" cx="343" cy="-94.4948" rx="19.4965" ry="19.4965"/>
<text text-anchor="middle" x="343" y="-90.7948" font-family="Times,serif" font-size="14.00" fill="#000000">13</text>
</g>
<!-- 14&#45;&gt;13 -->
<g id="edge6" class="edge">
<title>14&#45;&gt;13</title>
<path fill="none" stroke="#000000" d="M274.8387,-156.0835C287.5858,-144.5656 306.1525,-127.7892 320.6903,-114.6533"/>
<polygon fill="#000000" stroke="#000000" points="323.2165,-117.0878 328.2897,-107.7866 318.5234,-111.894 323.2165,-117.0878"/>
</g>
<!-- 1 -->
<g id="node8" class="node">
<title>1</title>
<ellipse fill="#ffffff" stroke="#000000" cx="18" cy="-19.4983" rx="18" ry="18"/>
<text text-anchor="middle" x="18" y="-15.7983" font-family="Times,serif" font-size="14.00" fill="#000000">1</text>
</g>
<!-- 3&#45;&gt;1 -->
<g id="edge7" class="edge">
<title>3&#45;&gt;1</title>
<path fill="none" stroke="#000000" d="M61.3313,-79.6779C53.7134,-69.0979 43.3171,-54.6593 34.6174,-42.577"/>
<polygon fill="#000000" stroke="#000000" points="37.3301,-40.3545 28.6465,-34.2844 31.6494,-44.4448 37.3301,-40.3545"/>
</g>
<!-- 2 -->
<g id="node9" class="node">
<title>2</title>
<ellipse fill="#ffffff" stroke="#000000" cx="72" cy="-19.4983" rx="18" ry="18"/>
<text text-anchor="middle" x="72" y="-15.7983" font-family="Times,serif" font-size="14.00" fill="#000000">2</text>
</g>
<!-- 3&#45;&gt;2 -->
<g id="edge8" class="edge">
<title>3&#45;&gt;2</title>
<path fill="none" stroke="#000000" d="M72,-76.3402C72,-67.8361 72,-57.5041 72,-47.9934"/>
<polygon fill="#000000" stroke="#000000" points="75.5001,-47.7456 72,-37.7456 68.5001,-47.7456 75.5001,-47.7456"/>
</g>
<!-- 4 -->
<g id="node10" class="node">
<title>4</title>
<ellipse fill="#ffffff" stroke="#000000" cx="126" cy="-19.4983" rx="18" ry="18"/>
<text text-anchor="middle" x="126" y="-15.7983" font-family="Times,serif" font-size="14.00" fill="#000000">4</text>
</g>
<!-- 6&#45;&gt;4 -->
<g id="edge9" class="edge">
<title>6&#45;&gt;4</title>
<path fill="none" stroke="#000000" d="M146.1002,-77.4769C142.8984,-68.2413 138.8676,-56.6147 135.2577,-46.2021"/>
<polygon fill="#000000" stroke="#000000" points="138.549,-45.0103 131.9665,-36.7084 131.9352,-47.3032 138.549,-45.0103"/>
</g>
<!-- 5 -->
<g id="node11" class="node">
<title>5</title>
<ellipse fill="#ffffff" stroke="#000000" cx="180" cy="-19.4983" rx="18" ry="18"/>
<text text-anchor="middle" x="180" y="-15.7983" font-family="Times,serif" font-size="14.00" fill="#000000">5</text>
</g>
<!-- 6&#45;&gt;5 -->
<g id="edge10" class="edge">
<title>6&#45;&gt;5</title>
<path fill="none" stroke="#000000" d="M158.3536,-77.4769C161.8262,-68.1758 166.2042,-56.4497 170.1128,-45.9807"/>
<polygon fill="#000000" stroke="#000000" points="173.4527,-47.0414 173.6715,-36.4488 166.8948,-44.593 173.4527,-47.0414"/>
</g>
<!-- 8 -->
<g id="node12" class="node">
<title>8</title>
<ellipse fill="#ffffff" stroke="#000000" cx="234" cy="-19.4983" rx="18" ry="18"/>
<text text-anchor="middle" x="234" y="-15.7983" font-family="Times,serif" font-size="14.00" fill="#000000">8</text>
</g>
<!-- 10&#45;&gt;8 -->
<g id="edge11" class="edge">
<title>10&#45;&gt;8</title>
<path fill="none" stroke="#000000" d="M253.573,-75.9563C250.4703,-67.0066 246.6897,-56.1015 243.2814,-46.2704"/>
<polygon fill="#000000" stroke="#000000" points="246.491,-44.8429 239.9084,-36.5411 239.8772,-47.1358 246.491,-44.8429"/>
</g>
<!-- 9 -->
<g id="node13" class="node">
<title>9</title>
<ellipse fill="#ffffff" stroke="#000000" cx="288" cy="-19.4983" rx="18" ry="18"/>
<text text-anchor="middle" x="288" y="-15.7983" font-family="Times,serif" font-size="14.00" fill="#000000">9</text>
</g>
<!-- 10&#45;&gt;9 -->
<g id="edge12" class="edge">
<title>10&#45;&gt;9</title>
<path fill="none" stroke="#000000" d="M266.9214,-75.9563C270.2979,-66.9124 274.42,-55.8717 278.1204,-45.9603"/>
<polygon fill="#000000" stroke="#000000" points="281.4182,-47.1336 281.6371,-36.5411 274.8604,-44.6852 281.4182,-47.1336"/>
</g>
<!-- 11 -->
<g id="node14" class="node">
<title>11</title>
<ellipse fill="#ffffff" stroke="#000000" cx="343" cy="-19.4983" rx="19.4965" ry="19.4965"/>
<text text-anchor="middle" x="343" y="-15.7983" font-family="Times,serif" font-size="14.00" fill="#000000">11</text>
</g>
<!-- 13&#45;&gt;11 -->
<g id="edge13" class="edge">
<title>13&#45;&gt;11</title>
<path fill="none" stroke="#000000" d="M343,-74.7904C343,-66.9535 343,-57.7667 343,-49.1572"/>
<polygon fill="#000000" stroke="#000000" points="346.5001,-49.0711 343,-39.0711 339.5001,-49.0712 346.5001,-49.0711"/>
</g>
<!-- 12 -->
<g id="node15" class="node">
<title>12</title>
<ellipse fill="#ffffff" stroke="#000000" cx="400" cy="-19.4983" rx="19.4965" ry="19.4965"/>
<text text-anchor="middle" x="400" y="-15.7983" font-family="Times,serif" font-size="14.00" fill="#000000">12</text>
</g>
<!-- 13&#45;&gt;12 -->
<g id="edge14" class="edge">
<title>13&#45;&gt;12</title>
<path fill="none" stroke="#000000" d="M354.8104,-78.9555C362.6299,-68.6672 373.0374,-54.9738 381.8934,-43.3216"/>
<polygon fill="#000000" stroke="#000000" points="384.7441,-45.3551 388.0086,-35.2757 379.171,-41.1194 384.7441,-45.3551"/>
</g>
</g>
</svg>
