<?xml version="1.0" encoding="UTF-8" standalone="no"?>
<!DOCTYPE svg PUBLIC "-//W3C//DTD SVG 1.1//EN"
 "http://www.w3.org/Graphics/SVG/1.1/DTD/svg11.dtd">
<!-- Generated by graphviz version 2.40.1 (20161225.0304)
 -->
<!-- Title: G Pages: 1 -->
<svg width="430pt" height="269pt"
 viewBox="0.00 0.00 430.50 268.99" xmlns="http://www.w3.org/2000/svg" xmlns:xlink="http://www.w3.org/1999/xlink">
<g id="graph0" class="graph" transform="scale(1 1) rotate(0) translate(4 264.9896)">
<title>G</title>
<polygon fill="transparent" stroke="transparent" points="-4,4 -4,-264.9896 426.4983,-264.9896 426.4983,4 -4,4"/>
<!-- 8 -->
<g id="node1" class="node">
<title>8</title>
<ellipse fill="#ffffff" stroke="#000000" cx="206" cy="-242.9896" rx="18" ry="18"/>
<text text-anchor="middle" x="206" y="-239.2896" font-family="Times,serif" font-size="14.00" fill="#000000">8</text>
</g>
<!-- 4 -->
<g id="node2" class="node">
<title>4</title>
<ellipse fill="#ffffff" stroke="#000000" cx="152" cy="-169.4913" rx="18" ry="18"/>
<text text-anchor="middle" x="152" y="-165.7913" font-family="Times,serif" font-size="14.00" fill="#000000">4</text>
</g>
<!-- 8&#45;&gt;4 -->
<g id="edge1" class="edge">
<title>8&#45;&gt;4</title>
<path fill="none" stroke="#000000" d="M195.3313,-228.4687C187.8123,-218.2348 177.5867,-204.3169 168.9572,-192.5715"/>
<polygon fill="#000000" stroke="#000000" points="171.7587,-190.4731 163.0172,-184.4867 166.1176,-194.6178 171.7587,-190.4731"/>
</g>
<!-- 12 -->
<g id="node3" class="node">
<title>12</title>
<ellipse fill="#ffffff" stroke="#000000" cx="261" cy="-169.4913" rx="19.4965" ry="19.4965"/>
<text text-anchor="middle" x="261" y="-165.7913" font-family="Times,serif" font-size="14.00" fill="#000000">12</text>
</g>
<!-- 8&#45;&gt;12 -->
<g id="edge2" class="edge">
<title>8&#45;&gt;12</title>
<path fill="none" stroke="#000000" d="M216.8662,-228.4687C224.3733,-218.4368 234.5294,-204.8648 243.2065,-193.2694"/>
<polygon fill="#000000" stroke="#000000" points="246.0151,-195.3578 249.2043,-185.2543 240.4106,-191.1638 246.0151,-195.3578"/>
</g>
<!-- 2 -->
<g id="node4" class="node">
<title>2</title>
<ellipse fill="#ffffff" stroke="#000000" cx="72" cy="-94.4948" rx="18" ry="18"/>
<text text-anchor="middle" x="72" y="-90.7948" font-family="Times,serif" font-size="14.00" fill="#000000">2</text>
</g>
<!-- 4&#45;&gt;2 -->
<g id="edge3" class="edge">
<title>4&#45;&gt;2</title>
<path fill="none" stroke="#000000" d="M138.7896,-157.1072C126.283,-145.3827 107.3096,-127.5961 92.7773,-113.9727"/>
<polygon fill="#000000" stroke="#000000" points="94.9193,-111.1832 85.23,-106.8974 90.1318,-116.2901 94.9193,-111.1832"/>
</g>
<!-- 6 -->
<g id="node5" class="node">
<title>6</title>
<ellipse fill="#ffffff" stroke="#000000" cx="152" cy="-94.4948" rx="18" ry="18"/>
<text text-anchor="middle" x="152" y="-90.7948" font-family="Times,serif" font-size="14.00" fill="#000000">6</text>
</g>
<!-- 4&#45;&gt;6 -->
<g id="edge4" class="edge">
<title>4&#45;&gt;6</title>
<path fill="none" stroke="#000000" d="M152,-151.3368C152,-142.8326 152,-132.5006 152,-122.9899"/>
<polygon fill="#000000" stroke="#000000" points="155.5001,-122.7421 152,-112.7421 148.5001,-122.7422 155.5001,-122.7421"/>
</g>
<!-- 10 -->
<g id="node6" class="node">
<title>10</title>
<ellipse fill="#ffffff" stroke="#000000" cx="261" cy="-94.4948" rx="19.4965" ry="19.4965"/>
<text text-anchor="middle" x="261" y="-90.7948" font-family="Times,serif" font-size="14.00" fill="#000000">10</text>
</g>
<!-- 12&#45;&gt;10 -->
<g id="edge5" class="edge">
<title>12&#45;&gt;10</title>
<path fill="none" stroke="#000000" d="M261,-149.7869C261,-141.95 261,-132.7633 261,-124.1537"/>
<polygon fill="#000000" stroke="#000000" points="264.5001,-124.0676 261,-114.0677 257.5001,-124.0677 264.5001,-124.0676"/>
</g>
<!-- 14 -->
<g id="node7" class="node">
<title>14</title>
<ellipse fill="#ffffff" stroke="#000000" cx="346" cy="-94.4948" rx="19.4965" ry="19.4965"/>
<text text-anchor="middle" x="346" y="-90.7948" font-family="Times,serif" font-size="14.00" fill="#000000">14</text>
</g>
<!-- 12&#45;&gt;14 -->
<g id="edge6" class="edge">
<title>12&#45;&gt;14</title>
<path fill="none" stroke="#000000" d="M275.8059,-156.4279C288.9694,-144.8136 308.411,-127.66 323.4978,-114.3488"/>
<polygon fill="#000000" stroke="#000000" points="326.1809,-116.6491 331.3638,-107.4085 321.5496,-111.4001 326.1809,-116.6491"/>
</g>
<!-- 1 -->
<g id="node8" class="node">
<title>1</title>
<ellipse fill="#ffffff" stroke="#000000" cx="18" cy="-19.4983" rx="18" ry="18"/>
<text text-anchor="middle" x="18" y="-15.7983" font-family="Times,serif" font-size="14.00" fill="#000000">1</text>
</g>
<!-- 2&#45;&gt;1 -->
<g id="edge7" class="edge">
<title>2&#45;&gt;1</title>
<path fill="none" stroke="#000000" d="M61.3313,-79.6779C53.7134,-69.0979 43.3171,-54.6593 34.6174,-42.577"/>
<polygon fill="#000000" stroke="#000000" points="37.3301,-40.3545 28.6465,-34.2844 31.6494,-44.4448 37.3301,-40.3545"/>
</g>
<!-- 3 -->
<g id="node9" class="node">
<title>3</title>
<ellipse fill="#ffffff" stroke="#000000" cx="72" cy="-19.4983" rx="18" ry="18"/>
<text text-anchor="middle" x="72" y="-15.7983" font-family="Times,serif" font-size="14.00" fill="#000000">3</text>
</g>
<!-- 2&#45;&gt;3 -->
<g id="edge8" class="edge">
<title>2&#45;&gt;3</title>
<path fill="none" stroke="#000000" d="M72,-76.3402C72,-67.8361 72,-57.5041 72,-47.9934"/>
<polygon fill="#000000" stroke="#000000" points="75.5001,-47.7456 72,-37.7456 68.5001,-47.7456 75.5001,-47.7456"/>
</g>
<!-- 5 -->
<g id="node10" class="node">
<title>5</title>
<ellipse fill="#ffffff" stroke="#000000" cx="126" cy="-19.4983" rx="18" ry="18"/>
<text text-anchor="middle" x="126" y="-15.7983" font-family="Times,serif" font-size="14.00" fill="#000000">5</text>
</g>
<!-- 6&#45;&gt;5 -->
<g id="edge9" class="edge">
<title>6&#45;&gt;5</title>
<path fill="none" stroke="#000000" d="M146.1002,-77.4769C142.8984,-68.2413 138.8676,-56.6147 135.2577,-46.2021"/>
<polygon fill="#000000" stroke="#000000" points="138.549,-45.0103 131.9665,-36.7084 131.9352,-47.3032 138.549,-45.0103"/>
</g>
<!-- 7 -->
<g id="node11" class="node">
<title>7</title>
<ellipse fill="#ffffff" stroke="#000000" cx="180" cy="-19.4983" rx="18" ry="18"/>
<text text-anchor="middle" x="180" y="-15.7983" font-family="Times,serif" font-size="14.00" fill="#000000">7</text>
</g>
<!-- 6&#45;&gt;7 -->
<g id="edge10" class="edge">
<title>6&#45;&gt;7</title>
<path fill="none" stroke="#000000" d="M158.3536,-77.4769C161.8262,-68.1758 166.2042,-56.4497 170.1128,-45.9807"/>
<polygon fill="#000000" stroke="#000000" points="173.4527,-47.0414 173.6715,-36.4488 166.8948,-44.593 173.4527,-47.0414"/>
</g>
<!-- 9 -->
<g id="node12" class="node">
<title>9</title>
<ellipse fill="#ffffff" stroke="#000000" cx="234" cy="-19.4983" rx="18" ry="18"/>
<text text-anchor="middle" x="234" y="-15.7983" font-family="Times,serif" font-size="14.00" fill="#000000">9</text>
</g>
<!-- 10&#45;&gt;9 -->
<g id="edge11" class="edge">
<title>10&#45;&gt;9</title>
<path fill="none" stroke="#000000" d="M254.3258,-75.9563C251.0699,-66.9124 247.095,-55.8717 243.5268,-45.9603"/>
<polygon fill="#000000" stroke="#000000" points="246.8162,-44.7643 240.1357,-36.5411 240.23,-47.1355 246.8162,-44.7643"/>
</g>
<!-- 11 -->
<g id="node13" class="node">
<title>11</title>
<ellipse fill="#ffffff" stroke="#000000" cx="289" cy="-19.4983" rx="19.4965" ry="19.4965"/>
<text text-anchor="middle" x="289" y="-15.7983" font-family="Times,serif" font-size="14.00" fill="#000000">11</text>
</g>
<!-- 10&#45;&gt;11 -->
<g id="edge12" class="edge">
<title>10&#45;&gt;11</title>
<path fill="none" stroke="#000000" d="M267.9214,-75.9563C271.1425,-67.3285 275.0422,-56.8835 278.607,-47.3353"/>
<polygon fill="#000000" stroke="#000000" points="281.9394,-48.4161 282.1583,-37.8235 275.3816,-45.9677 281.9394,-48.4161"/>
</g>
<!-- 13 -->
<g id="node14" class="node">
<title>13</title>
<ellipse fill="#ffffff" stroke="#000000" cx="346" cy="-19.4983" rx="19.4965" ry="19.4965"/>
<text text-anchor="middle" x="346" y="-15.7983" font-family="Times,serif" font-size="14.00" fill="#000000">13</text>
</g>
<!-- 14&#45;&gt;13 -->
<g id="edge13" class="edge">
<title>14&#45;&gt;13</title>
<path fill="none" stroke="#000000" d="M346,-74.7904C346,-66.9535 346,-57.7667 346,-49.1572"/>
<polygon fill="#000000" stroke="#000000" points="349.5001,-49.0711 346,-39.0711 342.5001,-49.0712 349.5001,-49.0711"/>
</g>
<!-- 15 -->
<g id="node15" class="node">
<title>15</title>
<ellipse fill="#ffffff" stroke="#000000" cx="403" cy="-19.4983" rx="19.4965" ry="19.4965"/>
<text text-anchor="middle" x="403" y="-15.7983" font-family="Times,serif" font-size="14.00" fill="#000000">15</text>
</g>
<!-- 14&#45;&gt;15 -->
<g id="edge14" class="edge">
<title>14&#45;&gt;15</title>
<path fill="none" stroke="#000000" d="M357.8104,-78.9555C365.6299,-68.6672 376.0374,-54.9738 384.8934,-43.3216"/>
<polygon fill="#000000" stroke="#000000" points="387.7441,-45.3551 391.0086,-35.2757 382.171,-41.1194 387.7441,-45.3551"/>
</g>
</g>
</svg>
