<?xml version="1.0" encoding="UTF-8" standalone="no"?>
<!DOCTYPE svg PUBLIC "-//W3C//DTD SVG 1.1//EN"
 "http://www.w3.org/Graphics/SVG/1.1/DTD/svg11.dtd">
<!-- Generated by graphviz version 2.40.1 (20161225.0304)
 -->
<!-- Title: G Pages: 1 -->
<svg width="433pt" height="266pt"
 viewBox="0.00 0.00 433.50 265.99" xmlns="http://www.w3.org/2000/svg" xmlns:xlink="http://www.w3.org/1999/xlink">
<g id="graph0" class="graph" transform="scale(1 1) rotate(0) translate(4 261.9931)">
<title>G</title>
<polygon fill="transparent" stroke="transparent" points="-4,4 -4,-261.9931 429.4983,-261.9931 429.4983,4 -4,4"/>
<!-- 1 -->
<g id="node1" class="node">
<title>1</title>
<ellipse fill="#ffffff" stroke="#000000" cx="207" cy="-239.9931" rx="18" ry="18"/>
<text text-anchor="middle" x="207" y="-236.2931" font-family="Times,serif" font-size="14.00" fill="#000000">1</text>
</g>
<!-- 2 -->
<g id="node2" class="node">
<title>2</title>
<ellipse fill="#ffffff" stroke="#000000" cx="153" cy="-167.9931" rx="18" ry="18"/>
<text text-anchor="middle" x="153" y="-164.2931" font-family="Times,serif" font-size="14.00" fill="#000000">2</text>
</g>
<!-- 1&#45;&gt;2 -->
<g id="edge1" class="edge">
<title>1&#45;&gt;2</title>
<path fill="none" stroke="#000000" d="M196.0723,-225.4228C188.6066,-215.4685 178.5632,-202.0773 170.0526,-190.7299"/>
<polygon fill="#000000" stroke="#000000" points="172.7115,-188.4417 163.9115,-182.5417 167.1115,-192.6417 172.7115,-188.4417"/>
</g>
<!-- 9 -->
<g id="node3" class="node">
<title>9</title>
<ellipse fill="#ffffff" stroke="#000000" cx="263" cy="-167.9931" rx="18" ry="18"/>
<text text-anchor="middle" x="263" y="-164.2931" font-family="Times,serif" font-size="14.00" fill="#000000">9</text>
</g>
<!-- 1&#45;&gt;9 -->
<g id="edge2" class="edge">
<title>1&#45;&gt;9</title>
<path fill="none" stroke="#000000" d="M218.0638,-225.7682C225.8613,-215.7429 236.4656,-202.1087 245.4147,-190.6027"/>
<polygon fill="#000000" stroke="#000000" points="248.198,-192.7251 251.5747,-182.6827 242.6725,-188.4275 248.198,-192.7251"/>
</g>
<!-- 3 -->
<g id="node4" class="node">
<title>3</title>
<ellipse fill="#ffffff" stroke="#000000" cx="72" cy="-94.4948" rx="18" ry="18"/>
<text text-anchor="middle" x="72" y="-90.7948" font-family="Times,serif" font-size="14.00" fill="#000000">3</text>
</g>
<!-- 2&#45;&gt;3 -->
<g id="edge3" class="edge">
<title>2&#45;&gt;3</title>
<path fill="none" stroke="#000000" d="M139.6245,-155.8563C126.9615,-144.3661 107.751,-126.9348 93.0371,-113.5835"/>
<polygon fill="#000000" stroke="#000000" points="95.153,-110.7774 85.3954,-106.6496 90.4491,-115.9614 95.153,-110.7774"/>
</g>
<!-- 6 -->
<g id="node5" class="node">
<title>6</title>
<ellipse fill="#ffffff" stroke="#000000" cx="153" cy="-94.4948" rx="18" ry="18"/>
<text text-anchor="middle" x="153" y="-90.7948" font-family="Times,serif" font-size="14.00" fill="#000000">6</text>
</g>
<!-- 2&#45;&gt;6 -->
<g id="edge4" class="edge">
<title>2&#45;&gt;6</title>
<path fill="none" stroke="#000000" d="M153,-149.825C153,-141.6976 153,-131.9249 153,-122.8689"/>
<polygon fill="#000000" stroke="#000000" points="156.5001,-122.7086 153,-112.7086 149.5001,-122.7087 156.5001,-122.7086"/>
</g>
<!-- 10 -->
<g id="node6" class="node">
<title>10</title>
<ellipse fill="#ffffff" stroke="#000000" cx="263" cy="-94.4948" rx="19.4965" ry="19.4965"/>
<text text-anchor="middle" x="263" y="-90.7948" font-family="Times,serif" font-size="14.00" fill="#000000">10</text>
</g>
<!-- 9&#45;&gt;10 -->
<g id="edge5" class="edge">
<title>9&#45;&gt;10</title>
<path fill="none" stroke="#000000" d="M263,-149.825C263,-142.0882 263,-132.8604 263,-124.1792"/>
<polygon fill="#000000" stroke="#000000" points="266.5001,-123.998 263,-113.998 259.5001,-123.9981 266.5001,-123.998"/>
</g>
<!-- 13 -->
<g id="node7" class="node">
<title>13</title>
<ellipse fill="#ffffff" stroke="#000000" cx="349" cy="-94.4948" rx="19.4965" ry="19.4965"/>
<text text-anchor="middle" x="349" y="-90.7948" font-family="Times,serif" font-size="14.00" fill="#000000">13</text>
</g>
<!-- 9&#45;&gt;13 -->
<g id="edge6" class="edge">
<title>9&#45;&gt;13</title>
<path fill="none" stroke="#000000" d="M276.8174,-156.1843C290.1603,-144.7811 310.6011,-127.3117 326.3289,-113.8702"/>
<polygon fill="#000000" stroke="#000000" points="328.7333,-116.4194 334.0614,-107.2618 324.1854,-111.098 328.7333,-116.4194"/>
</g>
<!-- 4 -->
<g id="node8" class="node">
<title>4</title>
<ellipse fill="#ffffff" stroke="#000000" cx="18" cy="-19.4983" rx="18" ry="18"/>
<text text-anchor="middle" x="18" y="-15.7983" font-family="Times,serif" font-size="14.00" fill="#000000">4</text>
</g>
<!-- 3&#45;&gt;4 -->
<g id="edge7" class="edge">
<title>3&#45;&gt;4</title>
<path fill="none" stroke="#000000" d="M61.3313,-79.6779C53.7134,-69.0979 43.3171,-54.6593 34.6174,-42.577"/>
<polygon fill="#000000" stroke="#000000" points="37.3301,-40.3545 28.6465,-34.2844 31.6494,-44.4448 37.3301,-40.3545"/>
</g>
<!-- 5 -->
<g id="node9" class="node">
<title>5</title>
<ellipse fill="#ffffff" stroke="#000000" cx="72" cy="-19.4983" rx="18" ry="18"/>
<text text-anchor="middle" x="72" y="-15.7983" font-family="Times,serif" font-size="14.00" fill="#000000">5</text>
</g>
<!-- 3&#45;&gt;5 -->
<g id="edge8" class="edge">
<title>3&#45;&gt;5</title>
<path fill="none" stroke="#000000" d="M72,-76.3402C72,-67.8361 72,-57.5041 72,-47.9934"/>
<polygon fill="#000000" stroke="#000000" points="75.5001,-47.7456 72,-37.7456 68.5001,-47.7456 75.5001,-47.7456"/>
</g>
<!-- 7 -->
<g id="node10" class="node">
<title>7</title>
<ellipse fill="#ffffff" stroke="#000000" cx="126" cy="-19.4983" rx="18" ry="18"/>
<text text-anchor="middle" x="126" y="-15.7983" font-family="Times,serif" font-size="14.00" fill="#000000">7</text>
</g>
<!-- 6&#45;&gt;7 -->
<g id="edge9" class="edge">
<title>6&#45;&gt;7</title>
<path fill="none" stroke="#000000" d="M146.8733,-77.4769C143.5247,-68.1758 139.3031,-56.4497 135.5341,-45.9807"/>
<polygon fill="#000000" stroke="#000000" points="138.783,-44.672 132.1025,-36.4488 132.1968,-47.0432 138.783,-44.672"/>
</g>
<!-- 8 -->
<g id="node11" class="node">
<title>8</title>
<ellipse fill="#ffffff" stroke="#000000" cx="180" cy="-19.4983" rx="18" ry="18"/>
<text text-anchor="middle" x="180" y="-15.7983" font-family="Times,serif" font-size="14.00" fill="#000000">8</text>
</g>
<!-- 6&#45;&gt;8 -->
<g id="edge10" class="edge">
<title>6&#45;&gt;8</title>
<path fill="none" stroke="#000000" d="M159.1267,-77.4769C162.4753,-68.1758 166.6969,-56.4497 170.4659,-45.9807"/>
<polygon fill="#000000" stroke="#000000" points="173.8032,-47.0432 173.8975,-36.4488 167.217,-44.672 173.8032,-47.0432"/>
</g>
<!-- 11 -->
<g id="node12" class="node">
<title>11</title>
<ellipse fill="#ffffff" stroke="#000000" cx="235" cy="-19.4983" rx="19.4965" ry="19.4965"/>
<text text-anchor="middle" x="235" y="-15.7983" font-family="Times,serif" font-size="14.00" fill="#000000">11</text>
</g>
<!-- 10&#45;&gt;11 -->
<g id="edge11" class="edge">
<title>10&#45;&gt;11</title>
<path fill="none" stroke="#000000" d="M256.0786,-75.9563C252.8575,-67.3285 248.9578,-56.8835 245.393,-47.3353"/>
<polygon fill="#000000" stroke="#000000" points="248.6184,-45.9677 241.8417,-37.8235 242.0606,-48.4161 248.6184,-45.9677"/>
</g>
<!-- 12 -->
<g id="node13" class="node">
<title>12</title>
<ellipse fill="#ffffff" stroke="#000000" cx="292" cy="-19.4983" rx="19.4965" ry="19.4965"/>
<text text-anchor="middle" x="292" y="-15.7983" font-family="Times,serif" font-size="14.00" fill="#000000">12</text>
</g>
<!-- 10&#45;&gt;12 -->
<g id="edge12" class="edge">
<title>10&#45;&gt;12</title>
<path fill="none" stroke="#000000" d="M270.1685,-75.9563C273.5048,-67.3285 277.5437,-56.8835 281.2359,-47.3353"/>
<polygon fill="#000000" stroke="#000000" points="284.5717,-48.4128 284.9139,-37.8235 278.0428,-45.8881 284.5717,-48.4128"/>
</g>
<!-- 14 -->
<g id="node14" class="node">
<title>14</title>
<ellipse fill="#ffffff" stroke="#000000" cx="349" cy="-19.4983" rx="19.4965" ry="19.4965"/>
<text text-anchor="middle" x="349" y="-15.7983" font-family="Times,serif" font-size="14.00" fill="#000000">14</text>
</g>
<!-- 13&#45;&gt;14 -->
<g id="edge13" class="edge">
<title>13&#45;&gt;14</title>
<path fill="none" stroke="#000000" d="M349,-74.7904C349,-66.9535 349,-57.7667 349,-49.1572"/>
<polygon fill="#000000" stroke="#000000" points="352.5001,-49.0711 349,-39.0711 345.5001,-49.0712 352.5001,-49.0711"/>
</g>
<!-- 15 -->
<g id="node15" class="node">
<title>15</title>
<ellipse fill="#ffffff" stroke="#000000" cx="406" cy="-19.4983" rx="19.4965" ry="19.4965"/>
<text text-anchor="middle" x="406" y="-15.7983" font-family="Times,serif" font-size="14.00" fill="#000000">15</text>
</g>
<!-- 13&#45;&gt;15 -->
<g id="edge14" class="edge">
<title>13&#45;&gt;15</title>
<path fill="none" stroke="#000000" d="M360.8104,-78.9555C368.6299,-68.6672 379.0374,-54.9738 387.8934,-43.3216"/>
<polygon fill="#000000" stroke="#000000" points="390.7441,-45.3551 394.0086,-35.2757 385.171,-41.1194 390.7441,-45.3551"/>
</g>
</g>
</svg>
