<?xml version="1.0" encoding="UTF-8" standalone="no"?>
<!DOCTYPE svg PUBLIC "-//W3C//DTD SVG 1.1//EN"
 "http://www.w3.org/Graphics/SVG/1.1/DTD/svg11.dtd">
<!-- Generated by graphviz version 2.40.1 (20161225.0304)
 -->
<!-- Title: G Pages: 1 -->
<svg width="473pt" height="165pt"
 viewBox="0.00 0.00 473.48 165.25" xmlns="http://www.w3.org/2000/svg" xmlns:xlink="http://www.w3.org/1999/xlink">
<g id="graph0" class="graph" transform="scale(1 1) rotate(0) translate(4 161.2463)">
<title>G</title>
<polygon fill="transparent" stroke="transparent" points="-4,4 -4,-161.2463 469.4787,-161.2463 469.4787,4 -4,4"/>
<!-- init -->
<!-- 0 -->
<g id="node2" class="node">
<title>0</title>
<ellipse fill="#ffffff" stroke="#000000" cx="101.9942" cy="-22.748" rx="19.4965" ry="19.4965"/>
<text text-anchor="start" x="94.9942" y="-20.048" font-family="Times,serif" font-size="14.00" fill="#000000">q</text>
<text text-anchor="start" x="101.9942" y="-20.048" font-family="Times,serif" baseline-shift="sub" font-size="14.00" fill="#000000">0</text>
</g>
<!-- init&#45;&gt;0 -->
<g id="edge1" class="edge">
<title>init&#45;&gt;0</title>
<path fill="none" stroke="#000000" d="M45.6693,-22.748C53.9238,-22.748 63.3621,-22.748 72.1223,-22.748"/>
<polygon fill="#000000" stroke="#000000" points="72.3465,-26.2481 82.3464,-22.748 72.3464,-19.2481 72.3465,-26.2481"/>
</g>
<!-- 1 -->
<g id="node3" class="node">
<title>1</title>
<ellipse fill="#ffffff" stroke="#000000" cx="183.9908" cy="-53.748" rx="19.4965" ry="19.4965"/>
<text text-anchor="start" x="176.9908" y="-51.048" font-family="Times,serif" font-size="14.00" fill="#000000">q</text>
<text text-anchor="start" x="183.9908" y="-51.048" font-family="Times,serif" baseline-shift="sub" font-size="14.00" fill="#000000">1</text>
</g>
<!-- 0&#45;&gt;1 -->
<g id="edge2" class="edge">
<title>0&#45;&gt;1</title>
<path fill="none" stroke="#000000" d="M120.6005,-29.7824C131.1581,-33.7738 144.5734,-38.8457 156.3416,-43.2948"/>
<polygon fill="#000000" stroke="#000000" points="155.149,-46.5857 165.7406,-46.8482 157.6245,-40.038 155.149,-46.5857"/>
<text text-anchor="middle" x="142.9925" y="-42.548" font-family="Times,serif" font-size="14.00" fill="#000000">a</text>
</g>
<!-- 4 -->
<g id="node6" class="node">
<title>4</title>
<ellipse fill="#ffffff" stroke="#000000" cx="445.9804" cy="-49.748" rx="19.4965" ry="19.4965"/>
<text text-anchor="start" x="438.9804" y="-47.048" font-family="Times,serif" font-size="14.00" fill="#000000">q</text>
<text text-anchor="start" x="445.9804" y="-47.048" font-family="Times,serif" baseline-shift="sub" font-size="14.00" fill="#000000">4</text>
</g>
<!-- 0&#45;&gt;4 -->
<g id="edge7" class="edge">
<title>0&#45;&gt;4</title>
<path fill="none" stroke="#000000" d="M120.6815,-16.9716C137.1714,-12.3886 161.9447,-6.748 183.9908,-6.748 183.9908,-6.748 183.9908,-6.748 359.9839,-6.748 382.941,-6.748 406.0517,-19.1585 422.5251,-30.645"/>
<polygon fill="#000000" stroke="#000000" points="420.8225,-33.7377 430.951,-36.8466 424.9719,-28.1 420.8225,-33.7377"/>
<text text-anchor="middle" x="269.9873" y="-10.548" font-family="Times,serif" font-size="14.00" fill="#000000">b</text>
</g>
<!-- 2 -->
<g id="node4" class="node">
<title>2</title>
<ellipse fill="#ffffff" stroke="#000000" cx="269.9873" cy="-100.748" rx="19.4968" ry="19.4968"/>
<ellipse fill="none" stroke="#000000" cx="269.9873" cy="-100.748" rx="23.4965" ry="23.4965"/>
<text text-anchor="start" x="262.9873" y="-98.048" font-family="Times,serif" font-size="14.00" fill="#000000">q</text>
<text text-anchor="start" x="269.9873" y="-98.048" font-family="Times,serif" baseline-shift="sub" font-size="14.00" fill="#000000">2</text>
</g>
<!-- 1&#45;&gt;2 -->
<g id="edge3" class="edge">
<title>1&#45;&gt;2</title>
<path fill="none" stroke="#000000" d="M201.3935,-63.2591C212.5306,-69.3459 227.2696,-77.4013 240.2301,-84.4847"/>
<polygon fill="#000000" stroke="#000000" points="238.8226,-87.704 249.2761,-89.4286 242.1797,-81.5615 238.8226,-87.704"/>
<text text-anchor="middle" x="224.989" y="-80.548" font-family="Times,serif" font-size="14.00" fill="#000000">b</text>
</g>
<!-- 1&#45;&gt;4 -->
<g id="edge8" class="edge">
<title>1&#45;&gt;4</title>
<path fill="none" stroke="#000000" d="M203.6826,-53.4473C249.2171,-52.7521 362.0199,-51.0299 416.1143,-50.204"/>
<polygon fill="#000000" stroke="#000000" points="416.4721,-53.699 426.4175,-50.0467 416.3652,-46.6998 416.4721,-53.699"/>
<text text-anchor="middle" x="314.9856" y="-55.548" font-family="Times,serif" font-size="14.00" fill="#000000">a</text>
</g>
<!-- 2&#45;&gt;2 -->
<g id="edge4" class="edge">
<title>2&#45;&gt;2</title>
<path fill="none" stroke="#000000" d="M261.9005,-122.9489C261.0183,-133.2479 263.7139,-142.2463 269.9873,-142.2463 274.0062,-142.2463 276.5568,-138.5533 277.6391,-133.1913"/>
<polygon fill="#000000" stroke="#000000" points="281.1465,-133.0885 278.0742,-122.9489 274.1528,-132.7913 281.1465,-133.0885"/>
<text text-anchor="middle" x="269.9873" y="-146.0463" font-family="Times,serif" font-size="14.00" fill="#000000">b</text>
</g>
<!-- 3 -->
<g id="node5" class="node">
<title>3</title>
<ellipse fill="#ffffff" stroke="#000000" cx="359.9839" cy="-100.748" rx="19.4968" ry="19.4968"/>
<ellipse fill="none" stroke="#000000" cx="359.9839" cy="-100.748" rx="23.4965" ry="23.4965"/>
<text text-anchor="start" x="352.9839" y="-98.048" font-family="Times,serif" font-size="14.00" fill="#000000">q</text>
<text text-anchor="start" x="359.9839" y="-98.048" font-family="Times,serif" baseline-shift="sub" font-size="14.00" fill="#000000">3</text>
</g>
<!-- 2&#45;&gt;3 -->
<g id="edge5" class="edge">
<title>2&#45;&gt;3</title>
<path fill="none" stroke="#000000" d="M293.6328,-100.748C303.5783,-100.748 315.3354,-100.748 326.1691,-100.748"/>
<polygon fill="#000000" stroke="#000000" points="326.1838,-104.2481 336.1838,-100.748 326.1837,-97.2481 326.1838,-104.2481"/>
<text text-anchor="middle" x="314.9856" y="-104.548" font-family="Times,serif" font-size="14.00" fill="#000000">a</text>
</g>
<!-- 3&#45;&gt;3 -->
<g id="edge6" class="edge">
<title>3&#45;&gt;3</title>
<path fill="none" stroke="#000000" d="M351.897,-122.9489C351.0148,-133.2479 353.7104,-142.2463 359.9839,-142.2463 364.0028,-142.2463 366.5534,-138.5533 367.6356,-133.1913"/>
<polygon fill="#000000" stroke="#000000" points="371.143,-133.0885 368.0707,-122.9489 364.1493,-132.7913 371.143,-133.0885"/>
<text text-anchor="middle" x="359.9839" y="-146.0463" font-family="Times,serif" font-size="14.00" fill="#000000">a</text>
</g>
<!-- 3&#45;&gt;4 -->
<g id="edge9" class="edge">
<title>3&#45;&gt;4</title>
<path fill="none" stroke="#000000" d="M380.3638,-88.6617C392.2742,-81.5983 407.4214,-72.6153 420.1608,-65.0602"/>
<polygon fill="#000000" stroke="#000000" points="422.115,-67.9706 428.9308,-59.8592 418.5443,-61.9497 422.115,-67.9706"/>
<text text-anchor="middle" x="404.9821" y="-78.548" font-family="Times,serif" font-size="14.00" fill="#000000">b</text>
</g>
<!-- 4&#45;&gt;4 -->
<g id="edge10" class="edge">
<title>4&#45;&gt;4</title>
<path fill="none" stroke="#000000" d="M438.7898,-68.2698C437.5679,-78.1997 439.9648,-87.2463 445.9804,-87.2463 449.7402,-87.2463 452.0863,-83.7125 453.0189,-78.6378"/>
<polygon fill="#000000" stroke="#000000" points="456.5239,-78.32 453.1709,-68.2698 449.5246,-78.2173 456.5239,-78.32"/>
<text text-anchor="middle" x="445.9804" y="-91.0463" font-family="Times,serif" font-size="14.00" fill="#000000">a,b</text>
</g>
</g>
</svg>
