<?xml version="1.0" encoding="UTF-8" standalone="no"?>
<!DOCTYPE svg PUBLIC "-//W3C//DTD SVG 1.1//EN"
 "http://www.w3.org/Graphics/SVG/1.1/DTD/svg11.dtd">
<!-- Generated by graphviz version 2.38.0 (20140413.2041)
 -->
<!-- Title: graphname Pages: 1 -->
<svg width="280pt" height="404pt"
 viewBox="0.00 0.00 280.00 404.00" xmlns="http://www.w3.org/2000/svg" xmlns:xlink="http://www.w3.org/1999/xlink">
<g id="graph0" class="graph" transform="scale(1 1) rotate(0) translate(4 400)">
<title>graphname</title>
<polygon fill="white" stroke="none" points="-4,4 -4,-400 276,-400 276,4 -4,4"/>
<!-- a -->
<g id="node1" class="node"><title>a</title>
<ellipse fill="none" stroke="black" cx="147" cy="-378" rx="27" ry="18"/>
<text text-anchor="middle" x="147" y="-374.3" font-family="Times,serif" font-size="14.00">a</text>
</g>
<!-- b -->
<g id="node2" class="node"><title>b</title>
<ellipse fill="none" stroke="black" cx="147" cy="-306" rx="27" ry="18"/>
<text text-anchor="middle" x="147" y="-302.3" font-family="Times,serif" font-size="14.00">b</text>
</g>
<!-- a&#45;&#45;b -->
<g id="edge1" class="edge"><title>a&#45;&#45;b</title>
<path fill="none" stroke="black" d="M147,-359.697C147,-348.846 147,-334.917 147,-324.104"/>
</g>
<!-- c -->
<g id="node3" class="node"><title>c</title>
<ellipse fill="none" stroke="black" cx="27" cy="-234" rx="27" ry="18"/>
<text text-anchor="middle" x="27" y="-230.3" font-family="Times,serif" font-size="14.00">c</text>
</g>
<!-- a&#45;&#45;c -->
<g id="edge7" class="edge"><title>a&#45;&#45;c</title>
<path fill="none" stroke="black" d="M125.499,-366.779C108.105,-357.611 83.962,-342.73 68,-324 49.5722,-302.377 37.7393,-271.091 31.739,-251.951"/>
</g>
<!-- d -->
<g id="node4" class="node"><title>d</title>
<ellipse fill="none" stroke="black" cx="103" cy="-162" rx="27" ry="18"/>
<text text-anchor="middle" x="103" y="-158.3" font-family="Times,serif" font-size="14.00">d</text>
</g>
<!-- a&#45;&#45;d -->
<g id="edge13" class="edge"><title>a&#45;&#45;d</title>
<path fill="none" stroke="black" d="M133.49,-361.992C125.375,-351.993 115.733,-338.134 111,-324 94.2032,-273.845 97.8475,-209.992 100.906,-180.005"/>
</g>
<!-- b&#45;&#45;c -->
<g id="edge2" class="edge"><title>b&#45;&#45;c</title>
<path fill="none" stroke="black" d="M127.184,-293.441C104.95,-280.471 69.0911,-259.553 46.845,-246.576"/>
</g>
<!-- b&#45;&#45;d -->
<g id="edge10" class="edge"><title>b&#45;&#45;d</title>
<path fill="none" stroke="black" d="M141.78,-288.153C133.312,-260.824 116.677,-207.14 108.213,-179.825"/>
</g>
<!-- e -->
<g id="node5" class="node"><title>e</title>
<ellipse fill="none" stroke="black" cx="158" cy="-90" rx="27" ry="18"/>
<text text-anchor="middle" x="158" y="-86.3" font-family="Times,serif" font-size="14.00">e</text>
</g>
<!-- b&#45;&#45;e -->
<g id="edge14" class="edge"><title>b&#45;&#45;e</title>
<path fill="none" stroke="black" d="M147.882,-287.849C149.941,-247.78 155.05,-148.383 157.114,-108.232"/>
</g>
<!-- c&#45;&#45;d -->
<g id="edge3" class="edge"><title>c&#45;&#45;d</title>
<path fill="none" stroke="black" d="M42.3797,-218.834C55.5654,-206.69 74.4641,-189.283 87.6431,-177.144"/>
</g>
<!-- c&#45;&#45;e -->
<g id="edge8" class="edge"><title>c&#45;&#45;e</title>
<path fill="none" stroke="black" d="M31.1806,-216.179C36.6833,-196.871 47.9599,-165.152 67,-144 85.7144,-123.21 114.564,-108.339 134.749,-99.7383"/>
</g>
<!-- f -->
<g id="node6" class="node"><title>f</title>
<ellipse fill="none" stroke="black" cx="158" cy="-18" rx="27" ry="18"/>
<text text-anchor="middle" x="158" y="-14.3" font-family="Times,serif" font-size="14.00">f</text>
</g>
<!-- c&#45;&#45;f -->
<g id="edge15" class="edge"><title>c&#45;&#45;f</title>
<path fill="none" stroke="black" d="M26.5725,-215.741C26.7666,-197.152 29.0111,-167.132 40,-144 63.4346,-94.6699 113.663,-51.9912 140.404,-31.6623"/>
</g>
<!-- d&#45;&#45;e -->
<g id="edge4" class="edge"><title>d&#45;&#45;e</title>
<path fill="none" stroke="black" d="M114.934,-145.811C124.16,-134.07 136.87,-117.893 146.089,-106.159"/>
</g>
<!-- d&#45;&#45;f -->
<g id="edge11" class="edge"><title>d&#45;&#45;f</title>
<path fill="none" stroke="black" d="M104.656,-144.012C106.89,-125.654 111.826,-95.8305 122,-72 127.852,-58.2917 137.441,-44.413 145.252,-34.2982"/>
</g>
<!-- e&#45;&#45;a -->
<g id="edge9" class="edge"><title>e&#45;&#45;a</title>
<path fill="none" stroke="black" d="M164.193,-107.53C177.771,-146.284 207.095,-245.644 183,-324 178.619,-338.247 168.961,-352.1 160.75,-362.069"/>
</g>
<!-- e&#45;&#45;f -->
<g id="edge5" class="edge"><title>e&#45;&#45;f</title>
<path fill="none" stroke="black" d="M158,-71.6966C158,-60.8463 158,-46.9167 158,-36.1043"/>
</g>
<!-- f&#45;&#45;a -->
<g id="edge6" class="edge"><title>f&#45;&#45;a</title>
<path fill="none" stroke="black" d="M177.339,-30.8101C209.863,-52.3256 272,-101.249 272,-161 272,-235 272,-235 272,-235 272,-297.567 202.782,-345.649 167.362,-366.157"/>
</g>
<!-- f&#45;&#45;b -->
<g id="edge12" class="edge"><title>f&#45;&#45;b</title>
<path fill="none" stroke="black" d="M171.75,-33.9312C179.961,-43.8997 189.619,-57.7531 194,-72 218.501,-151.676 175.073,-250.684 155.662,-288.907"/>
</g>
</g>
</svg>
