<?xml version="1.0" encoding="UTF-8" standalone="no"?>
<!DOCTYPE svg PUBLIC "-//W3C//DTD SVG 1.1//EN"
 "http://www.w3.org/Graphics/SVG/1.1/DTD/svg11.dtd">
<!-- Generated by graphviz version 2.38.0 (20140413.2041)
 -->
<!-- Title: graphname Pages: 1 -->
<svg width="192pt" height="181pt"
 viewBox="0.00 0.00 192.25 180.95" xmlns="http://www.w3.org/2000/svg" xmlns:xlink="http://www.w3.org/1999/xlink">
<g id="graph0" class="graph" transform="scale(1 1) rotate(0) translate(4 176.952)">
<title>graphname</title>
<polygon fill="white" stroke="none" points="-4,4 -4,-176.952 188.249,-176.952 188.249,4 -4,4"/>
<!-- a -->
<g id="node1" class="node"><title>a</title>
<ellipse fill="none" stroke="black" cx="99" cy="-86.4761" rx="27" ry="18"/>
<text text-anchor="middle" x="99" y="-82.7761" font-family="Times,serif" font-size="14.00">a</text>
</g>
<!-- b -->
<g id="node2" class="node"><title>b</title>
<ellipse fill="none" stroke="black" cx="157.249" cy="-128.797" rx="27" ry="18"/>
<text text-anchor="middle" x="157.249" y="-125.097" font-family="Times,serif" font-size="14.00">b</text>
</g>
<!-- a&#45;&#45;b -->
<g id="edge1" class="edge"><title>a&#45;&#45;b</title>
<path fill="none" stroke="black" d="M117.43,-99.8666C124.23,-104.807 131.932,-110.403 138.739,-115.348"/>
</g>
<!-- c -->
<g id="node3" class="node"><title>c</title>
<ellipse fill="none" stroke="black" cx="76.7508" cy="-154.952" rx="27" ry="18"/>
<text text-anchor="middle" x="76.7508" y="-151.252" font-family="Times,serif" font-size="14.00">c</text>
</g>
<!-- a&#45;&#45;c -->
<g id="edge7" class="edge"><title>a&#45;&#45;c</title>
<path fill="none" stroke="black" d="M93.2703,-104.11C89.9741,-114.255 85.8443,-126.965 82.5384,-137.14"/>
</g>
<!-- d -->
<g id="node4" class="node"><title>d</title>
<ellipse fill="none" stroke="black" cx="27" cy="-86.4761" rx="27" ry="18"/>
<text text-anchor="middle" x="27" y="-82.7761" font-family="Times,serif" font-size="14.00">d</text>
</g>
<!-- a&#45;&#45;d -->
<g id="edge13" class="edge"><title>a&#45;&#45;d</title>
<path fill="none" stroke="black" d="M71.7799,-86.4761C66.0454,-86.4761 59.9945,-86.4761 54.2586,-86.4761"/>
</g>
<!-- b&#45;&#45;c -->
<g id="edge2" class="edge"><title>b&#45;&#45;c</title>
<path fill="none" stroke="black" d="M132.66,-136.786C122.673,-140.031 111.161,-143.771 101.19,-147.011"/>
</g>
<!-- b&#45;&#45;d -->
<g id="edge10" class="edge"><title>b&#45;&#45;d</title>
<path fill="none" stroke="black" d="M132.75,-120.836C109.464,-113.27 74.6392,-101.955 51.389,-94.4005"/>
</g>
<!-- e -->
<g id="node5" class="node"><title>e</title>
<ellipse fill="none" stroke="black" cx="76.7508" cy="-18" rx="27" ry="18"/>
<text text-anchor="middle" x="76.7508" y="-14.3" font-family="Times,serif" font-size="14.00">e</text>
</g>
<!-- b&#45;&#45;e -->
<g id="edge14" class="edge"><title>b&#45;&#45;e</title>
<path fill="none" stroke="black" d="M145.371,-112.448C130.152,-91.5003 103.92,-55.3957 88.6773,-34.4155"/>
</g>
<!-- c&#45;&#45;d -->
<g id="edge3" class="edge"><title>c&#45;&#45;d</title>
<path fill="none" stroke="black" d="M64.9605,-138.724C57.1448,-127.967 46.9198,-113.893 39.0512,-103.063"/>
</g>
<!-- c&#45;&#45;e -->
<g id="edge8" class="edge"><title>c&#45;&#45;e</title>
<path fill="none" stroke="black" d="M76.7508,-136.766C76.7508,-110.572 76.7508,-62.4972 76.7508,-36.2614"/>
</g>
<!-- f -->
<g id="node6" class="node"><title>f</title>
<ellipse fill="none" stroke="black" cx="157.249" cy="-44.1555" rx="27" ry="18"/>
<text text-anchor="middle" x="157.249" y="-40.4555" font-family="Times,serif" font-size="14.00">f</text>
</g>
<!-- c&#45;&#45;f -->
<g id="edge15" class="edge"><title>c&#45;&#45;f</title>
<path fill="none" stroke="black" d="M88.6286,-138.604C103.848,-117.656 130.08,-81.5512 145.323,-60.571"/>
</g>
<!-- d&#45;&#45;e -->
<g id="edge4" class="edge"><title>d&#45;&#45;e</title>
<path fill="none" stroke="black" d="M38.7902,-70.2482C46.606,-59.4908 56.831,-45.4173 64.6996,-34.5871"/>
</g>
<!-- d&#45;&#45;f -->
<g id="edge11" class="edge"><title>d&#45;&#45;f</title>
<path fill="none" stroke="black" d="M51.4989,-78.5159C74.7854,-70.9497 109.61,-59.6344 132.86,-52.08"/>
</g>
<!-- e&#45;&#45;a -->
<g id="edge9" class="edge"><title>e&#45;&#45;a</title>
<path fill="none" stroke="black" d="M82.4805,-35.6343C85.7766,-45.7788 89.9065,-58.4892 93.2124,-68.6635"/>
</g>
<!-- e&#45;&#45;f -->
<g id="edge5" class="edge"><title>e&#45;&#45;f</title>
<path fill="none" stroke="black" d="M101.34,-25.9896C111.327,-29.2346 122.839,-32.9748 132.81,-36.2148"/>
</g>
<!-- f&#45;&#45;a -->
<g id="edge6" class="edge"><title>f&#45;&#45;a</title>
<path fill="none" stroke="black" d="M138.819,-57.546C132.019,-62.4861 124.317,-68.0822 117.51,-73.0274"/>
</g>
<!-- f&#45;&#45;b -->
<g id="edge12" class="edge"><title>f&#45;&#45;b</title>
<path fill="none" stroke="black" d="M157.249,-62.5214C157.249,-76.8158 157.249,-96.5467 157.249,-110.757"/>
</g>
</g>
</svg>
