<?xml version="1.0" encoding="UTF-8" standalone="no"?>
<!DOCTYPE svg PUBLIC "-//W3C//DTD SVG 1.1//EN"
 "http://www.w3.org/Graphics/SVG/1.1/DTD/svg11.dtd">
<!-- Generated by graphviz version 2.38.0 (20140413.2041)
 -->
<!-- Title: graphname Pages: 1 -->
<svg width="206pt" height="116pt"
 viewBox="0.00 0.00 206.00 116.00" xmlns="http://www.w3.org/2000/svg" xmlns:xlink="http://www.w3.org/1999/xlink">
<g id="graph0" class="graph" transform="scale(1 1) rotate(0) translate(4 112)">
<title>graphname</title>
<polygon fill="white" stroke="none" points="-4,4 -4,-112 202,-112 202,4 -4,4"/>
<!-- a -->
<g id="node1" class="node"><title>a</title>
<ellipse fill="none" stroke="black" cx="27" cy="-90" rx="27" ry="18"/>
<text text-anchor="middle" x="27" y="-86.3" font-family="Times,serif" font-size="14.00">a</text>
</g>
<!-- z -->
<g id="node2" class="node"><title>z</title>
<ellipse fill="none" stroke="black" cx="63" cy="-18" rx="27" ry="18"/>
<text text-anchor="middle" x="63" y="-14.3" font-family="Times,serif" font-size="14.00">z</text>
</g>
<!-- a&#45;&gt;z -->
<g id="edge1" class="edge"><title>a&#45;&gt;z</title>
<path fill="none" stroke="black" d="M29.8364,-72.055C33.4409,-63.2241 38.8869,-52.2815 44.4233,-42.6321"/>
<polygon fill="black" stroke="black" points="47.5301,-44.2579 49.702,-33.888 41.5374,-40.6402 47.5301,-44.2579"/>
</g>
<!-- z&#45;&gt;a -->
<g id="edge4" class="edge"><title>z&#45;&gt;a</title>
<path fill="none" stroke="black" d="M60.1248,-36.04C56.5124,-44.8733 51.0699,-55.8 45.5411,-65.43"/>
<polygon fill="black" stroke="black" points="42.4454,-63.7856 40.2707,-74.1548 48.4371,-67.405 42.4454,-63.7856"/>
</g>
<!-- b -->
<g id="node3" class="node"><title>b</title>
<ellipse fill="none" stroke="black" cx="99" cy="-90" rx="27" ry="18"/>
<text text-anchor="middle" x="99" y="-86.3" font-family="Times,serif" font-size="14.00">b</text>
</g>
<!-- b&#45;&gt;z -->
<g id="edge2" class="edge"><title>b&#45;&gt;z</title>
<path fill="none" stroke="black" d="M90.6504,-72.7646C86.2885,-64.2831 80.8531,-53.7144 75.9587,-44.1974"/>
<polygon fill="black" stroke="black" points="78.9904,-42.4395 71.3043,-35.1473 72.7654,-45.6409 78.9904,-42.4395"/>
</g>
<!-- c -->
<g id="node4" class="node"><title>c</title>
<ellipse fill="none" stroke="black" cx="171" cy="-90" rx="27" ry="18"/>
<text text-anchor="middle" x="171" y="-86.3" font-family="Times,serif" font-size="14.00">c</text>
</g>
<!-- c&#45;&gt;z -->
<g id="edge3" class="edge"><title>c&#45;&gt;z</title>
<path fill="none" stroke="black" d="M152.188,-76.8069C134.998,-65.6653 109.382,-49.0622 90.0067,-36.5043"/>
<polygon fill="black" stroke="black" points="91.8918,-33.5553 81.5966,-31.0533 88.0845,-39.4294 91.8918,-33.5553"/>
</g>
</g>
</svg>
