<?xml version="1.0" encoding="UTF-8" standalone="no"?>
<!DOCTYPE svg PUBLIC "-//W3C//DTD SVG 1.1//EN"
 "http://www.w3.org/Graphics/SVG/1.1/DTD/svg11.dtd">
<!-- Generated by graphviz version 2.38.0 (20140413.2041)
 -->
<!-- Title: graphname Pages: 1 -->
<svg width="134pt" height="188pt"
 viewBox="0.00 0.00 134.00 188.00" xmlns="http://www.w3.org/2000/svg" xmlns:xlink="http://www.w3.org/1999/xlink">
<g id="graph0" class="graph" transform="scale(1 1) rotate(0) translate(4 184)">
<title>graphname</title>
<polygon fill="white" stroke="none" points="-4,4 -4,-184 130,-184 130,4 -4,4"/>
<!-- a -->
<g id="node1" class="node"><title>a</title>
<ellipse fill="none" stroke="black" cx="63" cy="-162" rx="27" ry="18"/>
<text text-anchor="middle" x="63" y="-158.3" font-family="Times,serif" font-size="14.00">a</text>
</g>
<!-- b -->
<g id="node2" class="node"><title>b</title>
<ellipse fill="none" stroke="black" cx="63" cy="-90" rx="27" ry="18"/>
<text text-anchor="middle" x="63" y="-86.3" font-family="Times,serif" font-size="14.00">b</text>
</g>
<!-- a&#45;&#45;b -->
<g id="edge1" class="edge"><title>a&#45;&#45;b</title>
<path fill="none" stroke="black" d="M63,-143.697C63,-132.846 63,-118.917 63,-108.104"/>
</g>
<!-- c -->
<g id="node3" class="node"><title>c</title>
<ellipse fill="none" stroke="black" cx="27" cy="-18" rx="27" ry="18"/>
<text text-anchor="middle" x="27" y="-14.3" font-family="Times,serif" font-size="14.00">c</text>
</g>
<!-- b&#45;&#45;c -->
<g id="edge2" class="edge"><title>b&#45;&#45;c</title>
<path fill="none" stroke="black" d="M54.6504,-72.7646C48.8345,-61.456 41.1103,-46.4367 35.3043,-35.1473"/>
</g>
<!-- d -->
<g id="node4" class="node"><title>d</title>
<ellipse fill="none" stroke="black" cx="99" cy="-18" rx="27" ry="18"/>
<text text-anchor="middle" x="99" y="-14.3" font-family="Times,serif" font-size="14.00">d</text>
</g>
<!-- b&#45;&#45;d -->
<g id="edge3" class="edge"><title>b&#45;&#45;d</title>
<path fill="none" stroke="black" d="M71.3496,-72.7646C77.1655,-61.456 84.8897,-46.4367 90.6957,-35.1473"/>
</g>
</g>
</svg>
