<?xml version="1.0" encoding="UTF-8" standalone="no"?>
<!DOCTYPE svg PUBLIC "-//W3C//DTD SVG 1.1//EN"
 "http://www.w3.org/Graphics/SVG/1.1/DTD/svg11.dtd">
<!-- Generated by graphviz version 2.38.0 (20140413.2041)
 -->
<!-- Title: graphname Pages: 1 -->
<svg width="303pt" height="252pt"
 viewBox="0.00 0.00 302.64 252.40" xmlns="http://www.w3.org/2000/svg" xmlns:xlink="http://www.w3.org/1999/xlink">
<g id="graph0" class="graph" transform="scale(1 1) rotate(0) translate(4 248.402)">
<title>graphname</title>
<polygon fill="white" stroke="none" points="-4,4 -4,-248.402 298.642,-248.402 298.642,4 -4,4"/>
<!-- a -->
<g id="node1" class="node"><title>a</title>
<ellipse fill="none" stroke="black" cx="207.482" cy="-18" rx="27" ry="18"/>
<text text-anchor="middle" x="207.482" y="-14.3" font-family="Times,serif" font-size="14.00">a</text>
</g>
<!-- b -->
<g id="node2" class="node"><title>b</title>
<ellipse fill="none" stroke="black" cx="267.642" cy="-122.201" rx="27" ry="18"/>
<text text-anchor="middle" x="267.642" y="-118.501" font-family="Times,serif" font-size="14.00">b</text>
</g>
<!-- a&#45;&#45;b -->
<g id="edge1" class="edge"><title>a&#45;&#45;b</title>
<path fill="none" stroke="black" d="M217.416,-35.2067C228.63,-54.6291 246.756,-86.025 257.893,-105.315"/>
</g>
<!-- c -->
<g id="node3" class="node"><title>c</title>
<ellipse fill="none" stroke="black" cx="27" cy="-122.201" rx="27" ry="18"/>
<text text-anchor="middle" x="27" y="-118.501" font-family="Times,serif" font-size="14.00">c</text>
</g>
<!-- a&#45;&#45;c -->
<g id="edge7" class="edge"><title>a&#45;&#45;c</title>
<path fill="none" stroke="black" d="M186.778,-29.9532C151.964,-50.0532 82.1136,-90.3813 47.4621,-110.387"/>
</g>
<!-- d -->
<g id="node4" class="node"><title>d</title>
<ellipse fill="none" stroke="black" cx="87.1606" cy="-226.402" rx="27" ry="18"/>
<text text-anchor="middle" x="87.1606" y="-222.702" font-family="Times,serif" font-size="14.00">d</text>
</g>
<!-- a&#45;&#45;d -->
<g id="edge13" class="edge"><title>a&#45;&#45;d</title>
<path fill="none" stroke="black" d="M197.635,-35.0544C175.017,-74.2309 119.561,-170.283 96.9743,-209.405"/>
</g>
<!-- b&#45;&#45;c -->
<g id="edge2" class="edge"><title>b&#45;&#45;c</title>
<path fill="none" stroke="black" d="M240.505,-122.201C194.165,-122.201 100.31,-122.201 54.0378,-122.201"/>
</g>
<!-- b&#45;&#45;d -->
<g id="edge10" class="edge"><title>b&#45;&#45;d</title>
<path fill="none" stroke="black" d="M246.939,-134.154C212.124,-154.254 142.274,-194.582 107.623,-214.589"/>
</g>
<!-- e -->
<g id="node5" class="node"><title>e</title>
<ellipse fill="none" stroke="black" cx="207.482" cy="-226.402" rx="27" ry="18"/>
<text text-anchor="middle" x="207.482" y="-222.702" font-family="Times,serif" font-size="14.00">e</text>
</g>
<!-- b&#45;&#45;e -->
<g id="edge14" class="edge"><title>b&#45;&#45;e</title>
<path fill="none" stroke="black" d="M257.708,-139.408C246.494,-158.83 228.368,-190.226 217.231,-209.516"/>
</g>
<!-- c&#45;&#45;d -->
<g id="edge3" class="edge"><title>c&#45;&#45;d</title>
<path fill="none" stroke="black" d="M36.9343,-139.408C48.1478,-158.83 66.2742,-190.226 77.4111,-209.516"/>
</g>
<!-- c&#45;&#45;e -->
<g id="edge8" class="edge"><title>c&#45;&#45;e</title>
<path fill="none" stroke="black" d="M47.7035,-134.154C82.5178,-154.254 152.368,-194.582 187.02,-214.589"/>
</g>
<!-- f -->
<g id="node6" class="node"><title>f</title>
<ellipse fill="none" stroke="black" cx="87.1606" cy="-18" rx="27" ry="18"/>
<text text-anchor="middle" x="87.1606" y="-14.3" font-family="Times,serif" font-size="14.00">f</text>
</g>
<!-- c&#45;&#45;f -->
<g id="edge15" class="edge"><title>c&#45;&#45;f</title>
<path fill="none" stroke="black" d="M36.9343,-104.994C48.1478,-85.572 66.2742,-54.1762 77.4111,-34.8865"/>
</g>
<!-- d&#45;&#45;e -->
<g id="edge4" class="edge"><title>d&#45;&#45;e</title>
<path fill="none" stroke="black" d="M114.163,-226.402C133.84,-226.402 160.4,-226.402 180.153,-226.402"/>
</g>
<!-- d&#45;&#45;f -->
<g id="edge11" class="edge"><title>d&#45;&#45;f</title>
<path fill="none" stroke="black" d="M87.1606,-208.273C87.1606,-168.859 87.1606,-75.7464 87.1606,-36.2363"/>
</g>
<!-- e&#45;&#45;a -->
<g id="edge9" class="edge"><title>e&#45;&#45;a</title>
<path fill="none" stroke="black" d="M207.482,-208.273C207.482,-168.859 207.482,-75.7464 207.482,-36.2363"/>
</g>
<!-- e&#45;&#45;f -->
<g id="edge5" class="edge"><title>e&#45;&#45;f</title>
<path fill="none" stroke="black" d="M197.635,-209.348C175.017,-170.171 119.561,-74.1194 96.9743,-34.9978"/>
</g>
<!-- f&#45;&#45;a -->
<g id="edge6" class="edge"><title>f&#45;&#45;a</title>
<path fill="none" stroke="black" d="M114.163,-18C133.84,-18 160.4,-18 180.153,-18"/>
</g>
<!-- f&#45;&#45;b -->
<g id="edge12" class="edge"><title>f&#45;&#45;b</title>
<path fill="none" stroke="black" d="M107.864,-29.9532C142.678,-50.0532 212.529,-90.3813 247.18,-110.387"/>
</g>
</g>
</svg>
